SplineFontDB: 3.2
FontName: RoutedGothicWide-Half-Italic
FullName: Routed Gothic Wide Half Italic
FamilyName: Routed Gothic Wide
Weight: Regular

StartChar: exclam
Encoding: 33 33 0
Width: 360
Flags: HW
LayerCount: 2
Back
SplineSet
149.518554688 72 m 0
 141.819335938 59.068359375 122.982421875 48 106.34765625 48 c 0
 96.34765625 48 87.939453125 56 89.5302734375 64 c 0
 90.06640625 66.6923828125 91.16796875 69.3837890625 92.7255859375 72 c 1024
92.7255859375 72 m 0
 100.424804688 84.931640625 119.260742188 96 135.895507812 96 c 0
 145.895507812 96 154.3046875 88 152.712890625 80 c 0
 152.177734375 77.3076171875 151.076171875 74.6162109375 149.518554688 72 c 1024
243.65234375 688 m 1
 164.086914062 288 l 1025
EndSplineSet
Fore
SplineSet
15.144562222 94.3323415573 m 0
 15.9098360271 96.5982354738 16.3597705662 97.5221456692 17.2297691485 99.024870493 c 0
 31.3983833369 123.497931364 53.5545378324 140.110084646 76.266873708 151.466252584 c 0
 95.0766306238 160.871131042 118.61167435 168 145 168 c 0
 179.863645494 168 203.989853075 153.255768855 218.765749835 137.136608753 c 0
 228.732586175 126.062346153 237.941190869 109.193854599 237.941190869 88.9561652293 c 0
 237.941190869 84.6648226069 237.527135558 80.2219875168 236.618455065 75.6507813584 c 0
 234.761890639 64.716892393 230.954319538 56.5974192531 226.837658797 49.6150167806 c 0
 226.111459793 47.4648191713 225.62477604 46.4511621045 224.770230852 44.975129507 c 0
 210.601616663 20.5020686361 188.445462168 3.88991535381 165.733126292 -7.466252584 c 0
 146.923369376 -16.8711310419 123.38832565 -24 97 -24 c 0
 68.828656949 -24 47.9458697941 -13.636568233 33.6228099125 -3.21979741 c 0
 16.9676494692 9.59186446953 5.22866456296 29.3484726924 5.22866456296 54.4526188373 c 0
 5.22866456296 58.9226133992 5.60084507131 63.562149825 6.38372268041 68.362210315 c 0
 7.7647496307 77.1676838038 10.2039991529 85.3574725502 15.144562222 94.3323415573 c 0
59.9247068961 76.8925950181 m 0
 59.460973261 75.4479774059 58.2064399909 72.5430446807 56.9692070641 70.6871952906 c 0
 55.6045773147 68.6402506665 54.5279154668 65.9897807828 53.6943658899 60.1549337442 c 0
 51.2704303 46.823288 55.1417815195 40.9643220138 62.3925472209 35.2091660665 c 0
 70.1125327936 29.6914519111 81.1224542014 24 97 24 c 0
 114.61167435 24 131.076630624 28.8711310419 144.266873708 35.466252584 c 0
 160.718564257 43.6920978586 173.414261067 53.6178365647 182.075293104 67.1074049819 c 0
 182.539026739 68.5520225941 183.793560009 71.4569553193 185.030792936 73.3128047094 c 0
 187.359256485 76.8055000329 188.870145123 80.7966433437 189.241212152 83.3941125497 c 0
 189.30285268 83.8255962448 189.444387118 84.6342755174 189.571510556 85.2063309876 c 0
 191.465823787 93.7307405304 189.327147372 98.0935054611 183.234250165 104.863391247 c 0
 176.010146925 112.744231145 166.136354506 120 145 120 c 0
 127.38832565 120 110.923369376 115.128868958 97.733126292 108.533747416 c 0
 81.2814357428 100.307902141 68.5857389329 90.3821634353 59.9247068961 76.8925950181 c 0
160.448631477 692.619625712 m 2
 168.295843078 733.425126039 211.132109998 760 253 760 c 0
 258.975374844 760 264.803098651 759.455124906 270.417829267 758.388695508 c 0
 301.5367986 752.478138795 328.706000939 728.138405847 328.706000939 695.263073347 c 0
 328.706000939 691.413892356 328.333546423 687.447699368 327.551368523 683.380374288 c 2
 247.551368523 283.380374288 l 2
 239.704156922 242.574873961 196.867890002 216 155 216 c 0
 149.024625156 216 143.196901349 216.544875094 137.582170733 217.611304492 c 0
 106.4632014 223.521861205 79.2939990605 247.861594153 79.2939990605 280.736926653 c 0
 79.2939990605 284.586107644 79.6664535771 288.552300632 80.4486314772 292.619625712 c 2
 160.448631477 692.619625712 l 2
207.551368523 683.380374288 m 2
 127.551368523 283.380374288 l 2
 126.382442776 277.301960403 129.639506245 267.97801753 146.538887147 264.768247046 c 0
 149.114455991 264.279058424 151.943795896 264 155 264 c 0
 179.132109998 264 198.295843078 281.425126039 200.448631477 292.619625712 c 2
 280.448631477 692.619625712 l 2
 281.617557224 698.698039597 278.360493755 708.02198247 261.461112853 711.231752954 c 0
 258.885544009 711.720941576 256.056204104 712 253 712 c 0
 228.867890002 712 209.704156922 694.574873961 207.551368523 683.380374288 c 2
EndSplineSet
EndChar

StartChar: quotedbl
Encoding: 34 34 1
Width: 480
Flags: HW
LayerCount: 2
Back
SplineSet
403.65234375 688 m 1
 362.278320312 480 l 1025
203.65234375 688 m 1
 162.278320312 480 l 1025
EndSplineSet
Fore
SplineSet
120.452820397 692.641408095 m 2
 128.292309136 733.40674954 171.133371924 760 213 760 c 0
 218.975374844 760 224.803098651 759.455124906 230.417829267 758.388695508 c 0
 261.5339569 752.478678531 288.703884895 728.157525385 288.703884895 695.261040188 c 0
 288.703884895 691.406042011 288.330774074 687.433283154 287.547179603 683.358591905 c 2
 245.547179603 475.358591905 l 2
 237.707690864 434.59325046 194.866628076 408 153 408 c 0
 147.024625156 408 141.196901349 408.544875094 135.582170733 409.611304492 c 0
 104.4660431 415.521321469 77.2961151052 439.842474615 77.2961151052 472.738959812 c 0
 77.2961151052 476.593957989 77.669225926 480.566716846 78.452820397 484.641408095 c 2
 120.452820397 692.641408095 l 2
167.547179603 683.358591905 m 2
 125.547179603 475.358591905 l 2
 124.385969733 469.320300579 127.639491576 459.978020316 144.538887147 456.768247046 c 0
 147.114455991 456.279058424 149.943795896 456 153 456 c 0
 177.133371924 456 196.292309136 473.40674954 198.452820397 484.641408095 c 2
 240.452820397 692.641408095 l 2
 241.614030267 698.679699421 238.360508424 708.021979684 221.461112853 711.231752954 c 0
 218.885544009 711.720941576 216.056204104 712 213 712 c 0
 188.866628076 712 169.707690864 694.59325046 167.547179603 683.358591905 c 2
320.452820397 692.641408095 m 2
 328.292309136 733.40674954 371.133371924 760 413 760 c 0
 418.975374844 760 424.803098651 759.455124906 430.417829267 758.388695508 c 0
 461.5339569 752.478678531 488.703884895 728.157525385 488.703884895 695.261040188 c 0
 488.703884895 691.406042011 488.330774074 687.433283154 487.547179603 683.358591905 c 2
 445.547179603 475.358591905 l 2
 437.707690864 434.59325046 394.866628076 408 353 408 c 0
 347.024625156 408 341.196901349 408.544875094 335.582170733 409.611304492 c 0
 304.4660431 415.521321469 277.296115105 439.842474615 277.296115105 472.738959812 c 0
 277.296115105 476.593957989 277.669225926 480.566716846 278.452820397 484.641408095 c 2
 320.452820397 692.641408095 l 2
367.547179603 683.358591905 m 2
 325.547179603 475.358591905 l 2
 324.385969733 469.320300579 327.639491576 459.978020316 344.538887147 456.768247046 c 0
 347.114455991 456.279058424 349.943795896 456 353 456 c 0
 377.133371924 456 396.292309136 473.40674954 398.452820397 484.641408095 c 2
 440.452820397 692.641408095 l 2
 441.614030267 698.679699421 438.360508424 708.021979684 421.461112853 711.231752954 c 0
 418.885544009 711.720941576 416.056204104 712 413 712 c 0
 388.866628076 712 369.707690864 694.59325046 367.547179603 683.358591905 c 2
EndSplineSet
EndChar

StartChar: numbersign
Encoding: 35 35 2
Width: 840
Flags: HW
LayerCount: 2
Back
SplineSet
356.34765625 48 m 1
 703.65234375 688 l 1025
136.34765625 48 m 1
 483.65234375 688 l 1025
155.913085938 448 m 1
 715.913085938 448 l 1025
124.086914062 288 m 1
 684.086914062 288 l 1025
EndSplineSet
Fore
SplineSet
404.229444337 376 m 1
 395.479444337 360 l 1
 435.770555663 360 l 1
 444.520555663 376 l 1
 404.229444337 376 l 1
368.943092651 411.515496207 m 2
 372.667303804 418.325482316 381.0176408 424 390 424 c 2
 485 424 l 2
 487.672476284 424 491.765831698 423.26991854 494.827936018 421.895471533 c 0
 503.697525074 417.914294255 508.929992877 408.96245778 508.929992877 399.786796926 c 0
 508.929992877 395.942273772 508.011413226 392.058457397 506.056907349 388.484503793 c 2
 471.056907349 324.484503793 l 2
 467.332696196 317.674517684 458.9823592 312 450 312 c 2
 355 312 l 2
 352.327523716 312 348.234168302 312.73008146 345.172063982 314.104528467 c 0
 336.302474926 318.085705745 331.070007123 327.03754222 331.070007123 336.213203074 c 0
 331.070007123 340.057726228 331.988586774 343.941542603 333.943092651 347.515496207 c 2
 368.943092651 411.515496207 l 2
272.716579997 53.8208550009 m 0
 274.425424753 60.6562340256 276.596618766 65.8588689924 279.710619036 72.0868695321 c 2
 357.697064038 216 l 1
 317.297243181 216 l 1
 213.067220464 23.5031111972 l 2
 197.006920403 -5.69743436706 163.018072111 -24 127 -24 c 0
 121.024625156 -24 115.196901349 -23.4551249063 109.582170733 -22.3886955082 c 0
 78.4517998114 -16.475973243 51.2855059322 7.93829035101 51.2855059322 40.7286871692 c 0
 51.2855059322 44.5545697422 51.6553343863 48.4944808395 52.4318452725 52.5323374476 c 0
 52.5110150117 52.9440200916 52.6412447971 53.5195142033 52.7165799965 53.8208550009 c 0
 54.4254247527 60.6562340256 56.5966187662 65.8588689924 59.7106190361 72.0868695321 c 2
 137.697064038 216 l 1
 115 216 l 2
 109.024625156 216 103.196901349 216.544875094 97.5821707332 217.611304492 c 0
 66.4517998114 223.524026757 39.2855059322 247.938290351 39.2855059322 280.728687169 c 0
 39.2855059322 284.554569742 39.6553343863 288.49448084 40.4318452725 292.532337448 c 0
 48.3934628316 333.932748755 92.4321049345 360 134 360 c 2
 215.770555663 360 l 1
 224.520555663 376 l 1
 146 376 l 2
 140.024710443 376 134.203195263 376.544932674 128.598845237 377.617859992 c 0
 97.2697619421 383.615670468 71.2759496159 408.325436701 71.2759496159 440.614357609 c 0
 71.2759496159 444.4845216 71.6493903192 448.463571691 72.4318452725 452.532337448 c 0
 80.3100045996 493.498765948 123.127053096 520 165 520 c 2
 302.702756819 520 l 1
 406.932779536 712.496888803 l 2
 422.993079597 741.697434367 456.981927889 760 493 760 c 0
 498.975374844 760 504.803098651 759.455124906 510.417829267 758.388695508 c 0
 541.548200189 752.475973243 568.714494068 728.061709649 568.714494068 695.271312831 c 0
 568.714494068 691.445430258 568.344665614 687.50551916 567.568154728 683.467662552 c 0
 567.488984988 683.055979908 567.358755203 682.480485797 567.283420003 682.179144999 c 0
 565.574575247 675.343765974 563.403381234 670.141131008 560.289380964 663.913130468 c 2
 482.302935962 520 l 1
 522.702756819 520 l 1
 626.932779536 712.496888803 l 2
 642.993079597 741.697434367 676.981927889 760 713 760 c 0
 718.975374844 760 724.803098651 759.455124906 730.417829267 758.388695508 c 0
 761.548200189 752.475973243 788.714494068 728.061709649 788.714494068 695.271312831 c 0
 788.714494068 691.445430258 788.344665614 687.50551916 787.568154728 683.467662552 c 0
 787.488984988 683.055979908 787.358755203 682.480485797 787.283420003 682.179144999 c 0
 785.574575247 675.343765974 783.403381234 670.141131008 780.289380964 663.913130468 c 2
 702.302935962 520 l 1
 725 520 l 2
 730.975374844 520 736.803098651 519.455124906 742.417829267 518.388695508 c 0
 773.548200189 512.475973243 800.714494068 488.061709649 800.714494068 455.271312831 c 0
 800.714494068 451.445430258 800.344665614 447.50551916 799.568154728 443.467662552 c 0
 791.606537168 402.067251245 747.567895066 376 706 376 c 2
 624.229444337 376 l 1
 615.479444337 360 l 1
 694 360 l 2
 699.975289557 360 705.796804737 359.455067326 711.401154763 358.382140008 c 0
 742.730238058 352.384329532 768.724050384 327.674563299 768.724050384 295.385642391 c 0
 768.724050384 291.5154784 768.350609681 287.536428309 767.568154728 283.467662552 c 0
 759.6899954 242.501234052 716.872946904 216 675 216 c 2
 537.297243181 216 l 1
 433.067220464 23.5031111972 l 2
 417.006920403 -5.69743436706 383.018072111 -24 347 -24 c 0
 341.024625156 -24 335.196901349 -23.4551249063 329.582170733 -22.3886955082 c 0
 298.451799811 -16.475973243 271.285505932 7.93829035101 271.285505932 40.7286871692 c 0
 271.285505932 44.5545697422 271.655334386 48.4944808395 272.431845272 52.5323374476 c 0
 272.511015012 52.9440200916 272.641244797 53.5195142033 272.716579997 53.8208550009 c 0
319.379065003 41.5791603284 m 0
 319.379065003 35.1388998449 325.147178345 24 347 24 c 0
 366.981927889 24 384.993079597 35.6974343671 390.932779536 46.4968888028 c 2
 501.895196616 251.427478905 l 2
 505.635803691 258.335807287 513.998869302 264 523 264 c 2
 675 264 l 2
 699.127053096 264 718.3100046 281.498765948 720.431845272 292.532337448 c 0
 721.752918735 299.401919455 718.545558629 308.142659262 702.375682677 311.238308454 c 0
 699.854386399 311.720999156 697.056289391 312 694 312 c 2
 575 312 l 2
 572.327523716 312 568.234168302 312.73008146 565.172063982 314.104528467 c 0
 556.302474926 318.085705745 551.070007123 327.03754222 551.070007123 336.213203074 c 0
 551.070007123 340.057726228 551.988586774 343.941542603 553.943092651 347.515496207 c 2
 588.943092651 411.515496207 l 2
 592.667303804 418.325482316 601.0176408 424 610 424 c 2
 706 424 l 2
 730.432104934 424 750.393462832 441.932748755 752.431845272 452.532337448 c 0
 753.631690753 458.771533946 750.360434975 468.021993634 733.461112853 471.231752954 c 0
 730.885544009 471.720941576 728.056204104 472 725 472 c 2
 662 472 l 2
 659.558550865 472 655.287772868 472.72017032 652.256173316 474.066969166 c 0
 643.341480274 478.027353146 638.069187346 487.00591279 638.069187346 496.213966192 c 0
 638.069187346 500.028253381 638.97385831 503.881919325 640.899050153 507.434592934 c 2
 737.701898771 686.070777497 l 2
 738.440856708 687.605704963 739.925388545 691.135517294 740.546683631 693.196957211 c 0
 740.595157154 693.580765303 740.620934997 693.990303319 740.620934997 694.420839672 c 0
 740.620934997 700.861100155 734.852821655 712 713 712 c 0
 693.018072111 712 675.006920403 700.302565633 669.067220464 689.503111197 c 2
 558.104803384 484.572521095 l 2
 554.364196309 477.664192713 546.001130698 472 537 472 c 2
 442 472 l 2
 439.558550865 472 435.287772868 472.72017032 432.256173316 474.066969166 c 0
 423.341480274 478.027353146 418.069187346 487.00591279 418.069187346 496.213966192 c 0
 418.069187346 500.028253381 418.97385831 503.881919325 420.899050153 507.434592934 c 2
 517.701898771 686.070777497 l 2
 518.440856708 687.605704963 519.925388545 691.135517294 520.546683631 693.196957211 c 0
 520.595157154 693.580765303 520.620934997 693.990303319 520.620934997 694.420839672 c 0
 520.620934997 700.861100155 514.852821655 712 493 712 c 0
 473.018072111 712 455.006920403 700.302565633 449.067220464 689.503111197 c 2
 338.104803384 484.572521095 l 2
 334.364196309 477.664192713 326.001130698 472 317 472 c 2
 165 472 l 2
 140.872946904 472 121.6899954 454.501234052 119.568154728 443.467662552 c 0
 118.247081265 436.598080545 121.454441371 427.857340738 137.624317323 424.761691546 c 0
 140.145613601 424.279000844 142.943710609 424 146 424 c 2
 265 424 l 2
 267.672476284 424 271.765831698 423.26991854 274.827936018 421.895471533 c 0
 283.697525074 417.914294255 288.929992877 408.96245778 288.929992877 399.786796926 c 0
 288.929992877 395.942273772 288.011413226 392.058457397 286.056907349 388.484503793 c 2
 251.056907349 324.484503793 l 2
 247.332696196 317.674517684 238.9823592 312 230 312 c 2
 134 312 l 2
 109.567895066 312 89.6065371684 294.067251245 87.5681547275 283.467662552 c 0
 86.368309247 277.228466054 89.6395650247 267.978006366 106.538887147 264.768247046 c 0
 109.114455991 264.279058424 111.943795896 264 115 264 c 2
 178 264 l 2
 180.441449135 264 184.712227132 263.27982968 187.743826684 261.933030834 c 0
 196.658519726 257.972646854 201.930812654 248.99408721 201.930812654 239.786033808 c 0
 201.930812654 235.971746619 201.02614169 232.118080675 199.100949847 228.565407066 c 2
 102.298101229 49.9292225029 l 2
 101.559143292 48.3942950373 100.074611455 44.8644827059 99.4533163691 42.8030427888 c 0
 99.4048428459 42.4192346974 99.3790650028 42.0096966814 99.3790650028 41.5791603284 c 0
 99.3790650028 35.1388998449 105.147178345 24 127 24 c 0
 146.981927889 24 164.993079597 35.6974343671 170.932779536 46.4968888028 c 2
 281.895196616 251.427478905 l 2
 285.635803691 258.335807287 293.998869302 264 303 264 c 2
 398 264 l 2
 400.441449135 264 404.712227132 263.27982968 407.743826684 261.933030834 c 0
 416.658519726 257.972646854 421.930812654 248.99408721 421.930812654 239.786033808 c 0
 421.930812654 235.971746619 421.02614169 232.118080675 419.100949847 228.565407066 c 2
 322.298101229 49.9292225029 l 2
 321.443348526 48.1537717852 319.379065003 44.3146281183 319.379065003 41.5791603284 c 0
EndSplineSet
EndChar

StartChar: dollar
Encoding: 36 36 3
Width: 630
Flags: HW
LayerCount: 2
Back
SplineSet
513.416992188 536 m 0
 513.416992188 536 469.556640625 592 359.556640625 592 c 0
 265.806640625 592 185.20703125 545 174.665039062 492 c 0
 166.39453125 450.420898438 184.666992188 390.134765625 317.38671875 380 c 0
 462.912109375 368.887695312 479.690429688 316.170898438 469.313476562 264 c 0
 456.583007812 200 384.818359375 144 270.443359375 144 c 0
 165.443359375 144 109.765625 216 109.765625 216 c 1024
383.65234375 688 m 1
 256.34765625 48 l 1025
EndSplineSet
Fore
SplineSet
383.428079201 261.226513307 m 2
 384.596816539 264.430557997 384.917700726 265.711432643 385.387122158 268.293250517 c 0
 386.033134638 271.846319158 386.517562505 275.667529069 386.6711356 277.306667954 c 2
 383.428079201 261.226513307 l 2
355.426962598 179.528099738 m 0
 352.986487425 178.612921548 347.916357655 177.713840984 344.11563061 178.173955149 c 0
 330.420035126 179.831937271 320.746310457 193.221502079 323.47369834 206.744800335 c 2
 347.47369834 325.744800335 l 2
 349.340541212 335.001229571 359.298242244 344.954937379 371.395446419 344.954937379 c 0
 373.4111749 344.954937379 375.486306188 344.678574995 377.59330707 344.076574743 c 0
 395.260114327 339.028915527 407.342834127 330.260729038 412.814213028 325.883625917 c 0
 428.790441465 313.594219427 434.410145371 296.45320585 434.410145371 278.430453869 c 0
 434.410145371 272.239624109 433.747060766 265.944755565 432.612877842 259.706749483 c 0
 427.025854656 228.978121957 406.043032038 205.499428932 378.80937416 190.106491871 c 0
 378.559749451 189.965399644 378.079478125 189.706923333 377.733126292 189.533747416 c 0
 371.756942195 186.545655367 364.66823363 182.993576375 355.426962598 179.528099738 c 0
259.338949627 489.006187482 m 2
 258.66897518 487.964005008 258.703104271 487.936395984 258.631256957 487.779816458 c 0
 258.1265476 485.256269672 258.087528203 483.966833819 258.090512145 482.632585595 c 2
 259.338949627 489.006187482 l 2
286.103650746 558.987830845 m 0
 287.76310942 559.485668447 292.580560585 560.207673437 295.751286662 559.841778912 c 0
 309.45592634 558.260294892 319.204263673 544.924954104 316.552428504 531.386637716 c 2
 297.552428504 434.386637716 l 2
 295.678509678 424.819788972 285.5477168 415.057874549 273.552151831 415.057874549 c 0
 270.999695055 415.057874549 268.362807434 415.499862443 265.703071388 416.479765196 c 0
 244.36446876 424.341355638 230.360540108 433.604082567 221.403970975 446.143279353 c 0
 213.041467167 458.089713365 210.084555463 471.285772518 210.084555463 482.977891175 c 0
 210.084555463 487.739059425 210.57487476 492.250842126 211.390167599 496.327306322 c 0
 213.508301251 509.036108235 221.796612521 520.930130007 233.055267868 530.937823648 c 0
 233.274254276 531.132478233 233.698391931 531.493709885 234.007318859 531.740851427 c 0
 245.714083317 541.106262993 262.694832338 551.965185323 286.103650746 558.987830845 c 0
596.591122064 531.587092702 m 0
 588.670619227 490.400477948 545.879865894 464 504 464 c 0
 479.095666958 464 456.450339594 474.327968971 443.138583437 489.944414403 c 0
 441.586578901 491.519538819 437.481887704 495.387949976 430.551560754 499.900845945 c 1
 418.225639746 439.343060119 l 1
 453.7069686 430.265169245 481.621267885 418.243618654 504.786315728 399.904622445 c 0
 544.550975104 369.177385655 555.913344062 328.757487736 555.913344062 293.476308549 c 0
 555.913344062 281.267291428 554.552701321 269.673635449 552.537538941 259.30994321 c 0
 540.840606022 201.994971905 499.714262546 148.811187344 436.59385623 113.986135583 c 0
 409.884101734 99.24971931 378.227174924 87.2442051448 347.248557282 80.4605591006 c 1
 339.53494678 43.2949812266 l 2
 331.718010968 2.64691500074 288.862942896 -24 247 -24 c 0
 241.024625156 -24 235.196901349 -23.4551249063 229.582170733 -22.3886955082 c 0
 198.474333646 -16.480253189 171.302286847 7.78668499487 171.302286847 40.7448448852 c 0
 171.302286847 44.616838069 171.677316501 48.6087878351 172.46505322 52.7050187734 c 2
 178.754975522 83.0110080498 l 1
 149.989502731 90.9900136539 125.901635024 102.044817836 106.833046239 113.3126203 c 0
 62.9003126608 139.029342395 41.0350385401 167.871476071 37.6359086718 172.800607054 c 0
 29.6016883329 184.033662348 25.3140694952 195.667076675 25.3140694952 208.698900278 c 0
 25.3140694952 212.477867235 25.6746082658 216.374424112 26.408877936 220.412907298 c 0
 34.3293807733 261.599522052 77.1201341063 288 119 288 c 0
 144.781477811 288 167.494971176 276.730722147 181.10380507 260.762813063 c 0
 182.100043001 259.588994604 193.338453869 247.309572289 209.475914913 237.201706725 c 1
 225.923216243 320.656531991 l 1
 174.71514627 334.007331335 137.026451455 356.925220224 113.646280099 388.807272073 c 0
 94.7219686365 414.613151341 88.5803188234 441.802455479 88.5803188234 466.504423194 c 0
 88.5803188234 477.101534706 89.7106272342 487.240877155 91.4469171812 496.616842869 c 0
 98.8987547632 532.634057849 120.111351368 563.34757475 148.204055294 588.069154205 c 0
 186.595053424 621.408705213 238.718391591 645.721819142 292.86133592 656.76426958 c 1
 300.473718306 692.75007722 l 2
 308.274678816 733.315071871 351.139667491 760 393 760 c 0
 398.975374844 760 404.803098651 759.455124906 410.417829267 758.388695508 c 0
 441.525666354 752.480253189 468.697713153 728.213315005 468.697713153 695.255155115 c 0
 468.697713153 691.383161931 468.322683499 687.391212165 467.53494678 683.294981227 c 2
 461.337216989 653.433192232 l 1
 544.276238 631.9286916 580.677314774 587.763580302 586.2 580.4 c 0
 594.291201346 569.611731538 597.747598582 556.85743256 597.747598582 544.285469384 c 0
 597.747598582 540.003221907 597.346583254 535.742129248 596.591122064 531.587092702 c 0
549.408877936 540.412907298 m 0
 550.411958224 545.929848884 549.112804151 549.736484743 547.844914527 551.541203312 c 0
 546.142807854 553.712069003 510.845977889 596.944648981 428.843970863 611.362584282 c 0
 417.360072661 613.381731219 406.600508828 625.903123068 409.500787901 639.877194964 c 2
 420.46505322 692.705018773 l 2
 421.603730563 698.626140956 418.360551259 708.021971548 401.461112853 711.231752954 c 0
 398.885544009 711.720941576 396.056204104 712 393 712 c 0
 368.860332509 712 349.725321184 694.684928129 347.526281694 683.24992278 c 2
 336.480392875 631.032993815 l 2
 334.492743947 621.636835245 326.527956559 613.811942626 316.680095916 612.283826319 c 0
 262.840088644 603.929342432 213.742587099 581.410824716 179.795944706 551.930845795 c 0
 157.926793988 532.685993163 143.556775351 510.573099496 138.554288366 487.393158197 c 0
 137.29516284 480.392666246 136.506073108 473.270736686 136.506073108 466.091930488 c 0
 136.506073108 449.833941522 140.553281649 433.284234634 152.353719901 417.192727927 c 0
 169.485493582 393.831218362 203.132068273 372.897410059 258.398778287 362.593447175 c 0
 268.973003164 360.62198152 280.340321102 348.532527866 277.547064631 334.359337627 c 2
 250.547064631 197.359337627 l 2
 248.683306399 187.902490301 238.576338325 178.058290834 226.545133064 178.058290834 c 0
 224.013671448 178.058290834 221.39702093 178.494108495 218.75404325 179.461051549 c 0
 171.518854066 196.742218324 145.849143285 228.081808382 144.46975492 229.74762291 c 0
 140.478273541 234.626100152 131.380779833 240 119 240 c 0
 95.1856781186 240 76.034824135 223.05865078 73.5852081537 211.563118753 c 0
 72.9992555074 207.770006795 73.6631308889 204.782492148 76.2 201.4 c 0
 76.3815056473 201.15799247 76.6963809382 200.719760578 76.9417126848 200.353965195 c 0
 77.9818526173 198.866208654 94.8014032687 175.974531207 131.124300838 154.712347264 c 0
 151.14824915 142.88001417 178.551499211 130.981147359 211.580871818 124.558769352 c 0
 222.24121859 122.485924146 233.4309593 110.248496093 230.499212099 96.122805036 c 2
 219.53494678 43.2949812266 l 2
 218.396269437 37.3738590436 221.639448741 27.9780284519 238.538887147 24.7682470463 c 0
 241.114455991 24.2790584243 243.943795896 24 247 24 c 0
 271.137057104 24 290.281989032 41.3530849993 292.46505322 52.7050187734 c 2
 303.500787901 105.877194964 l 2
 305.412161659 115.086541254 313.236610632 123.037151893 323.054424305 124.673454172 c 0
 356.276854971 130.21052595 386.700486184 141.279708507 413.40614377 156.013864417 c 0
 466.285737454 185.188812656 497.159393978 228.005028095 505.462461059 268.69005679 c 0
 507.127592422 277.253589515 508.201371678 286.064731037 508.201371678 294.890015001 c 0
 508.201371678 318.720972575 500.37175284 342.655051843 475.213684272 362.095377555 c 0
 455.454176973 377.738320833 425.336199497 389.837800104 385.509309411 397.423874406 c 0
 374.841911438 399.455759734 363.604765336 411.649799628 366.482209305 425.786806956 c 2
 389.482209305 538.786806956 l 2
 391.783652933 550.093899563 402.079631704 557.975603467 413.177632418 557.975603467 c 0
 415.303612938 557.975603467 417.459025156 557.686369576 419.59330707 557.076574743 c 0
 426.835339896 555.007422507 434.032336106 552.887719867 442.214828242 548.243722702 c 0
 461.67331908 538.679926278 475.564098197 525.469777682 478.085174562 522.855362688 c 0
 478.551543083 522.379462858 479.111738833 521.763884724 479.574975181 521.197706966 c 0
 483.315043531 516.626512315 490.842578786 512 504 512 c 0
 528.120134106 512 547.329380773 529.599522052 549.408877936 540.412907298 c 0
EndSplineSet
EndChar

StartChar: percent
Encoding: 37 37 5
Width: 1080
Flags: HW
LayerCount: 2
Back
SplineSet
900.217773438 168 m 0
 887.03515625 101.725585938 804.712890625 48 716.34765625 48 c 0
 627.982421875 48 567.03515625 101.725585938 580.217773438 168 c 0
 593.400390625 234.274414062 675.721679688 288 764.086914062 288 c 0
 852.452148438 288 913.400390625 234.274414062 900.217773438 168 c 0
499.782226562 568 m 0
 486.599609375 501.725585938 404.278320312 448 315.913085938 448 c 0
 227.547851562 448 166.599609375 501.725585938 179.782226562 568 c 0
 192.96484375 634.274414062 275.287109375 688 363.65234375 688 c 0
 452.017578125 688 512.96484375 634.274414062 499.782226562 568 c 0
256.34765625 48 m 1
 823.65234375 688 l 1025
EndSplineSet
Fore
SplineSet
247 -24 m 0
 241.024625156 -24 235.196901349 -23.4551249063 229.582170733 -22.3886955082 c 0
 198.451799811 -16.475973243 171.285505932 7.93829035101 171.285505932 40.7286871692 c 0
 171.285505932 44.5545697422 171.655334386 48.4944808395 172.431845272 52.5323374476 c 0
 172.511015012 52.9440200916 172.641244797 53.5195142033 172.716579997 53.8208550009 c 0
 175.648864755 65.5499940354 181.173198706 76.5802429858 189.912478029 86.7760688634 c 2
 509.867523556 447.288796218 l 1
 455.802906026 402.62417123 380.1713324 376 306 376 c 0
 286.352035125 376 267.394051148 377.865756039 249.401867684 381.444685601 c 0
 161.88903377 398.852370941 93.3519621376 459.93124093 93.3519621376 541.96751266 c 0
 93.3519621376 551.919058172 94.3605059788 562.17899822 96.4660637834 572.706787243 c 0
 118.63822776 683.567607125 247.342954322 760 373 760 c 0
 392.647986798 760 411.62550172 758.134276077 429.650730146 754.557490154 c 0
 517.314845286 737.162105995 586.628394678 676.091943458 586.628394678 593.840284941 c 0
 586.628394678 583.951085444 585.626433056 573.755696952 583.533936217 563.293212757 c 0
 579.241006688 541.828565113 570.924008074 521.660525453 559.391547926 503.090513818 c 2
 757.956006691 726.825115242 l 2
 775.586327176 747.167792726 803.167424354 760 833 760 c 0
 838.975374844 760 844.803098651 759.455124906 850.417829267 758.388695508 c 0
 881.548200189 752.475973243 908.714494068 728.061709649 908.714494068 695.271312831 c 0
 908.714494068 691.445430258 908.344665614 687.50551916 907.568154728 683.467662552 c 0
 907.488984988 683.055979908 907.358755203 682.480485797 907.283420003 682.179144999 c 0
 904.351135245 670.450005965 898.826801294 659.419757014 890.087521971 649.223931137 c 2
 570.132476444 288.711203782 l 1
 624.197093974 333.37582877 699.8286676 360 774 360 c 0
 793.647964875 360 812.605948852 358.134243961 830.598132316 354.555314399 c 0
 918.11096623 337.147629059 986.648037862 276.06875907 986.648037862 194.03248734 c 0
 986.648037862 184.080941828 985.639494021 173.82100178 983.533936217 163.293212757 c 0
 961.36177224 52.4323928746 832.657045678 -24 707 -24 c 0
 687.352013202 -24 668.37449828 -22.134276077 650.349269854 -18.5574901537 c 0
 562.685154714 -1.16210599549 493.371605322 59.9080565417 493.371605322 142.159715059 c 0
 493.371605322 152.048914556 494.373566944 162.244303048 496.466063783 172.706787243 c 0
 500.758993312 194.171434887 509.075991926 214.339474547 520.608452074 232.909486182 c 2
 322.043993309 9.17488475764 l 2
 304.413672824 -11.1677927255 276.832575646 -24 247 -24 c 0
247 24 m 0
 263.167424354 24 277.586327176 31.1677927255 285.956006691 40.8251152424 c 2
 853.912478029 680.776068863 l 2
 856.997462698 684.375217643 859.193919983 688.478550877 860.53182472 693.113190109 c 0
 861.370538051 698.769608532 857.929628694 708.894856138 839.637826611 711.536033228 c 0
 837.567635155 711.834950864 835.350892989 712 833 712 c 0
 816.832575646 712 802.413672824 704.832207274 794.043993309 695.174884758 c 2
 226.087521971 55.2239311366 l 2
 223.002537302 51.624782357 220.806080017 47.5214491231 219.46817528 42.8868098909 c 0
 218.629461949 37.2303914681 222.070371306 27.1051438619 240.362173389 24.463966772 c 0
 242.432364845 24.1650491355 244.649107011 24 247 24 c 0
536.466063783 572.706787243 m 0
 537.862762284 579.690279748 538.546544143 586.572450558 538.546544143 593.312774035 c 0
 538.546544143 647.696549109 494.032731071 692.846142921 420.308142018 707.475476103 c 0
 405.468638166 710.420111657 389.607085666 712 373 712 c 0
 262.657045678 712 159.36177224 642.432392875 143.533936217 563.293212757 c 0
 142.118232881 556.21469608 141.424977164 549.24347106 141.424977164 542.420849225 c 0
 141.424977164 488.041724709 185.465785632 443.102990226 258.766358575 428.522348142 c 0
 273.559009133 425.579856227 289.392892411 424 306 424 c 0
 416.423520914 424 520.661332671 493.683131681 536.466063783 572.706787243 c 0
416.418314103 572.461400035 m 0
 416.75171167 574.223644314 416.904166255 575.898323794 416.906529368 577.556115728 c 0
 416.906529368 592.548227225 400.569368586 616 354 616 c 0
 302.630190247 616 267.543461952 584.479416256 263.581685897 563.538599965 c 0
 263.234585335 561.703925567 263.071781693 559.984718157 263.071781693 558.241499823 c 0
 263.071781693 543.018330723 278.732978284 520 325 520 c 0
 376.551236882 520 412.5057931 551.780931875 416.418314103 572.461400035 c 0
463.581685897 563.538599965 m 0
 453.4942069 510.219068125 391.448763118 472 325 472 c 0
 263.749433686 472 215.071513081 507.096178292 215.071513081 558.166948494 c 0
 215.071513081 563.027951451 215.517519775 567.700058587 216.418314103 572.461400035 c 0
 226.456538048 625.520583744 287.369809753 664 354 664 c 0
 415.187221835 664 464.906576089 629.078072993 464.906576089 577.588776003 c 0
 464.899842408 572.868874559 464.465908734 568.21234925 463.581685897 563.538599965 c 0
936.466063783 172.706787243 m 0
 937.881767119 179.78530392 938.575022836 186.75652894 938.575022836 193.579150775 c 0
 938.575022836 247.958275291 894.534214368 292.897009774 821.233641425 307.477651858 c 0
 806.440990867 310.420143773 790.607107589 312 774 312 c 0
 663.576479086 312 559.338667329 242.316868319 543.533936217 163.293212757 c 0
 542.137237716 156.309720252 541.453455857 149.427549442 541.453455857 142.687225965 c 0
 541.453455857 88.3034508908 585.967268929 43.153857079 659.691857982 28.524523897 c 0
 674.531361834 25.5798883433 690.392914334 24 707 24 c 0
 817.342954322 24 920.63822776 93.5676071254 936.466063783 172.706787243 c 0
816.418314103 172.461400035 m 0
 816.765766712 174.297935254 816.921990919 176.013890162 816.928218307 177.758500177 c 0
 816.928218307 192.981669277 801.267021716 216 755 216 c 0
 703.448763118 216 667.4942069 184.219068125 663.581685897 163.538599965 c 0
 663.24828833 161.776355686 663.095833745 160.101676206 663.093470632 158.443884272 c 0
 663.093470632 143.451772775 679.430631414 120 726 120 c 0
 777.369809753 120 812.456538048 151.520583744 816.418314103 172.461400035 c 0
863.581685897 163.538599965 m 0
 853.543461952 110.479416256 792.630190247 72 726 72 c 0
 664.812778165 72 615.093423911 106.921927007 615.093423911 158.411223997 c 0
 615.100157592 163.131125441 615.534091266 167.78765075 616.418314103 172.461400035 c 0
 626.5057931 225.780931875 688.551236882 264 755 264 c 0
 816.250566314 264 864.928486919 228.903821708 864.928486919 177.833051506 c 0
 864.928486919 172.972048549 864.482480225 168.299941413 863.581685897 163.538599965 c 0
EndSplineSet
EndChar

StartChar: ampersand
Encoding: 38 38 6
Width: 980
Flags: HW
LayerCount: 2
Back
SplineSet
781.34765625 48 m 0
 829.086914062 288 654.150390625 414 384.150390625 414 c 0
 254.150390625 414 184.095703125 464 201.599609375 552 c 0
 214.330078125 616 300.243164062 696 490.243164062 696 c 0
 670.243164062 696 740.921875 624 726.599609375 552 c 0
 712.278320312 480 625.65625 414.848632812 492.708007812 406.75 c 1024
835.795898438 372 m 0
 835.795898438 372 725.452148438 320 649.991210938 192 c 0
 574.530273438 64 446.221679688 40 329.756835938 40 c 0
 159.756835938 40 87.2607421875 128 106.356445312 224 c 0
 130.2265625 344 285.119140625 409.096679688 384.150390625 414 c 1024
EndSplineSet
Fore
SplineSet
395 486 m 2
 432.691741173 486 470.561435094 483.846887624 504.594853604 479.152296149 c 1
 547.362450761 483.318983777 576.865513133 493.951661016 598.14876561 505.870282403 c 0
 627.424344911 522.72591897 640.307161006 540.912273356 643.466063783 556.706787243 c 0
 644.952240303 564.137669843 643.363379189 572.58784234 635.438641466 582.785431445 c 0
 628.49471737 590.934225649 616.802676178 599.523202485 595.023114949 607.363844528 c 0
 569.070770491 616.312928824 531.493926459 624 481 624 c 0
 408.964363492 624 360.528353839 610.431361189 332.733126292 596.533747416 c 0
 297.974484965 579.154426752 287.838108175 558.814072551 285.562289328 547.434978312 c 0
 282.996075145 533.748502673 283.983896346 525.162236821 285.283440581 521.913376232 c 0
 285.51600438 521.331966735 285.801572244 520.50371326 285.938696209 520.058060372 c 0
 287.67508249 514.414804959 290.405837851 510.410119222 302.128988538 503.711175972 c 0
 317.064672245 494.749765748 346.687444391 486 393 486 c 2
 394 486 l 1
 395 486 l 2
395 438 m 2
 394 438 l 1
 393 438 l 2
 341.312555609 438 302.935327755 447.250234252 277.871011462 462.288824028 c 0
 261.86394445 471.435719463 247.153607232 484.420425982 240.343489917 505.040479637 c 0
 237.278599516 513.225616968 235.977966442 522.394560064 235.977966442 531.977365283 c 0
 235.977966442 539.994815117 236.88838683 548.301961194 238.437710672 556.565021688 c 0
 244.161891825 585.185927449 266.025515035 616.845573248 311.266873708 639.466252584 c 0
 347.471646161 657.568638811 403.035636508 672 481 672 c 0
 536.506073541 672 578.929229509 663.687071176 610.976885051 652.636155472 c 0
 639.094996544 642.513635335 658.702558044 629.846128792 672.590939605 613.180070918 c 0
 685.201568549 597.416784738 691.940629206 579.519617322 691.940629206 561.481192694 c 0
 691.940629206 556.749597639 691.476950351 552.008283427 690.533936217 547.293212757 c 0
 683.692838994 513.087726644 658.575655089 485.27408103 621.85123439 464.129717597 c 0
 593.383304352 448.187676776 555.214837157 435.362897741 506.079110793 431.090225883 c 0
 504.68419214 430.968928609 502.363641801 430.990104388 500.60588745 431.241212152 c 0
 467.00356388 436.041544091 432.161700548 438 395 438 c 2
618.605654833 282.765690417 m 1
 563.536290905 319.909375703 481.287846664 341.839509544 377.936089358 341.999449331 c 0
 353.937362984 339.958953769 321.061293606 332.500987597 291.560950154 319.985690375 c 0
 266.281119715 308.75021018 243.121492132 295.520645206 226.099750929 280.201078123 c 0
 206.955750802 262.797441644 194.355281271 243.399938027 189.533936217 219.293212757 c 0
 188.259150823 212.919285789 187.613285952 206.793863536 187.613285952 200.914233014 c 0
 187.613285952 177.557676367 197.80528153 158.079807599 219.251460311 142.310558495 c 0
 241.072429191 126.146877843 278.62364298 112 339 112 c 0
 384.751666994 112 428.185451418 116.026705087 463.532940826 127.809201557 c 0
 514.348847837 144.142885953 547.845876754 172.390743081 575.420169783 218.34789813 c 0
 589.094691588 241.138767805 604.071115276 263.794534288 618.605654833 282.765690417 c 1
668.364425592 305.43731071 m 0
 673.403845638 301.237794006 676.706347284 293.97988373 676.706347284 286.510352332 c 0
 676.706347284 281.188343557 675.029832062 275.758905301 671.110532532 271.251710842 c 0
 652.489653905 249.837700421 634.134851762 222.910471111 616.579830217 193.65210187 c 0
 584.154123246 139.609256919 539.651152163 101.857114047 478.467059174 82.1907984434 c 0
 435.814548582 67.9732949126 387.248333006 64 339 64 c 0
 271.360724698 64 222.963503712 79.8265051916 190.714538785 103.71462736 c 0
 157.177012609 128.374573077 139.809226445 163.868232103 139.809226445 202.344470716 c 0
 139.809226445 211.010508057 140.690276042 219.827848536 142.466063783 228.706787243 c 0
 149.644718729 264.600061973 169.044249198 293.202558356 193.900249071 315.798921877 c 0
 216.878507868 336.479354794 243.718880285 351.24978982 272.439049846 364.014309625 c 0
 308.578648549 379.34626059 346.03464441 387.688950758 375.159284027 389.929307652 c 0
 375.593864535 389.962736922 376.413989907 390 377 390 c 0
 489.304044551 390 580.856519637 366.699573926 646.746630738 321.674664674 c 0
 654.226674957 316.331775946 661.245368195 311.369858541 668.364425592 305.43731071 c 0
810.518660713 547.214711353 m 0
 800.097634301 494.162213257 764.708110254 446.724196763 715.504080653 410.136781392 c 1
 722.562875226 406.037532883 727.691016471 402.837157935 733.455434626 398.874120453 c 0
 734.781764051 397.989900836 736.892165252 396.497220857 738.015373484 395.692719093 c 0
 773.946357336 420.944076591 795.369396174 431.017513817 800.664260673 433.664946066 c 0
 814.710588654 440.049640603 828.68845993 444 845 444 c 0
 850.975374844 444 856.803098651 443.455124906 862.417829267 442.388695508 c 0
 893.571847466 436.471481816 920.732124578 411.902720613 920.732124578 379.28881988 c 0
 920.732124578 375.511046865 920.367706069 371.625329527 919.602864248 367.648152057 c 0
 914.847874717 340.703211383 893.574437575 322.019928755 873.529311046 311.449114664 c 0
 866.464315429 307.188544789 864.559915139 306.908880957 854.618638505 300.582614008 c 0
 849.115417247 297.280681253 841.594077737 292.249091846 835.437125794 287.800134856 c 1
 860.476846282 241.250235983 873.304045063 188.131967249 873.304045063 129.834444953 c 0
 873.304045063 102.150379721 870.411425238 73.2983578845 864.560361278 43.4271366133 c 0
 856.69657027 2.53542337253 813.870599101 -24 772 -24 c 0
 766.024625156 -24 760.196901349 -23.4551249063 754.582170733 -22.3886955082 c 0
 723.473376097 -16.4800713177 696.301574149 7.79312932998 696.301574149 40.7441687107 c 0
 696.301574149 44.6141971947 696.676381869 48.603927749 697.463639442 52.6976671315 c 0
 702.318870532 76.1646173977 704.445181748 97.9927471588 704.445181748 117.49073118 c 0
 704.445181748 123.179617446 704.264172022 128.670141853 703.917120025 133.945133425 c 1
 684.353099174 107.049883111 664.537909976 85.8739262761 641.411944118 66.6022880617 c 0
 600.817405471 32.4174134115 554.867044339 8.95392741234 508.261899178 -5.87498241147 c 0
 442.018267183 -26.9047068545 377.410406655 -32 320 -32 c 0
 229.255037931 -32 154.169904432 -10.2640821286 100.833544042 28.6270139885 c 0
 45.5661584061 69.1564301218 18.4622180608 126.865248896 18.4622180608 187.778258888 c 0
 18.4622180608 201.277589337 19.793398014 214.934290081 22.4442257914 228.596248626 c 0
 38.0752513332 308.705254528 95.7711761526 369.528330694 158.432815099 410.230989354 c 1
 130.654777416 438.703991063 114.676423927 475.311909886 114.676423927 518.845912324 c 0
 114.676423927 530.90588603 115.902641547 543.4973842 118.443913256 556.594707623 c 0
 130.267233828 616.893642541 178.2291659 676.914194566 258.209783015 717.437707237 c 0
 322.261208603 749.463420032 402.93261781 768 500 768 c 0
 627.128451723 768 725.262172857 736.974591016 777.412999971 674.393598479 c 0
 800.977605858 646.297337614 813.687333801 612.45541891 813.687333801 577.453953789 c 0
 813.687333801 567.433374228 812.645617433 557.317755773 810.518660713 547.214711353 c 0
763.481339287 556.785288647 m 0
 764.956212335 563.790935625 765.692622424 570.780564632 765.692622424 577.703637217 c 0
 765.692622424 601.066966462 757.305916431 623.672308888 740.611402965 643.577305713 c 0
 702.715036389 689.052945604 620.880508126 720 500 720 c 0
 409.06738219 720 335.738791397 702.536579968 279.790216985 674.562292763 c 0
 209.76599807 639.083355179 173.737051727 589.128213788 165.551529992 547.382052943 c 0
 163.514363275 536.882809091 162.5409958 527.056509282 162.5409958 517.853117771 c 0
 162.5409958 476.490864137 182.201263285 447.710234681 213.312804709 426.969207064 c 0
 214.829435164 425.958120094 218.396508478 422.743601503 220.141130103 420.051240484 c 0
 222.703977519 416.096164849 223.914918096 411.624238718 223.914918096 407.188207412 c 0
 223.914918096 398.638920131 219.417187395 390.222955044 211.430795565 385.896992803 c 0
 142.746040046 348.69275023 83.5448212056 291.097617233 69.5557742086 219.403751374 c 0
 67.4134839943 208.362717192 66.3284899811 197.458479478 66.3284899811 186.773830362 c 0
 66.3284899811 140.657422445 86.5408840513 98.6317387428 129.192727927 67.3537199005 c 0
 171.802200873 36.2843125439 236.757126161 16 320 16 c 0
 374.589593345 16 433.981732817 20.9047068545 493.738100822 39.8749824115 c 0
 535.132955661 53.0460725877 575.182594529 73.5825865885 610.588055882 103.397711938 c 0
 638.407887317 126.580904801 663.639608117 156.441993307 683.269306378 190.092904613 c 0
 683.440042521 190.385595143 683.777304257 190.93257169 684.030792936 191.312804709 c 2
 696.030792936 209.312804709 l 2
 698.141599788 212.479014988 702.221649612 216.192495656 706.486505329 218.033915203 c 0
 709.505964185 219.33761477 712.663932046 219.950197235 715.783159527 219.950197235 c 0
 725.747872869 219.950197235 735.317220135 213.698469109 738.712396546 203.755452479 c 0
 747.684569241 177.479803871 752.445158764 148.443073812 752.445158764 116.861132025 c 0
 752.445158764 93.6838792519 749.881223866 69.1358388606 744.536360558 43.3023328685 c 0
 743.395079075 37.3676691606 746.639453691 27.9780275116 763.538887147 24.7682470463 c 0
 766.114455991 24.2790584243 768.943795896 24 772 24 c 0
 796.127053096 24 815.3100046 41.4987659485 817.431845272 52.5323374476 c 0
 822.786407544 79.8687869401 825.374112086 105.769156913 825.374112086 130.246648487 c 0
 825.374112086 188.549132056 810.693134385 238.779115188 783.752124294 281.114988187 c 0
 781.405204545 284.803004937 780.197144463 289.275417731 780.197144463 293.822606946 c 0
 780.197144463 300.810565218 783.050153108 307.975118826 789.007318859 312.740851427 c 0
 804.565310142 325.187244454 818.826540823 335.084493589 829.381361495 341.417385992 c 0
 837.468324394 346.56363511 844.846310202 350.388566974 847.340740265 351.737230118 c 0
 848.262442183 352.354553068 849.253357584 352.959494522 850.266873708 353.466252584 c 0
 864.521945428 360.593788444 871.228129833 369.727481065 872.397135752 376.351847943 c 0
 873.660915227 382.923501211 870.360313433 392.022016719 853.461112853 395.231752954 c 0
 850.885544009 395.720941576 848.056204104 396 845 396 c 0
 837.109910942 396 830.621658634 394.458172332 821.314455197 390.325320939 c 0
 817.709985765 388.535186834 790.36499523 375.273746422 752.4 346.8 c 0
 745.503257137 341.627442853 733.531712509 340.134448123 724.687195291 346.030792936 c 0
 717.108194188 351.083460338 711.390051126 355.895555712 706.544565374 359.125879547 c 0
 692.125863838 369.038736853 675.348068355 377.493150092 657.266873708 386.533747416 c 0
 654.376843167 387.978762686 650.37970795 391.18586783 648.069813667 394.628849237 c 0
 645.367264492 398.657097037 644.088026054 403.255703348 644.088026054 407.819555435 c 0
 644.088026054 416.235135911 648.437698302 424.532544921 656.233730249 428.917812891 c 0
 716.127576142 462.608101206 754.233900257 509.707417219 763.481339287 556.785288647 c 0
EndSplineSet
EndChar

StartChar: quotesingle
Encoding: 39 39 7
Width: 280
Flags: HW
LayerCount: 2
Back
SplineSet
203.65234375 688 m 1
 162.278320312 480 l 1025
EndSplineSet
Fore
SplineSet
120.452820397 692.641408095 m 2
 128.292309136 733.40674954 171.133371924 760 213 760 c 0
 218.975374844 760 224.803098651 759.455124906 230.417829267 758.388695508 c 0
 261.5339569 752.478678531 288.703884895 728.157525385 288.703884895 695.261040188 c 0
 288.703884895 691.406042011 288.330774074 687.433283154 287.547179603 683.358591905 c 2
 245.547179603 475.358591905 l 2
 237.707690864 434.59325046 194.866628076 408 153 408 c 0
 147.024625156 408 141.196901349 408.544875094 135.582170733 409.611304492 c 0
 104.4660431 415.521321469 77.2961151052 439.842474615 77.2961151052 472.738959812 c 0
 77.2961151052 476.593957989 77.669225926 480.566716846 78.452820397 484.641408095 c 2
 120.452820397 692.641408095 l 2
167.547179603 683.358591905 m 2
 125.547179603 475.358591905 l 2
 124.385969733 469.320300579 127.639491576 459.978020316 144.538887147 456.768247046 c 0
 147.114455991 456.279058424 149.943795896 456 153 456 c 0
 177.133371924 456 196.292309136 473.40674954 198.452820397 484.641408095 c 2
 240.452820397 692.641408095 l 2
 241.614030267 698.679699421 238.360508424 708.021979684 221.461112853 711.231752954 c 0
 218.885544009 711.720941576 216.056204104 712 213 712 c 0
 188.866628076 712 169.707690864 694.59325046 167.547179603 683.358591905 c 2
EndSplineSet
EndChar

StartChar: parenleft
Encoding: 40 40 8
Width: 430
Flags: HW
LayerCount: 2
Back
SplineSet
369.565429688 768 m 0
 369.565429688 768 186.147460938 600 140 368 c 0
 93.8525390625 136 210.434570312 -32 210.434570312 -32 c 1024
EndSplineSet
Fore
SplineSet
379 840 m 0
 384.975374844 840 390.803098651 839.455124906 396.417829267 838.388695508 c 0
 427.5367986 832.478138795 454.706000939 808.138405847 454.706000939 775.263073347 c 0
 454.706000939 771.413892356 454.333546423 767.447699368 453.551368523 763.380374288 c 0
 450.313245236 747.189757852 441.396550913 733.130459713 428.910284199 722.031555966 c 0
 428.762835468 721.901500771 380.76544933 679.420252984 326.884898551 599.561579507 c 0
 284.048598862 536.28068224 241.691898545 455.038458407 223.54332138 363.34038431 c 0
 216.855135104 329.547443123 214.058105272 297.327860744 214.058105272 266.991040205 c 0
 214.058105272 215.107466891 222.239300036 168.730892871 233.128417566 129.409079566 c 0
 254.695524707 51.5799537974 284.416996928 10.1065819365 284.424106867 10.0966384441 c 0
 284.854423609 9.49817462774 285.1252851 9.08265327339 285.351959296 8.71997456008 c 0
 291.450392216 -1.03751811151 294.76616278 -12.5496945818 294.76616278 -24.337235637 c 0
 294.76616278 -28.4188219201 294.368608898 -32.5334238349 293.551368523 -36.6196257122 c 0
 285.704156922 -77.4251260387 242.867890002 -104 201 -104 c 0
 174.98280207 -104 149.848319723 -92.996991356 136.764085142 -74.3858606172 c 0
 129.669246107 -65.238494359 94.2230499358 -9.64199344677 67.8875280971 82.5323329887 c 0
 54.7700209838 130.411233953 44.5368096793 187.46750993 44.5368096793 252.090460936 c 0
 44.5368096793 289.811047363 48.0233544103 330.109666255 56.4579417958 372.665993518 c 0
 79.3353491902 488.092912644 131.970759111 585.73378491 182.119172963 660.444687179 c 0
 244.618770268 752.177967094 302.070583301 807.473143376 310.505383039 814.350387517 c 0
 328.604698202 830.57345834 353.19586556 840 379 840 c 0
379 792 m 0
 365.166752479 792 350.407187493 785.867915816 342.278722466 778.364717329 c 0
 342.001424589 778.108750058 341.422512395 777.596098435 340.734775482 777.055268685 c 0
 334.473499352 771.513365646 278.748741227 717.022735262 221.880827037 633.555312821 c 0
 174.029240889 562.26621509 124.66465081 469.907087356 103.542058204 363.334006482 c 0
 95.7562433587 324.051031579 92.535349858 286.859135561 92.535349858 252.039169068 c 0
 92.535349858 192.426768474 101.975804062 139.766504629 114.112471903 95.4676670113 c 0
 137.071573456 15.1108115751 169.649278499 -37.7052690808 174.630859733 -44.870211512 c 0
 174.986470116 -45.3133462469 175.56606028 -46.0824751142 175.969207064 -46.6871952906 c 0
 178.07499866 -49.8458826838 186.830292434 -56 201 -56 c 0
 225.132109998 -56 244.295843078 -38.5748739613 246.448631477 -27.3803742878 c 0
 247.22859652 -23.4805490717 246.619535085 -20.2277342033 244.916466367 -17.1674811285 c 0
 240.053135142 -10.1859702895 209.26668527 35.7738102006 186.871582434 116.590920434 c 0
 175.037779586 159.324097385 166.073670006 210.14204802 166.073670006 267.071758561 c 0
 166.073670006 300.314706007 169.130197112 335.641603861 176.45667862 372.65961569 c 0
 196.309940445 472.970833335 241.939175627 559.701257347 287.125372669 626.453593886 c 0
 344.29854245 711.192399097 395.226771671 756.325262591 397.26114117 758.1196512 c 0
 402.379270347 762.82778807 405.68735294 768.813233024 406.448631477 772.619625712 c 0
 407.617557224 778.698039597 404.360493755 788.02198247 387.461112853 791.231752954 c 0
 384.885544009 791.720941576 382.056204104 792 379 792 c 0
EndSplineSet
EndChar

StartChar: parenright
Encoding: 41 41 9
Width: 430
Flags: HW
LayerCount: 2
Back
SplineSet
179.565429688 768 m 0
 179.565429688 768 296.147460938 600 250 368 c 0
 203.852539062 136 20.4345703125 -32 20.4345703125 -32 c 1024
EndSplineSet
Fore
SplineSet
96.4486314772 772.619625712 m 0
 104.295843078 813.425126039 147.132109998 840 189 840 c 0
 215.01719793 840 240.151680277 828.996991356 253.235914858 810.385860617 c 0
 260.330753893 801.238494359 295.776950064 745.641993447 322.112471903 653.467667011 c 0
 335.229979016 605.588766047 345.463190321 548.53249007 345.463190321 483.909539064 c 0
 345.463190321 446.188952637 341.97664559 405.890333745 333.542058204 363.334006482 c 0
 310.66465081 247.907087356 258.029240889 150.26621509 207.880827037 75.5553128205 c 0
 145.381229732 -16.1779670942 87.9294166985 -71.473143376 79.4946169607 -78.3503875173 c 0
 61.3953017981 -94.5734583403 36.8041344403 -104 11 -104 c 0
 5.02462515624 -104 -0.803098650651 -103.455124906 -6.41782926677 -102.388695508 c 0
 -37.5367986001 -96.4781387946 -64.7060009395 -72.1384058466 -64.7060009395 -39.2630733474 c 0
 -64.7060009395 -35.413892356 -64.3335464229 -31.4476993683 -63.5513685228 -27.3803742878 c 0
 -60.3132452356 -11.1897578515 -51.3965509132 2.86954028727 -38.9102841987 13.9684440335 c 0
 -38.7628354678 14.0984992291 9.23455066961 56.5797470164 63.115101449 136.438420493 c 0
 105.951401138 199.71931776 148.308101455 280.961541593 166.45667862 372.65961569 c 0
 173.144864896 406.452556877 175.941894728 438.672139256 175.941894728 469.008959795 c 0
 175.941894728 520.892533109 167.760699964 567.269107129 156.871582434 606.590920434 c 0
 135.304475293 684.420046203 105.583003072 725.893418063 105.575893133 725.903361556 c 0
 105.145576391 726.501825372 104.8747149 726.917346727 104.648040704 727.28002544 c 0
 98.546161452 737.043032243 95.2169467321 748.436153857 95.2169467321 760.225771934 c 0
 95.2169467321 764.326392429 95.6197022409 768.474979531 96.4486314772 772.619625712 c 0
143.551368523 763.380374288 m 0
 142.800471963 759.625891487 143.39457583 756.202378227 145.083533633 753.167481129 c 0
 149.946864858 746.18597029 180.73331473 700.226189799 203.128417566 619.409079566 c 0
 214.962220414 576.675902615 223.926329994 525.85795198 223.926329994 468.928241439 c 0
 223.926329994 435.685293993 220.869802888 400.358396139 213.54332138 363.34038431 c 0
 193.690059555 263.029166665 148.060824373 176.298742653 102.874627331 109.546406114 c 0
 45.7014575503 24.8076009032 -5.22677167057 -20.3252625913 -7.2611411698 -22.1196511995 c 0
 -12.3792703475 -26.8277880703 -15.6873529395 -32.8132330238 -16.4486314772 -36.6196257122 c 0
 -17.6175572242 -42.6980395965 -14.3604937555 -52.0219824701 2.53888714692 -55.2317529537 c 0
 5.11445599137 -55.7209415757 7.94379589639 -56 11 -56 c 0
 24.8332475207 -56 39.5928125072 -49.8679158156 47.7212775344 -42.3647173289 c 0
 47.9985754114 -42.1087500579 48.5774876045 -41.5960984346 49.2652245177 -41.0552686848 c 0
 55.5265006476 -35.513365646 111.251258773 18.9772647382 168.119172963 102.444687179 c 0
 215.970759111 173.73378491 265.33534919 266.092912644 286.457941796 372.665993518 c 0
 294.243756641 411.948968421 297.464650142 449.140864439 297.464650142 483.960830932 c 0
 297.464650142 543.573231526 288.024195938 596.233495371 275.887528097 640.532332989 c 0
 252.928426544 720.889188425 220.350721501 773.705269081 215.369140267 780.870211512 c 0
 215.013529884 781.313346247 214.43393972 782.082475114 214.030792936 782.687195291 c 0
 211.92500134 785.845882684 203.169707566 792 189 792 c 0
 164.867890002 792 145.704156922 774.574873961 143.551368523 763.380374288 c 0
EndSplineSet
EndChar

StartChar: asterisk
Encoding: 42 42 10
Width: 640
Flags: HW
LayerCount: 2
Back
SplineSet
472.997070312 684.708007812 m 1
 243.384765625 435.291992188 l 1025
292.997070312 684.708007812 m 1
 423.384765625 435.291992188 l 1025
178.19140625 560 m 1
 538.19140625 560 l 1025
EndSplineSet
Fore
SplineSet
483 757 m 0
 488.975289557 757 494.796804737 756.455067326 500.401154763 755.382140008 c 0
 531.684610133 749.393064791 557.691943025 724.972652102 557.691943025 692.360356706 c 0
 557.691943025 688.398251688 557.308072252 684.31523368 556.503155062 680.129664291 c 0
 553.115408048 664.884802727 546.081580742 654.550333037 538.008888764 645.132192395 c 2
 526.115582444 632 l 1
 548 632 l 2
 553.975289557 632 559.796804737 631.455067326 565.401154763 630.382140008 c 0
 596.730238058 624.384329532 622.724050384 599.674563299 622.724050384 567.385642391 c 0
 622.724050384 563.5154784 622.350609681 559.536428309 621.568154728 555.467662552 c 0
 613.6899954 514.501234052 570.872946904 488 529 488 c 2
 492.161248045 488 l 1
 500.893166721 470.859567043 l 2
 506.097800488 461.059352396 508.119046732 452.303744218 508.119046732 443.840781248 c 0
 508.119046732 439.224011159 507.517525668 434.694332021 506.503155062 430.129664291 c 0
 498.744831747 389.786383053 455.853365531 363 414 363 c 0
 385.421010245 363 357.746987292 375.840393956 345.653879301 400.026609939 c 2
 333.786185959 422.490458049 l 1
 308.688659209 394.778605595 l 2
 290.512429122 375.204203963 262.987082998 363 234 363 c 0
 228.024625156 363 222.196901349 363.544875094 216.582170733 364.611304492 c 0
 185.495824166 370.515665026 158.318272991 394.642005204 158.318272991 427.759776808 c 0
 158.318272991 431.675987525 158.69830503 435.717928187 159.496844938 439.870335709 c 0
 162.510428336 453.431460998 168.819170039 465.355379561 178.924637788 475.884361557 c 2
 190.125888424 488 l 1
 169 488 l 2
 163.024625156 488 157.196901349 488.544875094 151.582170733 489.611304492 c 0
 120.451799811 495.524026757 93.2855059322 519.938290351 93.2855059322 552.728687169 c 0
 93.2855059322 556.554569742 93.6553343863 560.49448084 94.4318452725 564.532337448 c 0
 102.393462832 605.932748755 146.432104934 632 188 632 c 2
 224.177371344 632 l 1
 214.964995733 649.437710977 l 2
 210.324041464 657.559380948 208.133738343 667.491604616 208.133738343 677.078429475 c 0
 208.133738343 681.485177721 208.596535962 685.818945317 209.496844938 689.870335709 c 0
 217.255168253 730.213616947 260.146634469 757 302 757 c 0
 330.904347543 757 357.605639178 744.063677929 370.837835411 720.907334521 c 0
 371.019255774 720.589848884 371.262085497 720.135393148 371.384947925 719.894218754 c 2
 382.753949232 697.577290262 l 1
 408.395192451 725.311696193 l 2
 426.40582341 744.707760302 454.046626552 757 483 757 c 0
483 709 m 0
 467.94623217 709 451.611494572 701.310889832 443.587043799 692.669173615 c 2
 394.622529639 639.707472598 l 2
 393.318909481 638.297434468 391.39912735 636.675740895 389.538437923 635.535700001 c 0
 385.705433908 633.187225687 381.433413695 632.080190228 377.198801479 632.080190228 c 0
 368.437697132 632.080190228 359.836716209 636.818810909 355.615052075 645.105781246 c 2
 328.939754919 697.468401591 l 2
 326.052193535 702.037950261 316.878991114 709 302 709 c 0
 277.853365531 709 258.744831747 691.786383053 256.503155062 680.129664291 c 0
 255.362074784 674.994803042 255.809252654 674.707354344 257.035004267 672.562289023 c 2
 285.220641218 619.210904794 l 2
 286.324182874 617.122058088 287.998331894 612.071057544 287.998331894 608.044917584 c 0
 287.998331894 595.067208887 277.177423954 584 264 584 c 2
 188 584 l 2
 163.567895066 584 143.606537168 566.067251245 141.568154728 555.467662552 c 0
 140.368309247 549.228466054 143.639565025 539.978006366 160.538887147 536.768247046 c 0
 163.114455991 536.279058424 165.943795896 536 169 536 c 2
 245 536 l 2
 249.203397527 536 255.567951494 534.230339809 259.859693241 530.846472263 c 0
 265.818879952 526.147890733 268.891812367 519.050942729 268.891812367 511.929884771 c 0
 268.891812367 506.10551029 266.836099055 500.265006865 262.622529639 495.707472598 c 2
 213.303191045 442.362065548 l 2
 209.008759042 438.067633545 207.838234793 435.685317327 206.514473617 430.172926947 c 0
 205.533892023 424.414180028 208.747915517 414.426922057 226.745523957 411.55762323 c 0
 228.990368858 411.199735077 231.414009004 411 234 411 c 0
 249.012917002 411 265.487570878 418.795796037 273.311340791 427.221394405 c 2
 321.211095035 480.110706383 l 2
 322.332343729 481.348751815 324.35835768 483.135408465 326.158743249 484.275653505 c 0
 330.064519134 486.749313401 334.454129748 487.916897998 338.807179397 487.916897998 c 0
 347.443560737 487.916897998 355.93603106 483.321059736 360.220641218 475.210904794 c 2
 388.346120699 421.973390061 l 2
 390.253012708 418.159606044 398.578989755 411 414 411 c 0
 438.146634469 411 457.255168253 428.213616947 459.496844938 439.870335709 c 0
 460.611360164 444.885654227 459.99363947 445.637584438 459.162164589 447.092665479 c 0
 459.027876481 447.327669668 458.781036589 447.779959794 458.615052075 448.105781246 c 2
 431.615052075 501.105781246 l 2
 430.084810432 504.109588916 429.001668106 507.832898665 429.001668106 511.955082416 c 0
 429.001668106 524.932791113 439.822576046 536 453 536 c 2
 529 536 l 2
 553.127053096 536 572.3100046 553.498765948 574.431845272 564.532337448 c 0
 575.752918735 571.401919455 572.545558629 580.142659262 556.375682677 583.238308454 c 0
 553.854386399 583.720999156 551.056289391 584 548 584 c 2
 472 584 l 2
 467.101695949 584 461.538560668 585.756738835 457.334620636 589.001930411 c 0
 451.256045233 593.694228955 448.107422446 600.872508149 448.107422446 608.078890873 c 0
 448.107422446 613.819055209 450.105142547 619.577050511 454.211095035 624.110706383 c 2
 502.000948757 676.878669867 l 2
 505.829292577 681.450872062 508.591692753 686.244104852 509.501593128 689.903388992 c 0
 510.504714533 696.596551363 507.19580693 705.980660159 489.58617725 708.539037303 c 0
 487.549276638 708.834964024 485.350923834 709 483 709 c 0
EndSplineSet
EndChar

StartChar: plus
Encoding: 43 43 11
Width: 800
Flags: HW
LayerCount: 2
Back
SplineSet
670 368 m 1
 130 368 l 1025
442.96484375 584 m 1
 357.03515625 152 l 1025
EndSplineSet
Fore
SplineSet
680 440 m 2
 685.975289557 440 691.796804737 439.455067326 697.401154763 438.382140008 c 0
 728.730238058 432.384329532 754.724050384 407.674563299 754.724050384 375.385642391 c 0
 754.724050384 371.5154784 754.350609681 367.536428309 753.568154728 363.467662552 c 0
 745.606537168 322.067251245 701.567895066 296 660 296 c 2
 469.744342412 296 l 1
 440.559156078 147.420869577 l 2
 432.61412868 106.106727104 388.565176889 80 347 80 c 0
 341.024710443 80 335.203195263 80.5449326744 329.598845237 81.6178599919 c 0
 298.276100572 87.614456966 272.280414335 112.284051116 272.280414335 144.617989727 c 0
 272.280414335 148.500865288 272.655293248 152.494266923 273.440843922 156.579130423 c 2
 300.82708616 296 l 1
 120 296 l 2
 114.024710443 296 108.203195263 296.544932674 102.598845237 297.617859992 c 0
 71.2697619421 303.615670468 45.2759496159 328.325436701 45.2759496159 360.614357609 c 0
 45.2759496159 364.4845216 45.6493903192 368.463571691 46.4318452725 372.532337448 c 0
 54.3934628316 413.932748755 98.4321049345 440 140 440 c 2
 330.255657588 440 l 1
 359.440843922 588.579130423 l 2
 367.38587132 629.893272896 411.434823111 656 453 656 c 0
 458.975289557 656 464.796804737 655.455067326 470.401154763 654.382140008 c 0
 501.723899428 648.385543034 527.719585665 623.715948884 527.719585665 591.382010273 c 0
 527.719585665 587.499134712 527.344706752 583.505733077 526.559156078 579.420869577 c 2
 499.17291384 440 l 1
 680 440 l 2
680 392 m 2
 470 392 l 2
 459.416818383 392 443.088250115 403.511380137 446.450028307 420.625887297 c 2
 479.450028307 588.625887297 l 2
 480.737951408 595.32308742 477.545381515 604.14269317 461.375682677 607.238308454 c 0
 458.854386399 607.720999156 456.056289391 608 453 608 c 0
 428.567895066 608 408.606537168 590.067251245 406.568154728 579.467662552 c 2
 373.549971693 411.374112703 l 2
 371.674902606 401.828306445 362.061850934 392 350 392 c 2
 140 392 l 2
 115.567895066 392 95.6065371684 374.067251245 93.5681547275 363.467662552 c 0
 92.2470812646 356.598080545 95.4544413712 347.857340738 111.624317323 344.761691546 c 0
 114.145613601 344.279000844 116.943710609 344 120 344 c 2
 330 344 l 2
 340.583181617 344 356.911749885 332.488619863 353.549971693 315.374112703 c 2
 320.549971693 147.374112703 l 2
 319.262048592 140.67691258 322.454618485 131.85730683 338.624317323 128.761691546 c 0
 341.145613601 128.279000844 343.943710609 128 347 128 c 0
 371.432104934 128 391.393462832 145.932748755 393.431845272 156.532337448 c 2
 426.450028307 324.625887297 l 2
 428.325097394 334.171693555 437.938149066 344 450 344 c 2
 660 344 l 2
 684.432104934 344 704.393462832 361.932748755 706.431845272 372.532337448 c 0
 707.752918735 379.401919455 704.545558629 388.142659262 688.375682677 391.238308454 c 0
 685.854386399 391.720999156 683.056289391 392 680 392 c 2
EndSplineSet
EndChar

StartChar: comma
Encoding: 44 44 12
Width: 370
Flags: HW
LayerCount: 2
Back
SplineSet
135.895507812 96 m 0
 145.895507812 96 154.3046875 88.0009765625 152.712890625 79.9990234375 c 0
 149.530273438 64 126.34765625 48 106.34765625 48 c 0
 96.3486328125 48 87.939453125 56 89.5302734375 64 c 0
 92.712890625 80 115.895507812 96 135.895507812 96 c 0
 145.895507812 96 164.3046875 88 159.530273438 64 c 0
 151.57421875 24 93.1611328125 -56 93.1611328125 -56 c 1024
EndSplineSet
Fore
SplineSet
196.549710831 69.1109844919 m 0
 197.202668353 72.51712794 197.521472894 75.7611862727 197.521472894 78.8424888913 c 0
 197.521472894 97.6242308839 185.676678296 110.358982473 165.463000933 116.894875304 c 0
 159.520878426 118.36475814 151.360332613 120 145 120 c 0
 123.368959062 120 104.952137818 112.95516452 89.3628326106 103.428366894 c 0
 70.2875231596 92.156593127 56.9014614222 77.4644015897 53.5210628921 59.2102495267 c 0
 51.2542887821 49.0097660318 52.9731791058 45.9239116386 58.4396226886 39.5015701759 c 0
 64.5384103794 33.4095057934 69.5375472501 28.9450079392 76.0580603721 26.9386962093 c 2
 76.0580603721 26.9386962093 79.1594652206 25.7966071025 80.4928180692 25.0692936006 c 0
 88.4441557994 20.7320206159 92.914366513 12.3378068721 92.914366513 3.81316190362 c 0
 92.914366513 -0.646388467044 91.6909973168 -5.14163414438 89.1026543241 -9.11042673313 c 0
 74.0353230595 -32.2136680055 61.9960308179 -50.272557962 61.9709615769 -50.3101725644 c 0
 57.7710110551 -56.6100983472 56.7587878479 -59.3941125497 56.7587878479 -59.3941125497 c 2
 56.7204202521 -59.6626857201 56.6373701367 -60.1724173201 56.5681547275 -60.5323374476 c 0
 55.368309247 -66.7715339465 58.6395650247 -76.0219936344 75.5388871469 -79.2317529537 c 0
 78.1144559914 -79.7209415757 80.9437958964 -80 84 -80 c 0
 101.49791211 -80 117.73141416 -71.1495022971 125.935412009 -60.4211974183 c 0
 125.936733227 -60.4194696707 126.142114177 -60.1516805503 126.398491227 -59.8344253331 c 0
 128.683006282 -56.7063901352 145.957257372 -31.5105995404 162.344998624 -4.77270591863 c 0
 169.78308425 8.243943927 177.538843369 22.7647627295 184.388731646 37.4430947521 c 0
 190.253211778 49.1720550159 193.789216196 57.5868848039 196.549710831 69.1109844919 c 0
243.451439221 58.8895907778 m 0
 239.748202937 42.8422335489 233.800905058 29.0430990724 227.604414155 16.5412146393 c 0
 219.525258606 -0.671439640708 212.395575551 -13.9312892761 203.655001376 -29.2272940814 c 0
 183.80913994 -61.6073837929 167.371088348 -85.5258658382 163.746404822 -89.9967849896 c 0
 145.037211255 -113.765441371 116.247774324 -128 84 -128 c 0
 78.9438857327 -128 73.9935646604 -127.609818179 69.1884792505 -126.843759401 c 0
 36.1984788476 -121.58427341 8.49702572851 -97.1941350657 8.49702572851 -62.5764333198 c 0
 8.49702572851 -58.8327843886 8.82098940403 -54.9695258824 9.49726256142 -50.9979176192 c 0
 12.0443206182 -37.2419976886 18.2602696109 -29.3429806539 22.0290384231 -23.6898274356 c 2
 22.0290384231 -23.6898274356 27.8952434401 -14.8764081569 34.9568656514 -4.15673840358 c 1
 29.1035718289 0.774170430956 27.1297469611 2.92912754192 24.0294372515 6.02943725152 c 0
 23.7460090373 6.31286546579 23.3595426454 6.72417737963 23.1609404901 6.94484644106 c 0
 12.8830224358 18.3647553902 5.01548896295 31.3576695348 5.01548896295 52.0187999757 c 0
 5.01548896295 58.1892375382 5.71720655502 65.0436152826 7.26600392695 72.744291473 c 0
 13.2385745122 102.617908174 40.6149368814 130.376678715 64.6371673894 144.571633106 c 0
 85.0478621819 157.04483548 112.631040938 168 145 168 c 0
 158.206272173 168 169.375258287 165.394819182 177.820855001 163.283420003 c 0
 178.249191181 163.176335958 178.846220213 163.005138105 179.158599835 162.907519473 c 0
 214.36390787 151.905860712 245.484195482 121.456643144 245.484195482 78.3549490996 c 0
 245.484195482 72.1240682434 244.83383549 65.6287725916 243.451439221 58.8895907778 c 0
EndSplineSet
EndChar

StartChar: hyphen
Encoding: 45 45 13
Width: 520
Flags: HW
LayerCount: 2
Back
SplineSet
79.3134765625 264 m 1
 399.313476562 264 l 1025
EndSplineSet
Fore
SplineSet
70 192 m 2
 64.0246251562 192 58.1969013493 192.544875094 52.5821707332 193.611304492 c 0
 21.4517998114 199.524026757 -5.71449406777 223.938290351 -5.71449406777 256.728687169 c 0
 -5.71449406777 260.554569742 -5.3446656137 264.49448084 -4.56815472754 268.532337448 c 0
 3.39346283165 309.932748755 47.4321049345 336 89 336 c 2
 409 336 l 2
 414.975289557 336 420.796804737 335.455067326 426.401154763 334.382140008 c 0
 457.730238058 328.384329532 483.724050384 303.674563299 483.724050384 271.385642391 c 0
 483.724050384 267.5154784 483.350609681 263.536428309 482.568154728 259.467662552 c 0
 474.6899954 218.501234052 431.872946904 192 390 192 c 2
 70 192 l 2
70 240 m 2
 390 240 l 2
 414.127053096 240 433.3100046 257.498765948 435.431845272 268.532337448 c 0
 436.752918735 275.401919455 433.545558629 284.142659262 417.375682677 287.238308454 c 0
 414.854386399 287.720999156 412.056289391 288 409 288 c 2
 89 288 l 2
 64.5678950655 288 44.6065371684 270.067251245 42.5681547275 259.467662552 c 0
 41.368309247 253.228466054 44.6395650247 243.978006366 61.5388871469 240.768247046 c 0
 64.1144559914 240.279058424 66.9437958964 240 70 240 c 2
EndSplineSet
EndChar

StartChar: period
Encoding: 46 46 14
Width: 360
Flags: HW
LayerCount: 2
Back
SplineSet
149.518554688 72 m 0
 141.819335938 59.068359375 122.982421875 48 106.34765625 48 c 0
 96.34765625 48 87.939453125 56 89.5302734375 64 c 0
 90.06640625 66.6923828125 91.16796875 69.3837890625 92.7255859375 72 c 1024
92.7255859375 72 m 0
 100.424804688 84.931640625 119.260742188 96 135.895507812 96 c 0
 145.895507812 96 154.3046875 88 152.712890625 80 c 0
 152.177734375 77.3076171875 151.076171875 74.6162109375 149.518554688 72 c 1024
EndSplineSet
Fore
SplineSet
15.144562222 94.3323415573 m 0
 15.9098360271 96.5982354738 16.3597705662 97.5221456692 17.2297691485 99.024870493 c 0
 31.3983833369 123.497931364 53.5545378324 140.110084646 76.266873708 151.466252584 c 0
 95.0766306238 160.871131042 118.61167435 168 145 168 c 0
 179.863645494 168 203.989853075 153.255768855 218.765749835 137.136608753 c 0
 228.732586175 126.062346153 237.941190869 109.193854599 237.941190869 88.9561652293 c 0
 237.941190869 84.6648226069 237.527135558 80.2219875168 236.618455065 75.6507813584 c 0
 234.761890639 64.716892393 230.954319538 56.5974192531 226.837658797 49.6150167806 c 0
 226.111459793 47.4648191713 225.62477604 46.4511621045 224.770230852 44.975129507 c 0
 210.601616663 20.5020686361 188.445462168 3.88991535381 165.733126292 -7.466252584 c 0
 146.923369376 -16.8711310419 123.38832565 -24 97 -24 c 0
 68.828656949 -24 47.9458697941 -13.636568233 33.6228099125 -3.21979741 c 0
 16.9676494692 9.59186446953 5.22866456296 29.3484726924 5.22866456296 54.4526188373 c 0
 5.22866456296 58.9226133992 5.60084507131 63.562149825 6.38372268041 68.362210315 c 0
 7.7647496307 77.1676838038 10.2039991529 85.3574725502 15.144562222 94.3323415573 c 0
59.9247068961 76.8925950181 m 0
 59.460973261 75.4479774059 58.2064399909 72.5430446807 56.9692070641 70.6871952906 c 0
 55.6045773147 68.6402506665 54.5279154668 65.9897807828 53.6943658899 60.1549337442 c 0
 51.2704303 46.823288 55.1417815195 40.9643220138 62.3925472209 35.2091660665 c 0
 70.1125327936 29.6914519111 81.1224542014 24 97 24 c 0
 114.61167435 24 131.076630624 28.8711310419 144.266873708 35.466252584 c 0
 160.718564257 43.6920978586 173.414261067 53.6178365647 182.075293104 67.1074049819 c 0
 182.539026739 68.5520225941 183.793560009 71.4569553193 185.030792936 73.3128047094 c 0
 187.359256485 76.8055000329 188.870145123 80.7966433437 189.241212152 83.3941125497 c 0
 189.30285268 83.8255962448 189.444387118 84.6342755174 189.571510556 85.2063309876 c 0
 191.465823787 93.7307405304 189.327147372 98.0935054611 183.234250165 104.863391247 c 0
 176.010146925 112.744231145 166.136354506 120 145 120 c 0
 127.38832565 120 110.923369376 115.128868958 97.733126292 108.533747416 c 0
 81.2814357428 100.307902141 68.5857389329 90.3821634353 59.9247068961 76.8925950181 c 0
EndSplineSet
EndChar

StartChar: slash
Encoding: 47 47 15
Width: 720
Flags: HW
LayerCount: 2
Back
SplineSet
76.34765625 48 m 1
 643.65234375 688 l 1025
EndSplineSet
Fore
SplineSet
67 -24 m 0
 61.0246251562 -24 55.1969013493 -23.4551249063 49.5821707332 -22.3886955082 c 0
 18.4517998114 -16.475973243 -8.71449406777 7.93829035101 -8.71449406777 40.7286871692 c 0
 -8.71449406777 44.5545697422 -8.3446656137 48.4944808395 -7.56815472754 52.5323374476 c 0
 -7.48898498831 52.9440200916 -7.35875520289 53.5195142033 -7.28342000349 53.8208550009 c 0
 -4.35113524484 65.5499940354 1.17319870567 76.5802429858 9.91247802935 86.7760688634 c 2
 577.956006691 726.825115242 l 2
 595.586327176 747.167792726 623.167424354 760 653 760 c 0
 658.975374844 760 664.803098651 759.455124906 670.417829267 758.388695508 c 0
 701.548200189 752.475973243 728.714494068 728.061709649 728.714494068 695.271312831 c 0
 728.714494068 691.445430258 728.344665614 687.50551916 727.568154728 683.467662552 c 0
 727.488984988 683.055979908 727.358755203 682.480485797 727.283420003 682.179144999 c 0
 724.351135245 670.450005965 718.826801294 659.419757014 710.087521971 649.223931137 c 2
 142.043993309 9.17488475764 l 2
 124.413672824 -11.1677927255 96.8325756464 -24 67 -24 c 0
67 24 m 0
 83.1674243536 24 97.5863271761 31.1677927255 105.956006691 40.8251152424 c 2
 673.912478029 680.776068863 l 2
 676.997462698 684.375217643 679.193919983 688.478550877 680.53182472 693.113190109 c 0
 681.370538051 698.769608532 677.929628694 708.894856138 659.637826611 711.536033228 c 0
 657.567635155 711.834950864 655.350892989 712 653 712 c 0
 636.832575646 712 622.413672824 704.832207274 614.043993309 695.174884758 c 2
 46.0875219706 55.2239311366 l 2
 43.0025373024 51.624782357 40.8060800174 47.5214491231 39.4681752798 42.8868098909 c 0
 38.6294619491 37.2303914681 42.0703713057 27.1051438619 60.3621733888 24.463966772 c 0
 62.432364845 24.1650491355 64.6491070114 24 67 24 c 0
EndSplineSet
EndChar

StartChar: zero
Encoding: 48 48 16
Width: 840
Flags: HW
LayerCount: 2
Back
SplineSet
730 368 m 0
 693.966796875 186.850585938 525.965820312 40 354.756835938 40 c 0
 183.547851562 40 73.966796875 186.850585938 110 368 c 0
 146.033203125 549.149414062 314.034179688 696 485.243164062 696 c 0
 656.452148438 696 766.033203125 549.149414062 730 368 c 0
EndSplineSet
Fore
SplineSet
813.520234552 363.225215542 m 0
 785.003439784 222.75359687 689.56599027 97.2877930581 560.575979692 25.9762424949 c 0
 495.516380639 -9.70160214704 421.713350211 -32 345 -32 c 0
 268.301155748 -32 201.302417894 -9.54176168156 149.127583821 27.4154124536 c 0
 64.8655577275 87.10101427 18.2110204808 183.387361391 18.2110204808 292.19692855 c 0
 18.2110204808 318.440329334 20.9249586352 345.412217565 26.479765448 372.774784458 c 0
 54.996560216 513.24640313 150.43400973 638.712206942 279.424020308 710.023757505 c 0
 344.483619361 745.701602147 418.286649789 768 495 768 c 0
 571.698844252 768 638.697582106 745.541761682 690.872416179 708.584587546 c 0
 775.134442272 648.89898573 821.788979519 552.612638609 821.788979519 443.80307145 c 0
 821.788979519 417.559670666 819.075041365 390.587782435 813.520234552 363.225215542 c 0
766.479765448 372.774784458 m 0
 771.468483976 397.348842391 773.884552513 421.31972124 773.884552513 444.445668458 c 0
 773.884552513 539.130225801 733.383296095 619.650949593 663.127583821 669.415412454 c 0
 619.302417894 700.458238318 562.301155748 720 495 720 c 0
 427.694820894 720 361.557077759 700.320715628 302.539982669 667.956502192 c 0
 185.599304679 603.306371271 99.0014894463 488.743989651 73.520234552 363.225215542 c 0
 68.5315160242 338.651157609 66.1154474871 314.68027876 66.1154474871 291.554331542 c 0
 66.1154474871 196.869774199 106.616703905 116.349050407 176.872416179 66.5845875464 c 0
 220.697582106 35.5417616816 277.698844252 16 345 16 c 0
 412.305179106 16 478.442922241 35.6792843716 537.460017331 68.0434978081 c 0
 654.400695321 132.693628729 740.998510554 247.256010349 766.479765448 372.774784458 c 0
646.482962831 372.790507571 m 0
 650.44725412 392.251573899 652.300834551 410.977458807 652.300834551 428.811508802 c 0
 652.300834551 502.738575261 620.450175561 561.340960234 575.064153975 593.460298587 c 0
 547.259119496 613.445167119 513.461468592 624 476 624 c 0
 438.540406082 624 398.542820493 613.273892221 360.688064656 592.038297484 c 0
 283.63707042 549.335336823 213.972796808 463.628676109 193.517037169 363.209492429 c 0
 189.55274588 343.748426101 187.699165449 325.022541193 187.699165449 307.188491198 c 0
 187.699165449 233.261424739 219.549824439 174.659039766 264.935846025 142.539701413 c 0
 292.740880504 122.554832881 326.538531408 112 364 112 c 0
 401.459593918 112 441.457179507 122.726107779 479.311935344 143.961702516 c 0
 556.36292958 186.664663177 626.027203192 272.371323891 646.482962831 372.790507571 c 0
693.517037169 363.209492429 m 0
 669.972796808 247.628676109 591.63707042 151.335336823 502.688064656 102.038297484 c 0
 458.542820493 77.2738922212 410.540406082 64 364 64 c 0
 317.461468592 64 273.259119496 77.4451671195 237.064153975 103.460298587 c 0
 177.619933018 145.528516496 139.759726801 219.633260115 139.759726801 307.56121273 c 0
 139.759726801 328.596310834 141.926523359 350.422531984 146.482962831 372.790507571 c 0
 170.027203192 488.371323891 248.36292958 584.664663177 337.311935344 633.961702516 c 0
 381.457179507 658.726107779 429.459593918 672 476 672 c 0
 522.538531408 672 566.740880504 658.554832881 602.935846025 632.539701413 c 0
 662.380066982 590.471483504 700.240273199 516.366739885 700.240273199 428.43878727 c 0
 700.240273199 407.403689166 698.073476641 385.577468016 693.517037169 363.209492429 c 0
EndSplineSet
Substitution2: "(ss01) Slashed Zero subtable" zero.ss01
Substitution2: "(ss02) Dotted Zero subtable" zero.ss02
EndChar

StartChar: one
Encoding: 49 49 17
Width: 440
Flags: HW
LayerCount: 2
Back
SplineSet
283.65234375 688 m 1
 156.34765625 48 l 1025
EndSplineSet
Fore
SplineSet
200.448631477 692.619625712 m 2
 208.295843078 733.425126039 251.132109998 760 293 760 c 0
 298.975374844 760 304.803098651 759.455124906 310.417829267 758.388695508 c 0
 341.5367986 752.478138795 368.706000939 728.138405847 368.706000939 695.263073347 c 0
 368.706000939 691.413892356 368.333546423 687.447699368 367.551368523 683.380374288 c 2
 239.551368523 43.3803742878 l 2
 231.704156922 2.57487396126 188.867890002 -24 147 -24 c 0
 141.024625156 -24 135.196901349 -23.4551249063 129.582170733 -22.3886955082 c 0
 98.4632013999 -16.4781387946 71.2939990605 7.86159415345 71.2939990605 40.7369266526 c 0
 71.2939990605 44.586107644 71.6664535771 48.5523006317 72.4486314772 52.6196257122 c 2
 200.448631477 692.619625712 l 2
247.551368523 683.380374288 m 2
 119.551368523 43.3803742878 l 2
 118.382442776 37.3019604035 121.639506245 27.9780175299 138.538887147 24.7682470463 c 0
 141.114455991 24.2790584243 143.943795896 24 147 24 c 0
 171.132109998 24 190.295843078 41.4251260387 192.448631477 52.6196257122 c 2
 320.448631477 692.619625712 l 2
 321.617557224 698.698039597 318.360493755 708.02198247 301.461112853 711.231752954 c 0
 298.885544009 711.720941576 296.056204104 712 293 712 c 0
 268.867890002 712 249.704156922 694.574873961 247.551368523 683.380374288 c 2
EndSplineSet
Substitution2: "(ss03) Serifed One subtable" one.ss03
Substitution2: "Tabular Figures subtable" one.tnum
EndChar

StartChar: two
Encoding: 50 50 18
Width: 840
Flags: HW
LayerCount: 2
Back
SplineSet
193.416992188 536 m 0
 214.666992188 642.828125 333.046875 696 467.743164062 696 c 0
 607.743164062 696 695.921875 624 676.826171875 528 c 0
 664.540039062 466.232421875 624.649414062 435.219726562 502.78515625 382 c 0
 250.904296875 272 142.948242188 232 106.34765625 48 c 1
 616.34765625 48 l 1025
EndSplineSet
Fore
SplineSet
276.551368523 531.380374288 m 0
 268.704156922 490.574873961 225.867890002 464 184 464 c 0
 178.024625156 464 172.196901349 464.544875094 166.582170733 465.611304492 c 0
 135.459547686 471.522555171 108.291277912 495.886174746 108.291277912 528.734300541 c 0
 108.291277912 532.576008159 108.662889637 536.533768143 109.443248611 540.591634808 c 0
 127.475362382 631.879210776 196.695397628 692.849619128 271.08641977 726.856943536 c 0
 334.916398499 755.580433964 405.212396748 768 477 768 c 0
 534.550664357 768 588.727335301 758.696619441 633.598939436 738.996890796 c 0
 711.686253789 705.12769421 764.432213477 640.288503339 764.432213477 561.074407334 c 0
 764.432213477 548.762850742 763.158093899 536.104057164 760.506969038 523.160329904 c 0
 752.656284769 485.028434885 734.106845784 446.945136595 699.450984583 414.525137407 c 0
 657.886913042 375.148648579 604.731254673 349.05931564 534.544916158 318.979456276 c 0
 462.041630017 287.197193858 380.519138146 250.897766196 334.269145698 226.809228462 c 0
 300.788574952 208.634061486 274.749467742 191.085823255 257.181282018 175.274456103 c 0
 239.976045185 159.343681258 225.991614164 141.770106454 214.913624733 120 c 1
 626 120 l 2
 631.975289557 120 637.796804737 119.455067326 643.401154763 118.382140008 c 0
 674.730238058 112.384329532 700.724050384 87.6745632985 700.724050384 55.3856423915 c 0
 700.724050384 51.5154784004 700.350609681 47.5364283092 699.568154728 43.4676625524 c 0
 691.6899954 2.50123405153 648.872946904 -24 607 -24 c 2
 97 -24 l 2
 91.0246251562 -24 85.1969013493 -23.4551249063 79.5821707332 -22.3886955082 c 0
 48.4667191802 -16.4788069414 21.2966184973 7.83792557241 21.2966184973 40.7394423289 c 0
 21.2966184973 44.5958251047 21.6698855675 48.5701469819 22.4538173043 52.6465920132 c 0
 40.2754094793 140.706223936 76.7459016341 211.003023839 138.846844953 267.750437561 c 0
 173.047578191 298.744852059 212.805975886 323.705819967 255.836929733 346.245843411 c 0
 316.064661285 377.890922701 394.44010621 412.013823658 470.393253197 444.993479587 c 0
 535.363887079 473.541182353 567.930726851 493.564600307 578.703156778 503.618868239 c 0
 587.913559878 512.061737747 589.994732811 514.487697219 593.444473471 532.598835679 c 0
 594.467769058 537.715313617 594.998477831 542.664793963 594.998477831 547.443585061 c 0
 594.998477831 573.026709598 579.7885433 593.717937837 543.519671604 608.950863949 c 0
 522.065289816 618.390791936 493.619825226 624 458 624 c 0
 409.690630821 624 368.048492746 615.386305488 338.751012344 602.069268941 c 0
 318.423250512 593.231111623 305.109109323 582.582028774 294.828733293 570.115010915 c 0
 286.005956414 558.505107813 279.646340847 546.855235909 276.551368523 531.380374288 c 0
229.448631477 540.619625712 m 0
 234.376259147 565.257764059 245.208390042 584.333833776 257.171808565 599.886277855 c 0
 273.012233905 619.382185965 293.509915266 634.73983002 319.248987656 645.930731059 c 0
 355.951507254 662.613694512 404.309369179 672 458 672 c 0
 498.380174774 672 533.934710184 665.609208064 562.480328396 653.049136051 c 0
 611.783488034 632.341809003 642.84909664 593.417007451 642.84909664 546.038738709 c 0
 642.84909664 538.684394969 642.100566414 531.126363743 640.555526529 523.401164321 c 0
 636.005267189 499.512302781 626.086440122 481.938262253 611.296843222 468.381131761 c 0
 592.069273149 450.435399693 556.636112921 430.458817647 489.606746803 401.006520413 c 0
 413.55989379 367.986176342 335.935338715 334.1090773 278.163070267 303.754156589 c 0
 237.16772655 282.280405119 200.999021047 259.297378501 171.116466194 232.216313166 c 0
 117.288050338 183.028277987 85.721622045 123.279108301 69.5461826957 43.3534079868 c 0
 68.3868091015 37.324665297 71.6394880854 27.978020979 88.5388871469 24.7682470463 c 0
 91.1144559914 24.2790584243 93.9437958964 24 97 24 c 2
 607 24 l 2
 631.127053096 24 650.3100046 41.4987659485 652.431845272 52.5323374476 c 0
 653.752918735 59.4019194548 650.545558629 68.142659262 634.375682677 71.2383084538 c 0
 631.854386399 71.7209991564 629.056289391 72 626 72 c 2
 179 72 l 2
 178.439179426 72 174.898027604 72.2773348777 173.06194755 72.7461931483 c 0
 162.245774219 75.5081927194 155.033335103 85.5473443679 155.033335103 96.1965074408 c 0
 155.033335103 98.7076163608 155.43437013 101.252643896 156.283755484 103.744174267 c 0
 172.452446672 151.172335085 195.184245124 183.286217176 224.818717982 210.725543897 c 0
 247.250532258 230.914176745 275.211425048 249.365938514 311.730854302 269.190771538 c 0
 361.480861854 295.102233804 441.958369983 330.802806142 515.455083842 363.020543724 c 0
 585.268745327 392.94068436 632.113086958 416.851351421 666.549015417 449.474862593 c 0
 693.893154216 475.054863405 707.343715231 502.971565115 713.493030962 532.839670096 c 0
 715.497919893 542.628245466 716.48141185 552.2150376 716.48141185 561.554759924 c 0
 716.48141185 618.790244541 679.54679381 666.747128519 614.401060564 695.003109204 c 0
 577.272664699 711.303380559 529.449335643 720 477 720 c 0
 410.787603252 720 347.083601501 708.419566036 290.91358023 683.143056464 c 0
 225.304602372 653.150380872 170.524637618 602.120789224 156.556751389 531.408365192 c 0
 155.377910549 525.278392822 158.639525094 515.97801395 175.538887147 512.768247046 c 0
 178.114455991 512.279058424 180.943795896 512 184 512 c 0
 208.132109998 512 227.295843078 529.425126039 229.448631477 540.619625712 c 0
EndSplineSet
EndChar

StartChar: three
Encoding: 51 51 19
Width: 840
Flags: HW
LayerCount: 2
Back
SplineSet
315.741210938 422 m 0
 602.641601562 512.845703125 668.65234375 688 668.65234375 688 c 1
 208.65234375 688 l 1025
126.69140625 153.767578125 m 0
 157.5859375 86.4765625 242.834960938 40 352.256835938 40 c 0
 504.135742188 40 647.568359375 129.54296875 669.5390625 240 c 0
 691.510742188 350.45703125 610.1171875 444 445.1171875 444 c 0
 404.822265625 444 352.478515625 433.32421875 315.741210938 422 c 1024
EndSplineSet
Fore
SplineSet
678 760 m 2
 683.109425855 760 688.090119706 759.636072346 692.915370329 758.911119679 c 0
 727.47436773 753.718925678 753.640236492 727.910351833 753.640236492 694.988743213 c 0
 753.640236492 691.819363204 753.397730937 688.584059512 752.896862345 685.294880308 c 0
 751.931070217 677.122793069 750.273034491 674.262779451 748.774321701 670.828229306 c 0
 744.653741468 660.6930297 707.902500296 576.810726196 601.676083524 491.299877243 c 1
 646.354592244 474.425795107 683.542754436 449.143243087 710.538211664 416.24252959 c 0
 742.28866292 377.6271159 758.294156068 330.831339254 758.294156068 281.908228453 c 0
 758.294156068 266.510287595 756.708656142 250.901613578 753.529533376 235.270926644 c 0
 722.247823086 77.7451712563 529.932198769 -32 343 -32 c 0
 207.069547617 -32 91.7623574784 24.9813258973 47.0812932561 121.217464222 c 0
 43.7371593269 129.02044339 42.0036203594 136.612217699 42.0036203594 144.903991846 c 0
 42.0036203594 149.736788494 42.5925124524 154.807378682 43.7946388779 160.296175949 c 0
 52.1665788902 199.583927694 94.499392903 226 136 226 c 0
 166.287174926 226 193.892513785 211.554711686 205.776247102 186.089568864 c 0
 223.386235004 147.806986469 279.986452128 112 362 112 c 0
 478.890055479 112 573.832720356 182.330011949 586.483523777 244.793353836 c 0
 588.14207783 252.878804844 588.943694627 260.555136299 588.943694627 267.856191545 c 0
 588.943694627 289.975167025 581.586274538 308.649772666 568.409673616 324.821055616 c 0
 547.283043654 350.642492236 506.323314881 372 436 372 c 0
 412.409584314 372 364.474930696 363.285743587 336.896349254 355.012169155 c 0
 336.55708968 354.910391283 336.075156699 354.780155421 335.820855001 354.716579997 c 0
 327.872658443 352.729530857 317.99084842 350 306 350 c 0
 300.024710443 350 294.203195263 350.544932674 288.598845237 351.617859992 c 0
 257.245246433 357.620363851 231.258668556 382.485425939 231.258668556 414.599947486 c 0
 231.258668556 418.421132864 231.626579236 422.344954056 232.397135752 426.351847943 c 0
 237.218325088 453.671920847 259.572218672 472.846591194 279.060231352 482.854466283 c 0
 285.484997407 486.717863811 291.462440288 488.310061034 294.445439652 489.100829895 c 0
 407.570689213 525.373559276 476.072659831 572.837379381 520.585412907 614.508892899 c 0
 521.560530377 615.423065527 522.165420234 616 522.165420234 616 c 1
 199 616 l 2
 193.024710443 616 187.203195263 616.544932674 181.598845237 617.617859992 c 0
 150.269761942 623.615670468 124.275949616 648.325436701 124.275949616 680.614357609 c 0
 124.275949616 684.4845216 124.649390319 688.463571691 125.431845272 692.532337448 c 0
 133.3100046 733.498765948 176.127053096 760 218 760 c 2
 678 760 l 2
678 712 m 2
 218 712 l 2
 193.872946904 712 174.6899954 694.501234052 172.568154728 683.467662552 c 0
 171.247081265 676.598080545 174.454441371 667.857340738 190.624317323 664.761691546 c 0
 193.145613601 664.279000844 195.943710609 664 199 664 c 2
 576 664 l 2
 579.934857439 664 585.19238219 662.653755216 589.095464508 660.112404365 c 0
 596.11959457 655.538896183 599.901492888 647.733219426 599.901492888 639.858753129 c 0
 599.901492888 634.77272585 598.323790941 629.658001503 595.022975739 625.36694174 c 0
 584.335433828 611.473137256 570.506917933 595.515167263 553.414587093 579.491107101 c 0
 503.903479669 533.140283129 427.507196028 481.160131846 308.293157874 443.134964504 c 0
 307.949261663 443.025273471 307.292828854 442.83457346 306.820855001 442.716579997 c 0
 305.251036874 442.324125465 304.50144774 442.075070773 304.211340474 441.963491055 c 0
 303.600902999 441.562257988 302.556479938 440.945424239 301.733126292 440.533747416 c 0
 287.478054572 433.406211556 280.771870167 424.272518935 279.602864248 417.648152057 c 0
 278.217856825 410.44611346 281.4544855 401.85733229 297.624317323 398.761691546 c 0
 300.145613601 398.279000844 302.943710609 398 306 398 c 0
 310.115703986 398 315.049332793 399.004642256 323.642657384 401.149243663 c 0
 354.986318555 410.449212801 403.816741031 420 436 420 c 0
 515.670890141 420 572.731505161 395.339725879 605.574975181 355.197706966 c 0
 625.763535819 330.420837092 636.816579667 300.145358991 636.816579667 267.025446979 c 0
 636.816579667 256.660859113 635.734130228 246.017709438 633.510464815 235.177340551 c 0
 614.172185409 139.694585981 493.108268875 64 362 64 c 0
 268.013547872 64 190.613764996 104.193013531 162.223752898 165.910431136 c 0
 160.107486215 170.445288314 151.712825074 178 136 178 c 0
 111.872946904 178 92.6899954004 160.501234052 90.5681547275 149.467662552 c 0
 90.5094958973 149.162636635 90.3850972457 148.585853968 90.2834200035 148.179144999 c 0
 89.6917875703 145.812615267 89.8437018348 143.482570992 90.9493737213 140.71737441 c 0
 124.567096085 69.1492663808 218.673146778 16 343 16 c 0
 516.067801231 16 681.752176914 120.254828744 706.470466624 244.729073356 c 0
 709.07977868 257.558190964 710.374282994 270.173080363 710.374282994 282.483696385 c 0
 710.374282994 320.749595856 697.866861562 356.075624594 673.461788336 385.75747041 c 0
 645.550932518 419.773825938 601.759299571 445.482353905 543.713739086 458.58941595 c 0
 539.773466067 459.479155019 533.834101975 462.614964586 530.38841962 466.847142984 c 0
 526.817948404 471.232593989 525.10213621 476.568382549 525.10213621 481.878766412 c 0
 525.10213621 489.522978423 528.657494446 497.114549008 535.35406214 501.743059031 c 0
 666.533619319 592.411282376 703.808837062 687.644070341 704.716559419 689.913376232 c 0
 704.794293788 690.107712155 705.034216238 690.676887996 705.189481224 691.015052245 c 0
 705.245272516 691.431004715 705.337277852 692.040586863 705.431845272 692.532337448 c 0
 706.820000637 699.750745345 704.227149689 708.150005255 687.046173365 711.235859924 c 0
 684.362707917 711.717833953 681.343163694 712 678 712 c 2
EndSplineSet
EndChar

StartChar: four
Encoding: 52 52 20
Width: 840
Flags: HW
LayerCount: 2
Back
SplineSet
720.506835938 270 m 1
 120.506835938 270 l 1
 132.838867188 332 l 1
 585.75390625 686 l 1
 663.25390625 686 l 1
 535.950195312 46 l 1025
EndSplineSet
Fore
SplineSet
526 -26 m 0
 520.024710443 -26 514.203195263 -25.4550673256 508.598845237 -24.3821400081 c 0
 477.279838213 -18.3862585884 451.283046347 6.25964391158 451.283046347 38.6201133912 c 0
 451.283046347 42.5104936764 451.658774935 46.5123716947 452.446154762 50.6067467924 c 2
 481.75731307 198 l 1
 111 198 l 2
 105.024710443 198 99.2031952631 198.544932674 93.5988452368 199.617859992 c 0
 62.2735689327 205.614941637 36.2786560197 230.300490997 36.2786560197 262.616537129 c 0
 36.2786560197 266.494362112 36.6529633538 270.482060551 37.4372835858 274.560525758 c 2
 49.3779118043 336.253771553 l 2
 52.704292641 356.212056573 65.6718396043 370.83187692 79.0103230314 381.745181542 c 2
 531.749133472 735.541073145 l 2
 551.13725998 751.436395242 572.641211525 758 595 758 c 2
 673 758 l 2
 678.975289557 758 684.796804737 757.455067326 690.401154763 756.382140008 c 0
 721.720919672 750.386113495 747.71748731 725.735406788 747.71748731 693.380316144 c 0
 747.71748731 689.491458152 747.341931108 685.491299729 746.554922404 681.398854472 c 2
 679.228519207 342 l 1
 730 342 l 2
 735.975374844 342 741.803098651 341.455124906 747.417829267 340.388695508 c 0
 778.548200189 334.475973243 805.714494068 310.061709649 805.714494068 277.271312831 c 0
 805.714494068 273.445430258 805.344665614 269.50551916 804.568154728 265.467662552 c 0
 796.606537168 224.067251245 752.567895066 198 711 198 c 2
 650.697232384 198 l 1
 619.553845238 41.3932532076 l 2
 611.618609053 0.130025043194 567.563572669 -26 526 -26 c 0
526 22 m 0
 550.436427331 22 570.381390947 39.8699749568 572.446154762 50.6067467924 c 2
 607.460933811 226.681064299 l 2
 609.342974472 236.145040193 618.934596316 246 631 246 c 2
 711 246 l 2
 735.432104934 246 755.393462832 263.932748755 757.431845272 274.532337448 c 0
 758.631690753 280.771533946 755.360434975 290.021993634 738.461112853 293.231752954 c 0
 735.885544009 293.720941576 733.056204104 294 730 294 c 2
 650 294 l 2
 639.330724919 294 623.068410809 305.579044467 626.458711465 322.669875171 c 2
 699.445077596 690.601145528 l 2
 700.741777492 697.343984987 697.545575452 706.142656041 681.375682677 709.238308454 c 0
 678.854386399 709.720999156 676.056289391 710 673 710 c 2
 595 710 l 2
 583.262429542 710 570.921692076 705.80256462 562.145987026 698.376968039 c 2
 108.950688923 344.224350978 l 2
 100.402333695 337.088801398 97.3058492327 331.848794669 96.6220881957 327.746228447 c 2
 84.5627164142 265.439474242 l 2
 83.2516291119 258.62182027 86.4544526268 249.857338583 102.624317323 246.761691546 c 0
 105.145613601 246.279000844 107.943710609 246 111 246 c 2
 511 246 l 2
 521.691185031 246 537.936606921 234.403711954 534.539066189 217.318935701 c 2
 499.553845238 41.3932532076 l 2
 498.259129452 34.6607311199 501.454423178 25.8573442209 517.624317323 22.7616915462 c 0
 520.145613601 22.2790008436 522.943710609 22 526 22 c 0
510.312294444 342 m 1
 555.819513373 570.270082046 l 1
 263.692527346 342 l 1
 510.312294444 342 l 1
553.53684253 313.307767727 m 2
 551.653429721 303.860326053 542.066090544 294 530 294 c 2
 194 294 l 2
 187.408974187 294 180.829779933 296.849006671 176.306533583 301.78453682 c 0
 172.138818715 306.332129586 170.107873448 312.137565022 170.107873448 317.92613838 c 0
 170.107873448 325.083453627 173.212829299 332.21498974 179.222698922 336.911144145 c 2
 577.222698922 647.911144145 l 2
 582.136023601 651.750450615 588.57734618 653.575338181 594.831136364 652.832428892 c 0
 608.530401498 651.205045974 618.234013443 637.837125046 615.53684253 624.307767727 c 2
 553.53684253 313.307767727 l 2
EndSplineSet
EndChar

StartChar: five
Encoding: 53 53 21
Width: 840
Flags: HW
LayerCount: 2
Back
SplineSet
117.771484375 155.704101562 m 0
 151.34375 86.712890625 232.659179688 40 337.256835938 40 c 0
 490.516601562 40 634.705078125 140.288085938 659.313476562 264 c 0
 683.920898438 387.711914062 579.62890625 488 426.369140625 488 c 0
 336.104492188 488 247.50390625 456 176.365234375 400 c 1
 273.65234375 688 l 1
 673.65234375 688 l 1025
EndSplineSet
Fore
SplineSet
167 328 m 0
 161.56538727 328 156.19254728 328.464233171 150.939541415 329.377869504 c 0
 121.973832199 334.415770664 91.6386647564 353.613581847 91.6386647564 392.720904534 c 0
 91.6386647564 397.658649914 92.1222662231 402.913791562 93.1532858721 408.497902576 c 0
 93.8001529622 411.516615663 95.9532457269 414.732448487 95.9532457269 414.732448487 c 1
 192.243447019 700.625004902 l 2
 204.428076676 737.178893873 244.350768992 760 283 760 c 2
 683 760 l 2
 688.975374844 760 694.803098651 759.455124906 700.417829267 758.388695508 c 0
 731.548200189 752.475973243 758.714494068 728.061709649 758.714494068 695.271312831 c 0
 758.714494068 691.445430258 758.344665614 687.50551916 757.568154728 683.467662552 c 0
 749.606537168 642.067251245 705.567895066 616 664 616 c 2
 335.21622001 616 l 1
 310.830594188 543.926928127 l 1
 352.928541522 554.822904593 393.178938968 560 436 560 c 0
 464.361108687 560 491.522116444 557.342693043 517.181655934 552.270964927 c 0
 652.419321427 525.540607168 747.426007621 429.38479188 747.426007621 307.716023491 c 0
 747.426007621 291.97063901 745.834889263 275.79797799 742.533936217 259.293212757 c 0
 709.596122819 94.6041457701 523.827345031 -32 328 -32 c 0
 194.182490747 -32 85.4170426505 28.2595686669 39.4320255729 122.472774387 c 0
 39.2675895566 122.809667688 39.0498448512 123.290843834 38.9405192796 123.545936834 c 0
 36.0686643495 130.246931671 33.4212499392 143.574969242 33.4212499392 152.573048487 c 0
 33.4212499392 154.6400639 33.5609542255 156.478587038 33.8697345898 157.955794866 c 0
 43.9485488189 205.253547923 85.2201079295 228 127 228 c 0
 156.33727123 228 184.661072897 215.050656446 196.687011006 189.28078907 c 0
 217.581987757 145.883529664 271.839739492 112 347 112 c 0
 458.286512192 112 559.324313695 185.45152951 575.438731639 268.568001009 c 0
 577.018268338 276.715085037 577.756216816 284.529392716 577.762209188 292.153544693 c 0
 577.762209188 359.486914579 516.732228448 416 417 416 c 0
 350.686854375 416 285.507174453 392.515562721 231.238457815 350.447884328 c 0
 214.201481126 336.887121422 193.27462086 328 167 328 c 0
167 376 m 0
 180.755575831 376 193.780607718 381.829959922 201.02068917 387.753662928 c 0
 264.406998397 437.173497241 339.291150399 464 417 464 c 0
 533.765828594 464 625.762219433 393.569683982 625.762219433 292.166554679 c 0
 625.753736319 281.374191444 624.706097186 270.4948003 622.561268361 259.431998991 c 0
 600.675686305 146.54847049 475.713487808 64 347 64 c 0
 258.160260508 64 184.418012243 104.116470336 153.312988994 168.71921093 c 0
 151.338927103 172.949343554 143.66272877 180 127 180 c 0
 102.872946904 180 83.6899954004 162.501234052 81.5681547275 151.467662552 c 0
 81.5094958973 151.162636635 81.3850972457 150.585853968 81.2834200035 150.179144999 c 0
 81.1624081641 149.695097642 80.983707087 147.491158451 82.8494510514 142.953072804 c 0
 118.664098042 70.3153292818 207.662825248 16 328 16 c 0
 506.172654969 16 668.403877181 133.39585423 695.466063783 268.706787243 c 0
 698.114318027 281.948058462 699.405820311 294.972239478 699.405820311 307.690837308 c 0
 699.405820311 403.381735904 626.298986674 481.774779596 507.874296425 505.18197408 c 0
 485.408013894 509.622540008 461.362648219 512 436 512 c 0
 382.860888991 512 330.66293028 502.517251229 281.23663087 484.457641829 c 0
 277.691183372 483.162189859 271.817603408 482.543366641 267.115403736 483.732608079 c 0
 256.274554257 486.474386038 249.032884514 496.526314932 249.032884514 507.195623139 c 0
 249.032884514 509.689155373 249.428429757 512.216409312 250.266018274 514.691948704 c 2
 295.266018274 647.691948704 l 2
 298.145851348 656.203455345 307.347262603 664 318 664 c 2
 664 664 l 2
 688.432104934 664 708.393462832 681.932748755 710.431845272 692.532337448 c 0
 711.631690753 698.771533946 708.360434975 708.021993634 691.461112853 711.231752954 c 0
 688.885544009 711.720941576 686.056204104 712 683 712 c 2
 283 712 l 2
 261.652923922 712 241.561735263 696.790541943 237.768399153 685.410533616 c 2
 140.744595924 397.339493734 l 2
 140.460305152 396.495413916 139.228618207 394.856147709 139.228618207 392.850823927 c 0
 139.228618207 386.291057566 145.852009964 376 167 376 c 0
EndSplineSet
EndChar

StartChar: six
Encoding: 54 54 22
Width: 840
Flags: HW
LayerCount: 2
Back
SplineSet
698.421875 624 m 4
 698.421875 624 652.743164062 696 512.743164062 696 c 4
 412.743164062 696 198.526367188 624.52734375 147.5 368 c 4
 94.5458984375 101.782226562 274.751953125 40 382.256835938 40 c 4
 545.791992188 40 655.513671875 131.782226562 673.458984375 222 c 4
 692.5546875 318 594.661132812 404 444.661132812 404 c 4
 295.145507812 404 180.349609375 340.1796875 153.26171875 204 c 1028
EndSplineSet
Fore
SplineSet
781.551368523 619.380374288 m 0
 773.704156922 578.574873961 730.867890002 552 689 552 c 0
 662.567977828 552 637.661743217 562.203652164 623.604553295 582.775605337 c 0
 621.610679902 585.186033171 614.085516215 594.408990589 596.538352151 603.913704457 c 0
 578.030998643 614.008624552 549.478286595 624 503 624 c 0
 470.666003997 624 402.084857739 609.270654721 343.134223002 561.373263997 c 0
 308.91380912 533.569177718 275.867156729 493.613289993 252.37825349 435.969828983 c 1
 315.251051227 464.706638787 383.395990695 476 454 476 c 0
 578.514910717 476 681.244375209 429.164416636 731.149683772 352.038030676 c 0
 750.116240911 322.726078733 760.017370932 288.9327042 760.017370932 253.697244096 c 0
 760.017370932 241.71369871 758.872133538 229.563351118 756.548783578 217.365763824 c 0
 741.847110941 144.988298538 688.88875702 75.0457034536 608.111689877 28.2800330022 c 0
 543.213274745 -10.0206710098 461.885973337 -32 373 -32 c 0
 309.257229265 -32 230.219306358 -16.3463242179 163.736468171 32.6983924775 c 0
 96.8104631923 82.2410195394 54.1128371563 161.726649762 54.1128371563 272.619528179 c 0
 54.1128371563 303.499179271 57.4236999654 336.814213771 64.4442257914 372.596248626 c 0
 89.5239797224 501.129987522 153.892665462 595.395275848 232.834784556 659.601532711 c 0
 330.683193253 739.563673152 443.598612072 768 522 768 c 0
 700.443564775 768 767.0355757 674.713251756 774.164941283 664.019203381 c 0
 780.467043821 653.93583932 782.949855037 643.357908849 782.949855037 633.073712694 c 0
 782.949855037 628.424978639 782.442546234 623.836262842 781.551368523 619.380374288 c 0
734.448631477 628.619625712 m 0
 735.557579954 634.164368094 734.980714291 635.878116346 733.815668387 638.007241625 c 0
 730.446307111 642.942002933 678.163277202 720 522 720 c 0
 454.410897422 720 351.294532286 694.418124063 263.186822711 622.41612484 c 0
 192.085260951 564.586854609 134.477776278 480.879011979 111.555774209 363.403751374 c 0
 104.916480341 329.564769727 101.84839773 298.810618335 101.84839773 270.88622459 c 0
 101.84839773 173.606958676 139.082433565 110.669433511 192.279469419 71.2898095663 c 0
 247.763907962 30.3586663789 316.750047888 16 373 16 c 0
 454.114026663 16 526.786725255 36.0206710098 583.888310123 69.7199669978 c 0
 655.11124298 110.954296546 698.152889059 171.011701462 709.451216422 226.634236176 c 0
 711.19241518 235.775529653 712.046649053 244.834874881 712.046649053 253.735159495 c 0
 712.046649053 279.824986165 704.70639001 304.548037116 690.850316228 325.961969324 c 0
 652.755624791 384.835583364 567.485089283 428 454 428 c 0
 380.899658899 428 311.903167658 414.453478933 253.44547368 382.904882183 c 0
 243.084507325 377.253445989 233.849323456 371.698792942 224.763096265 365.338433908 c 0
 220.420444624 362.298577759 213.446331347 360.301141461 207.200133476 361.302721372 c 0
 195.443612684 363.187883398 187.017365947 373.690128579 187.017365947 385.151067336 c 0
 187.017365947 386.969233907 187.229427103 388.811527669 187.673894876 390.647372819 c 0
 211.879401855 490.626640774 261.093699742 556.561923233 312.865776998 598.626736003 c 0
 381.915142261 654.729345279 459.333996003 672 503 672 c 0
 556.538150429 672 593.933806915 660.010572416 619.492451136 646.06949375 c 0
 644.14117244 632.718103044 657.150594482 617.545988519 660.965431473 612.915883946 c 0
 661.862977444 611.879630779 662.712531544 610.760148809 663.439799601 609.578338216 c 0
 665.627199051 606.023814109 673.535742699 600 689 600 c 0
 713.132109998 600 732.295843078 617.425126039 734.448631477 628.619625712 c 0
237.235825944 202.681651735 m 1
 248.926316685 176.083938236 265.103613589 157.7823985 282.218892191 145.334923153 c 0
 315.634843517 120.487164475 359.564720107 112 392 112 c 0
 448.298287408 112 490.716216382 125.018298924 521.721160925 143.62126565 c 0
 561.344899838 167.03529319 584.14668882 199.351799561 589.413299541 226.437226126 c 0
 590.275514633 231.179409134 590.73517871 235.685406529 590.73517871 240.044503909 c 0
 590.73517871 251.192343944 587.72890251 261.379434507 580.761098212 272.099133427 c 0
 561.594680211 302.765402228 510.569935294 332 435 332 c 0
 381.038725767 332 338.870417231 321.409396847 310.529285803 305.950597886 c 0
 276.340036269 287.146510643 249.534215396 258.643797312 237.235825944 202.681651735 c 1
188 201.780271642 m 0
 203.478732702 275.555111665 242.737161775 323.445948281 287.433950005 348.029181808 c 0
 325.171009704 368.613032553 374.942456244 380 435 380 c 0
 521.430064706 380 590.405319789 347.234597772 621.238901788 297.900866573 c 0
 633.248310108 279.424853774 638.568289995 259.305272816 638.568289995 239.147453776 c 0
 638.568289995 231.932926364 637.886832643 224.713500884 636.586700459 217.562773874 c 0
 627.85331118 172.648200439 594.655100162 130.96470681 546.278839075 102.37873435 c 0
 507.283783618 78.9817010757 455.701712592 64 392 64 c 0
 352.435279893 64 298.365156483 73.5128355252 253.781107809 106.665076847 c 0
 228.291090327 125.203271379 204.255935494 154.052692808 189.582755964 192.42870081 c 0
 188.691814742 194.758854774 188 198.632984903 188 201.780271642 c 0
EndSplineSet
EndChar

StartChar: seven
Encoding: 55 55 23
Width: 840
Flags: HW
LayerCount: 2
Back
SplineSet
193.65234375 688 m 1
 753.65234375 688 l 1
 742.115234375 630 l 1
 742.115234375 630 372.278320312 480 292.712890625 80 c 2
 286.34765625 48 l 1025
EndSplineSet
Fore
SplineSet
763 760 m 2
 769.225150681 760 775.254895479 759.4214787 781.02483027 758.293142362 c 0
 813.381070306 751.965736121 838.770663995 726.497917502 838.770663995 695.288755168 c 0
 838.770663995 691.316720688 838.359402977 687.251687836 837.498901217 683.121279388 c 2
 825.752525601 626.347130577 l 2
 819.776519914 596.289332349 796.221838632 575.384907578 774.570107447 566.765585333 c 0
 766.868422363 563.725446485 747.696687419 556.408096123 700.601201085 527.574124898 c 0
 664.751724087 505.289314872 619.050792062 473.183510388 573.577294734 429.645055499 c 0
 491.014333206 350.967409808 408.452473225 237.786847778 376.500476158 75.1221354361 c 2
 369.510660276 43.1686914062 l 2
 361.738500044 2.75345820011 318.855626503 -24 277 -24 c 0
 271.024625156 -24 265.196901349 -23.4551249063 259.582170733 -22.3886955082 c 0
 228.490758035 -16.4833727421 201.314506023 7.67612000481 201.314506023 40.7562988178 c 0
 201.314506023 44.6620645278 201.693355106 48.6921885833 202.489339724 52.8313085938 c 2
 209.505272888 84.9041459181 l 1
 264.116612493 359.667448306 445.308553379 528.637480063 572.915911864 616 c 1
 184 616 l 2
 178.024710443 616 172.203195263 616.544932674 166.598845237 617.617859992 c 0
 135.269761942 623.615670468 109.275949616 648.325436701 109.275949616 680.614357609 c 0
 109.275949616 684.4845216 109.649390319 688.463571691 110.431845272 692.532337448 c 0
 118.3100046 733.498765948 161.127053096 760 203 760 c 2
 763 760 l 2
763 712 m 2
 203 712 l 2
 178.872946904 712 159.6899954 694.501234052 157.568154728 683.467662552 c 0
 156.247081265 676.598080545 159.454441371 667.857340738 175.624317323 664.761691546 c 0
 178.145613601 664.279000844 180.943710609 664 184 664 c 2
 657 664 l 2
 664.296192791 664 672.451836775 660.081424112 676.962451495 653.322932496 c 0
 679.643645056 649.305558963 680.912411639 644.726147196 680.912411639 640.181671379 c 0
 680.912411639 631.745856412 676.540531679 623.430422753 668.715668687 619.053804469 c 0
 553.334099857 554.518350717 318.530119524 387.211422156 256.494727112 75.0958540819 c 1
 249.524614462 43.2324819673 l 2
 248.525454989 37.3646311229 251.748098769 27.4268928416 269.745523957 24.5576232296 c 0
 271.990368858 24.1997350768 274.414009004 24 277 24 c 0
 301.144373497 24 320.261499956 41.2465417999 322.489339724 52.8313085938 c 2
 329.499523842 84.8778645639 l 2
 363.549609432 258.223754839 452.963835761 381.011786501 540.44317252 464.37444859 c 0
 588.923024897 510.791328525 637.263067203 544.719879713 675.398798915 568.425875102 c 0
 725.763834639 599.261611259 752.92711871 609.836144443 754.395637822 610.404667804 c 0
 769.090618452 616.002755663 777.150089773 627.285254058 778.426397376 634.51766381 c 2
 790.497749932 692.862534497 l 2
 791.528126938 697.808344128 788.922263056 707.839578087 771.812707707 711.185427517 c 0
 769.189982993 711.698312967 766.254015986 712 763 712 c 2
EndSplineSet
EndChar

StartChar: eight
Encoding: 56 56 24
Width: 840
Flags: HW
LayerCount: 2
Back
SplineSet
527.38671875 380 m 0
 527.38671875 380 691.66015625 451.756835938 710.008789062 544 c 0
 726.8359375 628.595703125 623.336914062 696 485.243164062 696 c 0
 337.149414062 696 216.783203125 628.333007812 200.008789062 544 c 0
 182.50390625 456 278.813476562 386 436.080078125 386 c 0
 614.916992188 386 680.907226562 297.151367188 664.765625 216 c 0
 646.698242188 125.171875 532.408203125 40 354.756835938 40 c 0
 189.756835938 40 98.8525390625 136 117.15234375 228 c 0
 141.817382812 352 311.365234375 400 311.365234375 400 c 1024
EndSplineSet
Fore
SplineSet
283.638343902 539.855483142 m 0
 282.463309375 532.164842597 282.911984302 524.809962131 285.435687709 517.531963197 c 0
 294.49239388 495.208148062 342.487754864 458 446 458 c 0
 471.371175269 458 494.291171414 456.376591599 516.672393768 453.72515345 c 1
 531.653265125 461.502485998 553.593304447 473.85124652 574.839601856 489.377386934 c 0
 606.042862731 512.070667571 624.461064095 537.699931173 626.398916713 548.358120571 c 0
 628.092341106 557.389717333 626.559652615 565.631688807 618.259148573 576.007318859 c 0
 600.175502003 598.431040606 548.251183116 624 476 624 c 0
 381.93218442 624 316.211216173 589.608406219 294.843536206 562.135674833 c 0
 288.819772727 554.605970484 284.97250193 546.513072506 283.638343902 539.855483142 c 0
236.355555846 548.119635801 m 0
 239.342826119 564.549622302 247.201551254 579.420684492 257.156463794 591.864325167 c 0
 291.788783827 636.391593781 372.06781558 672 476 672 c 0
 557.737780706 672 623.852273864 645.534811292 655.711454126 606.029427768 c 0
 668.267396044 590.33450037 674.908136313 572.090609842 674.908136313 553.698606697 c 0
 674.908136313 549.009395446 674.476460191 544.310556251 673.601083287 539.641879429 c 0
 667.537699012 506.293265917 637.977310956 475.943926858 603.138277868 450.606448249 c 0
 575.591042724 430.475776412 548.448765494 415.891567017 531.733126292 407.533747416 c 0
 527.440450974 405.387409757 521.756910916 404.69797474 517.895859582 405.201590132 c 0
 495.751286032 408.090012769 471.814427481 410 446 410 c 0
 335.338865515 410 261.742254088 446.820855353 240.556468429 500.491512356 c 0
 236.77113121 510.901189707 234.985730515 521.371022525 234.985730515 531.909713267 c 0
 234.985730515 537.294655728 235.451879253 542.697576246 236.355555846 548.119635801 c 0
628.555526529 211.401164321 m 0
 618.399842517 158.083823253 572.004601298 113.236139571 500.18957935 86.4394895907 c 0
 463.310362324 73.4232953463 417.953085134 64 364 64 c 0
 341.593896636 64 320.820868964 65.9827884393 301.715420271 69.6614140574 c 0
 208.093044995 87.6877725928 151.502854572 148.812721248 151.502854572 212.315849312 c 0
 151.502854572 219.091855436 152.147169952 225.894938647 153.459561485 232.675628235 c 0
 167.006583472 299.179190717 225.936101821 338.854893421 272.556905248 360.611268354 c 0
 284.813107094 366.739369277 294.518735283 370.476394341 300.545936834 373.05948072 c 0
 305.234394574 375.068819752 311.116367587 375.36378762 315.347795236 374.396604158 c 0
 348.601755617 366.795698928 386.905189437 362 427 362 c 0
 498.417000722 362 547.566922977 346.318222828 579.826126569 323.617301782 c 0
 614.120576093 299.409455059 630.540884378 265.026519566 630.540884378 231.476430924 c 0
 630.540884378 224.720953421 629.875142209 217.999242718 628.555526529 211.401164321 c 0
581.444473471 220.598835679 m 0
 582.182317244 224.288054545 582.578316862 228.089912806 582.578316862 231.954365597 c 0
 582.578316862 249.733371669 574.196586014 268.837254042 552.159603258 284.392771282 c 0
 530.447327403 299.671780216 491.577042395 314 427 314 c 0
 385.855014997 314 348.942951299 318.196785542 312.247830834 325.9276385 c 0
 306.913879599 323.7024657 301.697661479 321.51601501 293.443094752 317.388731646 c 0
 250.063898179 297.145106579 208.993416528 264.820809283 200.540438515 223.324371765 c 0
 199.928546361 220.162928965 199.613358672 216.82988874 199.613358672 213.370132785 c 0
 199.613358672 179.037238064 230.651746713 132.225899223 310.790802836 116.795663084 c 0
 326.695595919 113.733302172 344.425395969 112 364 112 c 0
 412.046914866 112 452.689637676 120.576704654 483.81042065 131.560510409 c 0
 545.995398702 154.763860429 575.600157483 189.916176747 581.444473471 220.598835679 c 0
209.907334521 380.162164589 m 0
 149.92337848 345.88561828 94.5302067442 293.274565395 80.5413601528 223.330332438 c 0
 78.7834493267 214.394285738 77.9167209312 205.508158625 77.9167209312 196.703395906 c 0
 77.9167209312 106.135559141 174.488908564 16 345 16 c 0
 431.413073802 16 507.805820563 35.2931052691 567.922372876 66.2907025551 c 0
 643.249599192 105.837496371 690.295744324 163.996462385 701.459202592 220.672481287 c 0
 703.286278639 229.807861519 704.224764371 238.942505139 704.224764371 248.004033879 c 0
 704.224764371 289.369317944 684.668011293 329.210988385 640.80810563 360.643920777 c 0
 637.829034392 362.878224206 633.771343888 365.348624572 628.65210187 368.420169783 c 0
 621.190429342 372.8971733 617.092871936 380.983755872 617.092871936 389.164929217 c 0
 617.092871936 393.954060081 618.497001766 398.775604823 621.452387374 402.924469133 c 0
 623.243758313 405.439252631 628.28002544 409.351959296 628.28002544 409.351959296 c 2
 635.602225695 413.928334456 641.654624439 418.24096833 649.741168839 424.305876629 c 0
 692.613600166 455.485826685 736.496425779 498.858597222 746.466063783 548.706787243 c 0
 747.916319846 555.958067557 748.622150121 563.048857608 748.622150121 569.968839079 c 0
 748.622150121 594.237280938 739.941061167 616.404928117 724.243628216 636.026719305 c 0
 683.922074406 686.643137918 598.706520943 720 495 720 c 0
 368.847522767 720 251.267817162 674.786452204 194.877739009 603.180003756 c 0
 178.652928559 582.448301514 167.623330974 560.554579033 163.583740298 539.548707518 c 0
 162.063944603 531.341810766 161.320968991 523.334892449 161.320968991 515.59368477 c 0
 161.320968991 501.629424203 163.738616654 488.52978785 168.375249708 476.680614488 c 0
 176.551188409 455.423173868 191.317334572 436.900899194 212.896870665 419.817099787 c 0
 218.833159156 415.117538065 221.891675626 408.036246738 221.891675626 400.931587229 c 0
 221.891675626 395.091012185 219.824699303 389.234644687 215.590330871 384.672714253 c 0
 213.936436729 382.890878275 211.6652745 381.16670172 209.907334521 380.162164589 c 0
158.509247451 404.678010949 m 1
 143.713547352 420.65259772 131.48246345 438.8893313 123.624750292 459.319385512 c 0
 116.690211814 477.040983843 113.321880784 495.992277811 113.321880784 515.49665418 c 0
 113.321880784 526.349153401 114.364702713 537.37288474 116.416259702 548.451292482 c 0
 122.373386183 579.428350185 137.373063566 607.584910645 157.099879976 632.79139828 c 0
 226.753341661 721.240238515 359.14406838 768 495 768 c 0
 607.299270462 768 708.063324923 733.375190584 761.771851941 665.953848157 c 0
 783.5853652 638.686956584 796.548232424 605.358971598 796.548232424 569.41163581 c 0
 796.548232424 559.545746689 795.571804668 549.482555014 793.533936217 539.293212757 c 0
 779.964180757 471.44443546 728.368077724 423.05106357 682.665375889 388.93486712 c 1
 728.566135437 350.558888007 752.065460304 299.374889729 752.065460304 246.698619907 c 0
 752.065460304 234.929241652 750.892367422 223.085368783 748.533936217 211.293212757 c 0
 733.710532516 136.035932433 674.743217123 68.1587321941 590.077627124 23.7092974449 c 0
 522.194179437 -11.2931052691 438.586926198 -32 345 -32 c 0
 160.969150448 -32 29.9166658029 68.2378287692 29.9166658029 196.664884614 c 0
 29.9166658029 208.676788168 31.0823430447 220.590158816 33.4513330442 232.632524647 c 0
 48.9616701812 310.184210332 101.288310177 365.807643086 158.509247451 404.678010949 c 1
EndSplineSet
EndChar

StartChar: nine
Encoding: 57 57 25
Width: 840
Flags: HW
LayerCount: 2
Back
SplineSet
141.578125 112 m 0
 141.578125 112 187.256835938 40 327.256835938 40 c 0
 427.256835938 40 641.473632812 111.47265625 692.5 368 c 0
 745.454101562 634.217773438 565.248046875 696 457.743164062 696 c 0
 294.208007812 696 184.486328125 604.217773438 166.541015625 514 c 0
 147.4453125 418 245.338867188 332 395.338867188 332 c 0
 544.854492188 332 659.650390625 395.8203125 686.73828125 532 c 1024
EndSplineSet
Fore
SplineSet
58.4486314772 116.619625712 m 0
 66.2958430785 157.425126039 109.132109998 184 151 184 c 0
 177.432022172 184 202.338256783 173.796347836 216.395446705 153.224394663 c 0
 218.389320098 150.813966829 225.914483785 141.591009411 243.461647849 132.086295543 c 0
 261.969001357 121.991375448 290.521713405 112 337 112 c 0
 369.333996003 112 437.915142261 126.729345279 496.865776998 174.626736003 c 0
 531.08619088 202.430822282 564.132843271 242.386710007 587.62174651 300.030171017 c 1
 524.748948773 271.293361213 456.604009305 260 386 260 c 0
 261.485089283 260 158.755624791 306.835583364 108.850316228 383.961969324 c 0
 89.883759089 413.273921267 79.9826290676 447.0672958 79.9826290676 482.302755904 c 0
 79.9826290676 494.28630129 81.1278664615 506.436648882 83.4512164223 518.634236176 c 0
 98.1528890587 591.011701462 151.11124298 660.954296546 231.888310123 707.719966998 c 0
 296.786725255 746.02067101 378.114026663 768 467 768 c 0
 530.742770735 768 609.780693642 752.346324218 676.263531829 703.301607523 c 0
 743.189536808 653.758980461 785.887162844 574.273350238 785.887162844 463.380471821 c 0
 785.887162844 432.500820729 782.576300035 399.185786229 775.555774209 363.403751374 c 0
 750.476020278 234.870012478 686.107334538 140.604724152 607.165215444 76.3984672891 c 0
 509.316806747 -3.56367315197 396.401387928 -32 318 -32 c 0
 139.556435225 -32 72.9644243005 61.2867482438 65.835058717 71.980796619 c 0
 59.5329561786 82.0641606804 57.0501449627 92.6420911511 57.0501449627 102.926287306 c 0
 57.0501449627 107.575021361 57.5574537664 112.163737158 58.4486314772 116.619625712 c 0
105.551368523 107.380374288 m 0
 104.442420046 101.835631906 105.019285709 100.121883654 106.184331613 97.9927583748 c 0
 109.553692889 93.0579970667 161.836722798 16 318 16 c 0
 385.589102578 16 488.705467714 41.5818759366 576.813177289 113.58387516 c 0
 647.914739049 171.413145391 705.522223722 255.120988021 728.444225791 372.596248626 c 0
 735.083519659 406.435230273 738.15160227 437.189381665 738.15160227 465.11377541 c 0
 738.15160227 562.393041324 700.917566435 625.330566489 647.720530581 664.710190434 c 0
 592.236092038 705.641333621 523.249952112 720 467 720 c 0
 385.885973337 720 313.213274745 699.97932899 256.111689877 666.280033002 c 0
 184.88875702 625.045703454 141.847110941 564.988298538 130.548783578 509.365763824 c 0
 128.80758482 500.224470347 127.953350947 491.165125119 127.953350947 482.264840505 c 0
 127.953350947 456.175013835 135.29360999 431.451962884 149.149683772 410.038030676 c 0
 187.244375209 351.164416636 272.514910717 308 386 308 c 0
 459.100341101 308 528.096832342 321.546521067 586.55452632 353.095117817 c 0
 596.915492675 358.746554011 606.150676544 364.301207058 615.236903735 370.661566092 c 0
 619.579555376 373.701422241 626.553668653 375.698858539 632.799866524 374.697278628 c 0
 644.556387316 372.812116602 652.982634053 362.309871421 652.982634053 350.848932664 c 0
 652.982634053 349.030766093 652.770572897 347.188472331 652.326105124 345.352627181 c 0
 628.120598145 245.373359226 578.906300258 179.438076767 527.134223002 137.373263997 c 0
 458.084857739 81.2706547211 380.666003997 64 337 64 c 0
 283.461849571 64 246.066193085 75.9894275841 220.507548864 89.9305062501 c 0
 195.85882756 103.281896956 182.849405518 118.454011481 179.034568527 123.084116054 c 0
 178.137022556 124.120369221 177.287468456 125.239851191 176.560200399 126.421661784 c 0
 174.372800949 129.976185891 166.464257301 136 151 136 c 0
 126.867890002 136 107.704156922 118.574873961 105.551368523 107.380374288 c 0
602.764174056 533.318348265 m 1
 591.073683315 559.916061764 574.896386411 578.2176015 557.781107809 590.665076847 c 0
 524.365156483 615.512835525 480.435279893 624 448 624 c 0
 391.701712592 624 349.283783618 610.981701076 318.278839075 592.37873435 c 0
 278.655100162 568.96470681 255.85331118 536.648200439 250.586700459 509.562773874 c 0
 249.724485367 504.820590866 249.26482129 500.314593471 249.26482129 495.955496091 c 0
 249.26482129 484.807656056 252.27109749 474.620565493 259.238901788 463.900866573 c 0
 278.405319789 433.234597772 329.430064706 404 405 404 c 0
 458.961274233 404 501.129582769 414.590603153 529.470714197 430.049402114 c 0
 563.659963731 448.853489357 590.465784604 477.356202688 602.764174056 533.318348265 c 1
652 534.219728358 m 0
 636.521267298 460.444888335 597.262838225 412.554051719 552.566049995 387.970818192 c 0
 514.828990296 367.386967447 465.057543756 356 405 356 c 0
 318.569935294 356 249.594680211 388.765402228 218.761098212 438.099133427 c 0
 206.751689892 456.575146226 201.431710005 476.694727184 201.431710005 496.852546224 c 0
 201.431710005 504.067073636 202.113167357 511.286499116 203.413299541 518.437226126 c 0
 212.14668882 563.351799561 245.344899838 605.03529319 293.721160925 633.62126565 c 0
 332.716216382 657.018298924 384.298287408 672 448 672 c 0
 487.564720107 672 541.634843517 662.487164475 586.218892191 629.334923153 c 0
 611.708909673 610.796728621 635.744064506 581.947307192 650.417244036 543.57129919 c 0
 651.308185258 541.241145226 652 537.367015097 652 534.219728358 c 0
EndSplineSet
EndChar

StartChar: colon
Encoding: 58 58 26
Width: 360
Flags: HW
LayerCount: 2
Back
SplineSet
225.900390625 456 m 0
 218.201171875 443.068359375 199.365234375 432 182.73046875 432 c 0
 172.73046875 432 164.321289062 440 165.913085938 448 c 0
 166.448242188 450.692382812 167.55078125 453.383789062 169.107421875 456 c 1024
169.107421875 456 m 0
 176.806640625 468.931640625 195.643554688 480 212.278320312 480 c 0
 222.278320312 480 230.686523438 472 229.095703125 464 c 0
 228.559570312 461.307617188 227.458007812 458.616210938 225.900390625 456 c 1024
149.518554688 72 m 0
 141.819335938 59.068359375 122.982421875 48 106.34765625 48 c 0
 96.34765625 48 87.939453125 56 89.5302734375 64 c 0
 90.06640625 66.6923828125 91.16796875 69.3837890625 92.7255859375 72 c 1024
92.7255859375 72 m 0
 100.424804688 84.931640625 119.260742188 96 135.895507812 96 c 0
 145.895507812 96 154.3046875 88 152.712890625 80 c 0
 152.177734375 77.3076171875 151.076171875 74.6162109375 149.518554688 72 c 1024
EndSplineSet
Fore
SplineSet
15.144562222 94.3323415573 m 0
 15.9098360271 96.5982354738 16.3597705662 97.5221456692 17.2297691485 99.024870493 c 0
 31.3983833369 123.497931364 53.5545378324 140.110084646 76.266873708 151.466252584 c 0
 95.0766306238 160.871131042 118.61167435 168 145 168 c 0
 179.863645494 168 203.989853075 153.255768855 218.765749835 137.136608753 c 0
 228.732586175 126.062346153 237.941190869 109.193854599 237.941190869 88.9561652293 c 0
 237.941190869 84.6648226069 237.527135558 80.2219875168 236.618455065 75.6507813584 c 0
 234.761890639 64.716892393 230.954319538 56.5974192531 226.837658797 49.6150167806 c 0
 226.111459793 47.4648191713 225.62477604 46.4511621045 224.770230852 44.975129507 c 0
 210.601616663 20.5020686361 188.445462168 3.88991535381 165.733126292 -7.466252584 c 0
 146.923369376 -16.8711310419 123.38832565 -24 97 -24 c 0
 68.828656949 -24 47.9458697941 -13.636568233 33.6228099125 -3.21979741 c 0
 16.9676494692 9.59186446953 5.22866456296 29.3484726924 5.22866456296 54.4526188373 c 0
 5.22866456296 58.9226133992 5.60084507131 63.562149825 6.38372268041 68.362210315 c 0
 7.7647496307 77.1676838038 10.2039991529 85.3574725502 15.144562222 94.3323415573 c 0
59.9247068961 76.8925950181 m 0
 59.460973261 75.4479774059 58.2064399909 72.5430446807 56.9692070641 70.6871952906 c 0
 55.6045773147 68.6402506665 54.5279154668 65.9897807828 53.6943658899 60.1549337442 c 0
 51.2704303 46.823288 55.1417815195 40.9643220138 62.3925472209 35.2091660665 c 0
 70.1125327936 29.6914519111 81.1224542014 24 97 24 c 0
 114.61167435 24 131.076630624 28.8711310419 144.266873708 35.466252584 c 0
 160.718564257 43.6920978586 173.414261067 53.6178365647 182.075293104 67.1074049819 c 0
 182.539026739 68.5520225941 183.793560009 71.4569553193 185.030792936 73.3128047094 c 0
 187.359256485 76.8055000329 188.870145123 80.7966433437 189.241212152 83.3941125497 c 0
 189.30285268 83.8255962448 189.444387118 84.6342755174 189.571510556 85.2063309876 c 0
 191.465823787 93.7307405304 189.327147372 98.0935054611 183.234250165 104.863391247 c 0
 176.010146925 112.744231145 166.136354506 120 145 120 c 0
 127.38832565 120 110.923369376 115.128868958 97.733126292 108.533747416 c 0
 81.2814357428 100.307902141 68.5857389329 90.3821634353 59.9247068961 76.8925950181 c 0
297.930342328 424.184283698 m 0
 283.729155321 400.29867297 264.115012637 387.724690589 241.733126292 376.533747416 c 0
 222.923369376 367.128868958 199.38832565 360 173 360 c 0
 138.136354506 360 114.010146925 374.744231145 99.234250165 390.863391247 c 0
 88.8633234313 402.386643173 80.9663883583 419.085198047 80.9663883583 438.265788912 c 0
 80.9663883583 442.829149877 81.4133849896 447.533003541 82.3804086385 452.341079874 c 0
 83.8232773223 461.540858301 89.342619564 475.464406727 97.0696576717 487.815716302 c 0
 111.270844679 511.70132703 130.884987363 524.275309411 153.266873708 535.466252584 c 0
 172.076630624 544.871131042 195.61167435 552 222 552 c 0
 256.863645494 552 280.989853075 537.255768855 295.765749835 521.136608753 c 0
 306.136676569 509.613356827 314.033611642 492.914801953 314.033611642 473.734211088 c 0
 314.033611642 469.170850123 313.58661501 464.466996459 312.619591361 459.658920126 c 0
 311.176722678 450.459141699 305.657380436 436.535593273 297.930342328 424.184283698 c 0
135.251487676 458.110616208 m 0
 133.537210239 455.539200053 130.45385754 449.471375292 129.758787848 444.60588745 c 0
 129.69714732 444.174403755 129.555612882 443.365724483 129.428489444 442.793669012 c 0
 127.300023841 433.215573797 129.472702411 429.017772558 134.765749835 423.136608753 c 0
 141.989853075 415.255768855 151.863645494 408 173 408 c 0
 190.61167435 408 207.076630624 412.871131042 220.266873708 419.466252584 c 0
 237.420703816 428.043167638 251.281720859 439.648709054 259.748512324 453.889383792 c 0
 261.462789761 456.460799947 264.54614246 462.528624708 265.241212152 467.39411255 c 0
 265.30285268 467.825596245 265.444387118 468.634275517 265.571510556 469.206330988 c 0
 267.699976159 478.784426203 265.527297589 482.982227442 260.234250165 488.863391247 c 0
 253.010146925 496.744231145 243.136354506 504 222 504 c 0
 204.38832565 504 187.923369376 499.128868958 174.733126292 492.533747416 c 0
 157.712027563 484.023198051 143.383517647 471.788240637 135.251487676 458.110616208 c 0
EndSplineSet
EndChar

StartChar: semicolon
Encoding: 59 59 27
Width: 370
Flags: HW
LayerCount: 2
Back
SplineSet
135.895507812 96 m 0
 145.895507812 96 154.3046875 88.0009765625 152.712890625 79.9990234375 c 0
 149.530273438 64 126.34765625 48 106.34765625 48 c 0
 96.3486328125 48 87.939453125 56 89.5302734375 64 c 0
 92.712890625 80 115.895507812 96 135.895507812 96 c 0
 145.895507812 96 164.3046875 88 159.530273438 64 c 0
 151.57421875 24 93.1611328125 -56 93.1611328125 -56 c 1024
225.900390625 456 m 0
 218.201171875 443.068359375 199.365234375 432 182.73046875 432 c 0
 172.73046875 432 164.321289062 440 165.913085938 448 c 0
 166.448242188 450.692382812 167.55078125 453.383789062 169.107421875 456 c 1024
169.107421875 456 m 0
 176.806640625 468.931640625 195.643554688 480 212.278320312 480 c 0
 222.278320312 480 230.686523438 472 229.095703125 464 c 0
 228.559570312 461.307617188 227.458007812 458.616210938 225.900390625 456 c 1024
EndSplineSet
Fore
SplineSet
297.930342328 424.184283698 m 0
 283.729155321 400.29867297 264.115012637 387.724690589 241.733126292 376.533747416 c 0
 222.923369376 367.128868958 199.38832565 360 173 360 c 0
 138.136354506 360 114.010146925 374.744231145 99.234250165 390.863391247 c 0
 88.8633234313 402.386643173 80.9663883583 419.085198047 80.9663883583 438.265788912 c 0
 80.9663883583 442.829149877 81.4133849896 447.533003541 82.3804086385 452.341079874 c 0
 83.8232773223 461.540858301 89.342619564 475.464406727 97.0696576717 487.815716302 c 0
 111.270844679 511.70132703 130.884987363 524.275309411 153.266873708 535.466252584 c 0
 172.076630624 544.871131042 195.61167435 552 222 552 c 0
 256.863645494 552 280.989853075 537.255768855 295.765749835 521.136608753 c 0
 306.136676569 509.613356827 314.033611642 492.914801953 314.033611642 473.734211088 c 0
 314.033611642 469.170850123 313.58661501 464.466996459 312.619591361 459.658920126 c 0
 311.176722678 450.459141699 305.657380436 436.535593273 297.930342328 424.184283698 c 0
135.251487676 458.110616208 m 0
 133.537210239 455.539200053 130.45385754 449.471375292 129.758787848 444.60588745 c 0
 129.69714732 444.174403755 129.555612882 443.365724483 129.428489444 442.793669012 c 0
 127.300023841 433.215573797 129.472702411 429.017772558 134.765749835 423.136608753 c 0
 141.989853075 415.255768855 151.863645494 408 173 408 c 0
 190.61167435 408 207.076630624 412.871131042 220.266873708 419.466252584 c 0
 237.420703816 428.043167638 251.281720859 439.648709054 259.748512324 453.889383792 c 0
 261.462789761 456.460799947 264.54614246 462.528624708 265.241212152 467.39411255 c 0
 265.30285268 467.825596245 265.444387118 468.634275517 265.571510556 469.206330988 c 0
 267.699976159 478.784426203 265.527297589 482.982227442 260.234250165 488.863391247 c 0
 253.010146925 496.744231145 243.136354506 504 222 504 c 0
 204.38832565 504 187.923369376 499.128868958 174.733126292 492.533747416 c 0
 157.712027563 484.023198051 143.383517647 471.788240637 135.251487676 458.110616208 c 0
196.549710831 69.1109844919 m 0
 197.202668353 72.51712794 197.521472894 75.7611862727 197.521472894 78.8424888913 c 0
 197.521472894 97.6242308839 185.676678296 110.358982473 165.463000933 116.894875304 c 0
 159.520878426 118.36475814 151.360332613 120 145 120 c 0
 123.368959062 120 104.952137818 112.95516452 89.3628326106 103.428366894 c 0
 70.2875231596 92.156593127 56.9014614222 77.4644015897 53.5210628921 59.2102495267 c 0
 51.2542887821 49.0097660318 52.9731791058 45.9239116386 58.4396226886 39.5015701759 c 0
 64.5384103794 33.4095057934 69.5375472501 28.9450079392 76.0580603721 26.9386962093 c 2
 76.0580603721 26.9386962093 79.1594652206 25.7966071025 80.4928180692 25.0692936006 c 0
 88.4441557994 20.7320206159 92.914366513 12.3378068721 92.914366513 3.81316190362 c 0
 92.914366513 -0.646388467044 91.6909973168 -5.14163414438 89.1026543241 -9.11042673313 c 0
 74.0353230595 -32.2136680055 61.9960308179 -50.272557962 61.9709615769 -50.3101725644 c 0
 57.7710110551 -56.6100983472 56.7587878479 -59.3941125497 56.7587878479 -59.3941125497 c 2
 56.7204202521 -59.6626857201 56.6373701367 -60.1724173201 56.5681547275 -60.5323374476 c 0
 55.368309247 -66.7715339465 58.6395650247 -76.0219936344 75.5388871469 -79.2317529537 c 0
 78.1144559914 -79.7209415757 80.9437958964 -80 84 -80 c 0
 101.49791211 -80 117.73141416 -71.1495022971 125.935412009 -60.4211974183 c 0
 125.936733227 -60.4194696707 126.142114177 -60.1516805503 126.398491227 -59.8344253331 c 0
 128.683006282 -56.7063901352 145.957257372 -31.5105995404 162.344998624 -4.77270591863 c 0
 169.78308425 8.243943927 177.538843369 22.7647627295 184.388731646 37.4430947521 c 0
 190.253211778 49.1720550159 193.789216196 57.5868848039 196.549710831 69.1109844919 c 0
243.451439221 58.8895907778 m 0
 239.748202937 42.8422335489 233.800905058 29.0430990724 227.604414155 16.5412146393 c 0
 219.525258606 -0.671439640708 212.395575551 -13.9312892761 203.655001376 -29.2272940814 c 0
 183.80913994 -61.6073837929 167.371088348 -85.5258658382 163.746404822 -89.9967849896 c 0
 145.037211255 -113.765441371 116.247774324 -128 84 -128 c 0
 78.9438857327 -128 73.9935646604 -127.609818179 69.1884792505 -126.843759401 c 0
 36.1984788476 -121.58427341 8.49702572851 -97.1941350657 8.49702572851 -62.5764333198 c 0
 8.49702572851 -58.8327843886 8.82098940403 -54.9695258824 9.49726256142 -50.9979176192 c 0
 12.0443206182 -37.2419976886 18.2602696109 -29.3429806539 22.0290384231 -23.6898274356 c 2
 22.0290384231 -23.6898274356 27.8952434401 -14.8764081569 34.9568656514 -4.15673840358 c 1
 29.1035718289 0.774170430956 27.1297469611 2.92912754192 24.0294372515 6.02943725152 c 0
 23.7460090373 6.31286546579 23.3595426454 6.72417737963 23.1609404901 6.94484644106 c 0
 12.8830224358 18.3647553902 5.01548896295 31.3576695348 5.01548896295 52.0187999757 c 0
 5.01548896295 58.1892375382 5.71720655502 65.0436152826 7.26600392695 72.744291473 c 0
 13.2385745122 102.617908174 40.6149368814 130.376678715 64.6371673894 144.571633106 c 0
 85.0478621819 157.04483548 112.631040938 168 145 168 c 0
 158.206272173 168 169.375258287 165.394819182 177.820855001 163.283420003 c 0
 178.249191181 163.176335958 178.846220213 163.005138105 179.158599835 162.907519473 c 0
 214.36390787 151.905860712 245.484195482 121.456643144 245.484195482 78.3549490996 c 0
 245.484195482 72.1240682434 244.83383549 65.6287725916 243.451439221 58.8895907778 c 0
EndSplineSet
EndChar

StartChar: less
Encoding: 60 60 28
Width: 800
Flags: HW
LayerCount: 2
Back
SplineSet
627.03515625 152 m 1
 130 368 l 1025
712.96484375 584 m 1
 130 368 l 1025
EndSplineSet
Fore
SplineSet
710.528477771 147.26134238 m 0
 702.640009755 106.241308696 658.555910045 80 617 80 c 0
 603.730459125 80 592.19220686 82.8064035542 582.489813004 86.9645723498 c 2
 88.6050741486 301.610656037 l 2
 86.412517478 302.155816998 85.4037177402 302.556949088 84.2526768147 303.068522833 c 0
 61.7880956874 313.052781112 45.146239512 334.46562247 45.146239512 360.116283923 c 0
 45.146239512 364.252590217 45.5789824694 368.499093763 46.4898348298 372.825642475 c 0
 52.7104762608 403.92884963 79.2041084462 425.787915248 107.316992194 434.747859883 c 2
 687.032135361 649.642266402 l 2
 698.366319207 653.420327684 709.526904929 656 723 656 c 0
 728.975289557 656 734.796804737 655.455067326 740.401154763 654.382140008 c 0
 771.702342521 648.389670006 797.704412222 623.856756227 797.704412222 591.369946199 c 0
 797.704412222 587.443693109 797.324616242 583.401262428 796.528477771 579.26134238 c 0
 790.157290015 548.998200537 765.849484949 528.593474204 739.440679715 518.532976972 c 2
 328.29219331 366.223152244 l 1
 671.657525708 216.971387157 l 2
 693.728569246 207.162034473 711.862640929 186.284022977 711.862640929 159.825011142 c 0
 711.862640929 155.762093907 711.435054377 151.567581257 710.528477771 147.26134238 c 0
663.471522229 156.73865762 m 0
 664.669822176 162.430582372 662.882308601 168.344242039 652.342474292 173.028612843 c 2
 254.432595572 345.989439523 l 2
 250.259848188 347.803221677 244.740462835 352.470715911 242.218089832 357.92287792 c 0
 240.746473726 361.103806915 240.05541286 364.462169268 240.05541286 367.781081702 c 0
 240.05541286 377.525885766 246.013007285 386.930594443 255.662885917 390.505388883 c 2
 722.559320285 563.467023028 l 2
 737.934808453 569.324351854 747.519903431 580.338199804 749.469510008 588.731668338 c 0
 750.594167004 595.305505056 747.47743296 604.67201329 730.192412626 607.446367395 c 0
 727.987388389 607.800287605 725.58603575 608 723 608 c 0
 716.244470116 608 711.052786333 606.987218124 702.97215497 604.35932398 c 2
 123.341862563 389.49637076 l 2
 123.026194619 389.379355918 122.422262901 389.172030733 121.987878779 389.03982687 c 0
 105.286678347 383.956852825 95.3330592201 372.288827774 93.5101651702 363.174357525 c 0
 92.1179506301 356.561338459 93.3903524762 352.77749484 101.286973417 348.162272686 c 0
 101.775142024 348.026924139 103.575914838 347.441469474 104.566187709 347.011089312 c 2
 601.510186996 131.03542765 l 2
 605.80779314 129.193596446 610.269540875 128 617 128 c 0
 641.444089955 128 661.359990245 145.758691304 663.471522229 156.73865762 c 0
EndSplineSet
EndChar

StartChar: equal
Encoding: 61 61 29
Width: 800
Flags: HW
AnchorPoint: "middle" 400 368 basechar 0
LayerCount: 2
Back
SplineSet
106.130859375 248 m 1
 646.130859375 248 l 1025
153.869140625 488 m 1
 693.869140625 488 l 1025
EndSplineSet
Fore
SplineSet
144 416 m 2
 138.024710443 416 132.203195263 416.544932674 126.598845237 417.617859992 c 0
 95.2697619421 423.615670468 69.2759496159 448.325436701 69.2759496159 480.614357609 c 0
 69.2759496159 484.4845216 69.6493903192 488.463571691 70.4318452725 492.532337448 c 0
 78.3100045996 533.498765948 121.127053096 560 163 560 c 2
 703 560 l 2
 708.975374844 560 714.803098651 559.455124906 720.417829267 558.388695508 c 0
 751.548200189 552.475973243 778.714494068 528.061709649 778.714494068 495.271312831 c 0
 778.714494068 491.445430258 778.344665614 487.50551916 777.568154728 483.467662552 c 0
 769.606537168 442.067251245 725.567895066 416 684 416 c 2
 144 416 l 2
144 464 m 2
 684 464 l 2
 708.432104934 464 728.393462832 481.932748755 730.431845272 492.532337448 c 0
 731.631690753 498.771533946 728.360434975 508.021993634 711.461112853 511.231752954 c 0
 708.885544009 511.720941576 706.056204104 512 703 512 c 2
 163 512 l 2
 138.872946904 512 119.6899954 494.501234052 117.568154728 483.467662552 c 0
 116.247081265 476.598080545 119.454441371 467.857340738 135.624317323 464.761691546 c 0
 138.145613601 464.279000844 140.943710609 464 144 464 c 2
97 176 m 2
 91.0246251562 176 85.1969013493 176.544875094 79.5821707332 177.611304492 c 0
 48.4517998114 183.524026757 21.2855059322 207.938290351 21.2855059322 240.728687169 c 0
 21.2855059322 244.554569742 21.6553343863 248.49448084 22.4318452725 252.532337448 c 0
 30.3934628316 293.932748755 74.4321049345 320 116 320 c 2
 656 320 l 2
 661.975289557 320 667.796804737 319.455067326 673.401154763 318.382140008 c 0
 704.730238058 312.384329532 730.724050384 287.674563299 730.724050384 255.385642391 c 0
 730.724050384 251.5154784 730.350609681 247.536428309 729.568154728 243.467662552 c 0
 721.6899954 202.501234052 678.872946904 176 637 176 c 2
 97 176 l 2
97 224 m 2
 637 224 l 2
 661.127053096 224 680.3100046 241.498765948 682.431845272 252.532337448 c 0
 683.752918735 259.401919455 680.545558629 268.142659262 664.375682677 271.238308454 c 0
 661.854386399 271.720999156 659.056289391 272 656 272 c 2
 116 272 l 2
 91.5678950655 272 71.6065371684 254.067251245 69.5681547275 243.467662552 c 0
 68.368309247 237.228466054 71.6395650247 227.978006366 88.5388871469 224.768247046 c 0
 91.1144559914 224.279058424 93.9437958964 224 97 224 c 2
EndSplineSet
EndChar

StartChar: greater
Encoding: 62 62 30
Width: 800
Flags: HW
LayerCount: 2
Back
SplineSet
87.03515625 152 m 1
 670 368 l 1025
172.96484375 584 m 1
 670 368 l 1025
EndSplineSet
Fore
SplineSet
77 80 m 0
 71.0247104434 80 65.2031952631 80.5449326744 59.5988452368 81.6178599919 c 0
 28.2976574792 87.6103299943 2.29558777844 112.143243773 2.29558777844 144.630053801 c 0
 2.29558777844 148.556306891 2.67538375783 152.598737572 3.47152222866 156.73865762 c 0
 9.84270998509 187.001799463 34.1505150508 207.406525796 60.5593202855 217.467023028 c 2
 471.70780669 369.776847756 l 1
 128.342474292 519.028612843 l 2
 106.257399025 528.844201851 88.1599968363 550.021414698 88.1599968363 576.357451391 c 0
 88.1599968363 580.371971748 88.580513035 584.50636395 89.4715222287 588.73865762 c 0
 97.3599902448 629.758691304 141.444089955 656 183 656 c 0
 196.269540875 656 207.80779314 653.193596446 217.510186996 649.03542765 c 2
 711.394925851 434.389343963 l 2
 713.587482522 433.844183002 714.59628226 433.443050912 715.747323185 432.931477167 c 0
 738.211904313 422.947218888 754.853760488 401.53437753 754.853760488 375.883716077 c 0
 754.853760488 371.747409783 754.421017531 367.500906237 753.51016517 363.174357525 c 0
 747.289523739 332.07115037 720.795891554 310.212084752 692.683007806 301.252140117 c 2
 112.967864639 86.3577335983 l 2
 101.633680793 82.5796723162 90.4730950709 80 77 80 c 0
77 128 m 0
 83.7555298835 128 88.9472136673 129.012781876 97.0278450302 131.64067602 c 2
 676.658137437 346.50362924 l 2
 676.973805381 346.620644082 677.577737099 346.827969267 678.012121221 346.96017313 c 0
 694.713321653 352.043147175 704.66694078 363.711172226 706.48983483 372.825642475 c 0
 707.88204937 379.438661541 706.609647524 383.22250516 698.713026583 387.837727314 c 0
 698.224857976 387.973075861 696.424085162 388.558530526 695.433812291 388.988910688 c 2
 198.489813004 604.96457235 l 2
 194.19220686 606.806403554 189.730459125 608 183 608 c 0
 158.555910045 608 138.640009755 590.241308696 136.528477771 579.26134238 c 0
 135.264681093 573.258308159 137.109128189 567.659563832 147.657525708 562.971387157 c 2
 545.567404428 390.010560477 l 2
 549.740151812 388.196778323 555.259537165 383.529284089 557.781910168 378.07712208 c 0
 559.253526274 374.896193085 559.94458714 371.537830732 559.94458714 368.218918298 c 0
 559.94458714 358.474114234 553.986992715 349.069405557 544.337114083 345.494611117 c 2
 77.4406797145 172.532976972 l 2
 62.0651915472 166.675648146 52.480096569 155.661800196 50.5304899917 147.268331662 c 0
 49.4058329959 140.694494944 52.5225670399 131.32798671 69.8075873738 128.553632605 c 0
 72.012611611 128.199712395 74.4139642502 128 77 128 c 0
EndSplineSet
EndChar

StartChar: question
Encoding: 63 63 31
Width: 800
Flags: HW
LayerCount: 2
Back
SplineSet
349.518554688 72 m 0
 341.819335938 59.068359375 322.982421875 48 306.34765625 48 c 0
 296.34765625 48 287.939453125 56 289.530273438 64 c 0
 290.06640625 66.6923828125 291.16796875 69.3837890625 292.725585938 72 c 1024
292.725585938 72 m 0
 300.424804688 84.931640625 319.260742188 96 335.895507812 96 c 0
 345.895507812 96 354.3046875 88 352.712890625 80 c 0
 352.177734375 77.3076171875 351.076171875 74.6162109375 349.518554688 72 c 1024
173.416992188 536 m 0
 194.666992188 642.828125 310.546875 696 445.243164062 696 c 0
 585.243164062 696 675.6953125 648 658.19140625 560 c 0
 644.313476562 490.232421875 594.30078125 459.178710938 511.138671875 424 c 0
 408.099609375 380.413085938 375.2265625 344 354.5390625 240 c 1024
EndSplineSet
Fore
SplineSet
215.144562222 94.3323415573 m 0
 215.909836027 96.5982354738 216.359770566 97.5221456692 217.229769148 99.024870493 c 0
 231.398383337 123.497931364 253.554537832 140.110084646 276.266873708 151.466252584 c 0
 295.076630624 160.871131042 318.61167435 168 345 168 c 1
 339.024710443 168 333.203195263 168.544932674 327.598845237 169.617859992 c 0
 296.281580428 175.613407873 270.284273031 200.248266107 270.284273031 232.621098711 c 0
 270.284273031 236.514979484 270.660398087 240.520812083 271.448631477 244.619625712 c 0
 283.810681913 306.42987789 302.364549657 360.305675154 348.029437252 405.970562748 c 0
 384.33045361 442.271579107 429.415903677 466.575180796 479.515718424 488.046529973 c 0
 522.936205653 506.796285822 547.975296632 520.916422129 557.029437252 529.970562748 c 0
 565.523086153 538.46421165 570.296039203 544.694434625 574.462436653 564.693142387 c 0
 577.40003266 580.115521422 575.00497861 585.053895893 568.863075174 591.195799329 c 0
 552.136631746 608.591300494 501.954331726 624 436 624 c 0
 387.703876485 624 344.854841146 615.238561217 317.059186627 602.209348161 c 0
 298.041281438 593.564845802 285.454689663 583.02546092 274.830478895 570.117307955 c 0
 266.003922395 558.502431244 259.646615941 546.856611378 256.551368523 531.380374288 c 0
 248.704156922 490.574873961 205.867890002 464 164 464 c 0
 158.024625156 464 152.196901349 464.544875094 146.582170733 465.611304492 c 0
 115.459547686 471.522555171 88.2912779121 495.886174746 88.2912779121 528.734300541 c 0
 88.2912779121 532.576008159 88.662889637 536.533768143 89.4432486111 540.591634808 c 0
 107.436603855 631.682995731 175.627347011 692.818508158 250.01302511 726.823389575 c 0
 312.830602816 755.570416661 383.255692897 768 455 768 c 0
 564.037093083 768 653.196199342 743.061421697 704.299682961 689.63505246 c 0
 731.050625003 661.96166414 744.976954087 626.86876689 744.976954087 588.697140092 c 0
 744.976954087 577.725768596 743.826479164 566.500058636 741.499369756 555.123079309 c 0
 732.587162228 512.790093549 712.355649199 473.292663717 679.700124822 441.763191904 c 0
 640.007594933 403.17323229 590.837956331 380.099148471 542.215920815 359.839967006 c 0
 490.22023567 338.256852418 475.797489231 325.980854055 465.261015854 311.681354472 c 0
 456.820142249 300.426856332 447.206768727 277.692585388 438.541472421 235.328914558 c 0
 430.629047106 194.184302922 386.559835274 168 345 168 c 1
 373.171343051 168 394.054130206 157.636568233 408.377190087 147.21979741 c 0
 424.650496452 134.701869437 437.722167781 114.804852588 437.722167781 88.8997053004 c 0
 437.722167781 84.703842757 437.37924093 80.3503607935 436.651447624 75.8450848648 c 0
 434.72259623 64.4854753177 431.006687078 56.6862415452 426.837658797 49.6150167806 c 0
 426.111459793 47.4648191713 425.62477604 46.4511621045 424.770230852 44.975129507 c 0
 410.601616663 20.5020686361 388.445462168 3.88991535381 365.733126292 -7.466252584 c 0
 346.923369376 -16.8711310419 323.38832565 -24 297 -24 c 0
 268.828656949 -24 247.945869794 -13.636568233 233.622809913 -3.21979741 c 0
 216.967649469 9.59186446953 205.228664563 29.3484726924 205.228664563 54.4526188373 c 0
 205.228664563 58.9226133992 205.600845071 63.562149825 206.38372268 68.362210315 c 0
 207.764749631 77.1676838038 210.203999153 85.3574725502 215.144562222 94.3323415573 c 0
259.924706896 76.8925950181 m 0
 259.460973261 75.4479774059 258.206439991 72.5430446807 256.969207064 70.6871952906 c 0
 255.604577315 68.6402506665 254.527915467 65.9897807828 253.69436589 60.1549337442 c 0
 251.2704303 46.823288 255.14178152 40.9643220138 262.392547221 35.2091660665 c 0
 270.112532794 29.6914519111 281.122454201 24 297 24 c 0
 314.61167435 24 331.076630624 28.8711310419 344.266873708 35.466252584 c 0
 360.718564257 43.6920978586 373.414261067 53.6178365647 382.075293104 67.1074049819 c 0
 382.539026739 68.5520225941 383.793560009 71.4569553193 385.030792936 73.3128047094 c 0
 387.479815838 76.9863390631 388.796087196 80.2782378534 389.30563411 83.8450662558 c 0
 391.567786848 96.286906314 387.625083032 102.444099818 379.612384955 108.787308754 c 0
 371.882526266 114.312079533 360.879613302 120 345 120 c 0
 327.38832565 120 310.923369376 115.128868958 297.733126292 108.533747416 c 0
 281.281435743 100.307902141 268.585738933 90.3821634353 259.924706896 76.8925950181 c 0
209.448631477 540.619625712 m 0
 214.376259147 565.257764059 225.208390042 584.333833776 237.171808565 599.886277855 c 0
 252.651902656 618.938701352 271.901568795 634.409177031 296.940813373 645.790651839 c 0
 333.145158854 662.761438783 382.296123515 672 436 672 c 0
 506.045668274 672 569.863368254 659.408699506 603.136924826 624.804200671 c 0
 616.829774992 611.111350505 623.318767057 593.183409943 623.318767057 573.584272811 c 0
 623.318767057 567.622385084 622.718325245 561.505857579 621.537563347 555.306857613 c 0
 615.703960797 527.305565375 604.476913847 509.53578835 590.970562748 496.029437252 c 0
 572.037132596 477.096007099 543.027325141 463.187966111 498.514464391 443.966503515 c 0
 450.550448792 423.41049683 411.680370938 401.739245441 381.970562748 372.029437252 c 0
 345.635450343 335.694324846 330.189318087 293.57012211 318.551368523 235.380374288 c 0
 317.261214777 228.671574808 320.454420029 219.857344824 336.624317323 216.761691546 c 0
 339.145613601 216.279000844 341.943710609 216 345 216 c 0
 369.440164726 216 389.370952894 233.815697078 391.458527579 244.671085442 c 0
 400.793231273 290.307414612 411.179857751 319.573143668 426.738984146 340.318645528 c 0
 444.206623009 364.024726842 469.763251134 381.736293048 523.798935881 404.166199924 c 0
 571.12568242 423.885677649 614.03339712 444.866621095 646.270118561 476.207878052 c 0
 671.667343905 500.729337005 687.410991319 531.201135799 694.500630244 564.876920691 c 0
 696.272286966 573.538353554 697.147572226 581.818934068 697.147572226 589.734805761 c 0
 697.147572226 615.670779472 687.75126437 637.69155375 669.700317039 656.36494754 c 0
 632.803800658 694.938578303 557.962906917 720 455 720 c 0
 388.744307103 720 325.169397184 708.429583339 269.98697489 683.176610425 c 0
 204.372652989 653.181491842 150.563396145 602.317004269 136.556751389 531.408365192 c 0
 135.377910549 525.278392822 138.639525094 515.97801395 155.538887147 512.768247046 c 0
 158.114455991 512.279058424 160.943795896 512 164 512 c 0
 188.132109998 512 207.295843078 529.425126039 209.448631477 540.619625712 c 0
EndSplineSet
EndChar

StartChar: at
Encoding: 64 64 32
Width: 1100
Flags: HW
LayerCount: 2
Back
SplineSet
710.965820312 444.380859375 m 0
 694.8515625 504.428710938 642.98046875 545.881835938 573.323242188 545.881835938 c 0
 476.836914062 545.881835938 382.776367188 466.2421875 363.234375 368 c 0
 343.692382812 269.7578125 406.071289062 190.118164062 502.557617188 190.118164062 c 0
 572.194335938 190.118164062 640.565429688 231.599609375 680.573242188 291.619140625 c 1024
663.625 70.470703125 m 0
 607.22265625 50.9169921875 546.497070312 40 484.756835938 40 c 0
 258.3203125 40 103.966796875 186.850585938 140 368 c 0
 176.033203125 549.149414062 388.806640625 696 615.243164062 696 c 0
 841.6796875 696 996.033203125 549.149414062 960 368 c 0
 951.448242188 325.0078125 940.169921875 282.721679688 906.661132812 246.32421875 c 0
 880.069335938 217.439453125 826.583007812 200 786.583007812 200 c 0
 725.954101562 200 669.619140625 231.52734375 677.669921875 272 c 2
 730.884765625 539.529296875 l 1025
EndSplineSet
Fore
SplineSet
625.152876921 431.140852931 m 1
 612.806557382 460.94747007 588.590417997 474 564 474 c 0
 550.472947509 474 535.28291488 470.238278711 519.177914388 461.761962663 c 0
 487.430401609 445.052745411 454.991946814 407.271381401 446.568154728 363.467662552 c 0
 445.074581972 355.701084222 444.389365827 348.280490647 444.389365827 341.249768436 c 0
 444.389365827 308.647726925 459.123251692 284.428909076 476.312804709 272.969207064 c 0
 487.743691105 265.348616134 498.584170466 262 512 262 c 0
 537.932298457 262 574.64666292 278.548114073 601.525100925 313.001972954 c 1
 625.152876921 431.140852931 l 1
672.820914356 440.430065139 m 0
 674.060120548 436.623931835 674.338760672 432.317335032 673.533936217 428.293212757 c 2
 647.533936217 298.293212757 l 2
 646.928699912 295.267031235 645.46054932 291.728297607 643.46823309 288.964762191 c 0
 608.46962145 240.418300884 557.247404125 214 512 214 c 0
 489.415829534 214 468.256308895 220.651383866 449.687195291 233.030792936 c 0
 417.502451562 254.487288755 396.408034162 294.33244883 396.408034162 341.337422757 c 0
 396.408034162 351.442043009 397.382843984 361.877530748 399.431845272 372.532337448 c 0
 411.008053186 432.728618599 452.569598391 480.947254589 496.822085612 504.238037337 c 0
 518.71708512 515.761721289 541.527052491 522 564 522 c 0
 609.895883852 522 655.593363445 493.343257222 672.820914356 440.430065139 c 0
673 95 m 0
 667.429897323 95 661.447243554 93.785705097 655.220341904 91.4506169781 c 0
 604.180458795 73.3739917101 549.801705338 64 494 64 c 0
 311.675769684 64 171.486348935 172.282285361 171.486348935 323.335476857 c 0
 171.490334867 339.522565799 173.123984874 355.996392698 176.466063783 372.706787243 c 0
 210.451029709 542.631616873 404.381729724 672 606 672 c 0
 676.905184535 672 740.784673502 656.006758177 792.875798806 627.466582438 c 0
 875.504345371 582.195277082 928.513650368 504.449215113 928.513650368 412.661693315 c 0
 928.509682141 396.546339767 926.84765227 379.861793021 923.555526529 363.401164321 c 0
 915.282549985 319.968037461 903.757683 283.309136517 876.33931384 253.398188343 c 0
 869.143129312 246.202003815 861.55263558 241.342734049 847.693811808 235.043268698 c 0
 829.139206978 227.091295199 810.250084623 224 796 224 c 0
 779.377101198 224 763.250637858 227.553150065 749.798166486 232.444957836 c 0
 749.428294091 232.579456889 748.736906982 232.853309425 748.252676815 233.068522833 c 0
 735.517812296 238.728462619 727.299301555 246.759572948 724.029437252 250.029437252 c 0
 717.496706748 256.562167755 714.266168694 268.400757269 714.201590132 268.895859582 c 0
 713.924289281 271.021832772 713.959411901 274.145136307 714.455981727 276.656093166 c 2
 767.443750957 544.594247008 l 2
 768.492318776 550.046799668 766.619238346 555.827030457 757.21142996 560.400576036 c 0
 754.761019256 561.59182745 751.829995858 562.591886837 748.461112853 563.231752954 c 0
 745.885544009 563.720941576 743.056204104 564 740 564 c 0
 726.32045207 564 712.766263436 558.199370533 704.278722466 550.364717329 c 0
 697.571167132 544.17312779 685.739722158 541.836575093 676.40614377 546.986135583 c 0
 650.880424971 561.069290783 620.059950658 570 583 570 c 0
 541.501985603 570 499.13882504 558.124309372 463.378395753 538.868693602 c 0
 391.057276057 499.926552227 340.948055623 434.462569448 326.522414554 363.235966673 c 0
 323.763999816 349.616293902 322.413703634 336.384362453 322.413703634 323.636620599 c 0
 322.413703634 270.148439367 346.186385609 225.184673326 389.460355484 195.870048572 c 0
 416.32307322 177.672723654 451.538567936 166 493 166 c 0
 545.409513946 166 594.896875917 184.108994149 636.687195291 211.969207064 c 0
 645.085043648 217.567772636 657.157931447 217.276055831 665.364425592 210.43731071 c 0
 675.752737751 201.780383911 686.045375569 195.430640847 699.133257195 190.195488196 c 0
 704.440334403 187.950186301 708.952012578 186.3115962 714.188690465 184.683101143 c 0
 732.93362041 178.853827998 753.787149815 176 777 176 c 0
 807.825622623 176 840.550809351 182.334450021 870.785364619 195.161231044 c 0
 895.511506879 205.234844558 918.601533863 219.674535649 936.4797474 238.404092687 c 0
 976.518347831 282.001679824 987.593248495 329.329721033 996.469666828 372.725543993 c 0
 1000.13771869 391.334197321 1001.92368493 409.625725439 1001.92368493 427.484365033 c 0
 1001.92368493 565.182775339 895.745730522 677.145414886 727.450639135 710.306741455 c 0
 695.369972061 716.628004117 661.091883589 720 625 720 c 0
 373.595091256 720 141.592834767 556.372025075 103.546907854 363.358542202 c 0
 99.8728964297 344.719654974 98.0840915649 326.401275086 98.0840915649 308.518954782 c 0
 98.0840915649 170.742896367 204.268986124 58.8516853056 372.549360865 25.6932585454 c 0
 404.630027939 19.3719958833 438.908116411 16 475 16 c 0
 543.131834725 16 608.007206356 28.0674990587 672.075772701 49.6550321939 c 0
 687.869536758 55.6196469256 698.559706724 67.5307361842 700.469834304 75.7349168163 c 0
 701.479163557 81.662492612 698.251800916 91.5731231512 680.254476043 94.4423767704 c 0
 678.009631142 94.8002649232 675.585990996 95 673 95 c 0
714.129009308 608.618733038 m 1
 681.63017252 618.440389522 644.998997037 624 606 624 c 0
 421.618270276 624 251.548970291 503.368383127 223.533936217 363.293212757 c 0
 220.792009519 349.583579266 219.489536199 336.279349003 219.486350102 323.340214677 c 0
 219.486350102 207.07215577 328.192075238 112 494 112 c 0
 544.198294662 112 593.819541205 120.62600829 638.779658096 136.549383022 c 0
 648.552756446 140.214294903 660.570102677 143 673 143 c 0
 680.813758536 143 688.451542454 142.049486674 695.650209051 140.228326866 c 1
 690.725498283 141.898379353 685.005952451 144.053307723 680.866742805 145.804511804 c 0
 669.872885316 150.202054799 657.583515835 156.941190716 648.808451898 162.86470034 c 1
 603.062274221 135.563772913 550.363201538 118 493 118 c 0
 442.461432064 118 397.67692678 132.327276346 362.539644516 156.129951428 c 0
 305.2920677 194.910567981 274.548409813 256.167588026 274.548409813 324.600081103 c 0
 274.548409813 340.337287328 276.174280819 356.453966731 279.477585446 372.764033327 c 0
 297.051944377 459.537430552 356.942723943 536.073447773 440.621604247 581.131306398 c 0
 482.86117496 603.875690628 532.498014397 618 583 618 c 0
 621.628663746 618 656.993556878 609.319809563 685.482837294 596.167009753 c 1
 694.238567755 601.685708502 703.802250226 605.836937707 714.129009308 608.618733038 c 1
815.344908247 553.446959227 m 1
 815.908731023 547.491864833 815.684668344 541.273533359 814.556249043 535.405752992 c 2
 763.851230149 279.010563114 l 2
 764.867380804 278.371322939 766.970989238 277.288649805 767.057075121 277.24783654 c 0
 776.540138292 273.980669341 786.834047611 272 796 272 c 0
 801.749915377 272 818.860793022 274.908704801 828.306188192 278.956731302 c 0
 835.557113714 282.252606539 841.091517926 286.187634013 841.882006531 286.846374517 c 0
 859.41281161 306.564755838 868.773090153 332.324073263 876.444473471 372.598835679 c 0
 879.192856559 386.340751122 880.526470802 399.766763437 880.526470802 412.816724414 c 0
 880.526470802 467.901676446 856.764757568 516.286322081 815.344908247 553.446959227 c 1
704.135246444 137.586121183 m 1
 728.981818243 128.345128255 748.671862769 106.068022998 748.671862769 78.0618056321 c 0
 748.671862769 74.2293593839 748.30314851 70.2896302232 747.528477771 66.2613423802 c 0
 741.085746394 35.658368337 715.849327407 14.498591979 687.949069024 4.35304347609 c 0
 620.222961725 -18.5696389941 549.08944799 -32 475 -32 c 0
 435.919469796 -32 398.536053578 -28.3501776759 363.269738324 -21.4012061559 c 0
 178.410996027 15.0238676346 50.0606609236 144.530443275 50.0606609236 308.461485484 c 0
 50.0606609236 329.336950532 52.1420195882 350.770650678 56.4530921455 372.641457798 c 0
 100.407165233 595.627974925 356.404908744 768 625 768 c 0
 664.080530204 768 701.463946422 764.350177676 736.730261676 757.401206156 c 0
 921.575514238 720.97879042 1049.93144562 591.543434952 1049.93144562 427.534363512 c 0
 1049.93144562 406.635470176 1047.84730613 385.175196888 1043.53033317 363.274456007 c 0
 1034.4067515 318.670278967 1021.48165217 259.998320176 971.5202526 205.595907313 c 0
 947.398466137 180.325464351 918.488493121 162.765155442 889.214635381 150.838768956 c 0
 853.449190649 135.665549979 814.174377377 128 777 128 c 0
 751.811730592 128 727.115783861 131.065258967 704.135246444 137.586121183 c 1
EndSplineSet
EndChar

StartChar: A
Encoding: 65 65 33
Width: 860
Flags: HW
HStem: -0 21G<103.45 133.16 726.84 756.55> 144 96<265.957 594.043> 716 20G<394.934 477.755>
LayerCount: 2
Back
SplineSet
149.991210938 192 m 5
 639.991210938 192 l 1029
56.34765625 48 m 1
 458.65234375 688 l 1
 528.65234375 688 l 1
 676.34765625 48 l 1025
EndSplineSet
Fore
SplineSet
283.42217862 264 m 1
 538.765604226 264 l 1
 469.69093894 560.477776844 l 1
 283.42217862 264 l 1
240 216 m 2
 237.194372155 216 232.283500103 216.949233541 228.866004099 218.738905596 c 0
 220.712752854 223.008594832 216.082401065 231.527598904 216.082401065 240.194345079 c 0
 216.082401065 244.518516652 217.235078172 248.87946706 219.677983958 252.76775877 c 2
 459.677983958 634.76775877 l 2
 462.518960107 639.289645806 467.325663698 643.156502859 472.737158004 644.874683083 c 0
 475.080563804 645.618727754 477.46237288 645.970724517 479.812182642 645.970724517 c 0
 490.647042571 645.970724517 500.801569015 638.486964289 503.373993103 627.445773262 c 2
 592.373993103 245.445773262 l 2
 592.408316647 245.224247688 592.998331894 241.499400704 592.998331894 240.044917584 c 0
 592.998331894 227.067208887 582.177423954 216 569 216 c 2
 240 216 l 2
47 -24 m 0
 41.0246251562 -24 35.1969013493 -23.4551249063 29.5821707332 -22.3886955082 c 0
 -1.5367986001 -16.4781387946 -28.7060009395 7.86159415345 -28.7060009395 40.7369266526 c 0
 -28.7060009395 44.586107644 -28.3335464229 48.5523006317 -27.5513685228 52.6196257122 c 0
 -25.4689929684 63.0315034843 -21.4724606679 69.8601807123 -17.4537300205 76.5580651246 c 2
 384.692420116 716.790741958 l 2
 401.901570165 744.03856287 434.6117345 760 468 760 c 2
 538 760 l 2
 570.882658551 760 604.341363183 742.877451912 611.436346433 709.176281478 c 2
 759.463659366 69.0581714983 l 2
 761.309389361 59.8295215205 761.250840167 51.8777325086 759.551368523 43.3803742878 c 0
 751.704156922 2.57487396125 708.867890002 -24 667 -24 c 0
 634.507214128 -24 599.796111792 -7.53045804369 592.544762497 26.913451107 c 2
 571.766514976 120 l 1
 193.301943396 120 l 1
 130.321959523 19.2320258029 l 2
 113.085151078 -8.05958756886 80.3940813067 -24 47 -24 c 0
47 24 m 0
 65.6059186933 24 82.9148489223 34.0595875689 89.678040477 44.7679741971 c 2
 159.648040704 156.71997456 l 2
 163.888162235 163.504169009 171.742834806 168 180 168 c 2
 591 168 l 2
 601.567028878 168 611.951159436 160.304818634 614.423558064 149.228472782 c 2
 639.455237503 37.086548893 l 2
 640.203888208 33.5304580437 647.492785872 24 667 24 c 0
 691.132109998 24 710.295843078 41.4251260387 712.448631477 52.6196257122 c 0
 712.766542479 54.2091807227 712.815858938 57.2708329395 712.512511731 59.0448724097 c 2
 564.563653567 698.823718522 l 2
 563.658636817 703.122548088 557.117341449 712 538 712 c 2
 468 712 l 2
 449.381856542 712 432.113062886 701.984606128 425.291733673 691.184168207 c 2
 23.4537300205 51.4419348754 l 2
 21.7082610666 48.5328199522 19.8234352235 44.3405196487 19.5376728201 43.3091709268 c 0
 18.5145906258 37.300827031 21.7483347426 27.4268552211 39.745523957 24.5576232296 c 0
 41.9903688576 24.1997350768 44.4140090041 24 47 24 c 0
EndSplineSet
EndChar

StartChar: B
Encoding: 66 66 34
Width: 870
Flags: HW
AnchorPoint: "above" 518 784 basechar 0
LayerCount: 2
Back
SplineSet
203.978515625 388 m 1
 503.978515625 388 l 2
 623.978515625 388 717.90234375 458 733.815429688 538 c 0
 749.728515625 618 683.65234375 688 563.65234375 688 c 2
 243.65234375 688 l 1
 116.34765625 48 l 1
 456.34765625 48 l 2
 586.34765625 48 674.25 138 690.163085938 218 c 0
 706.076171875 298 653.978515625 388 523.978515625 388 c 1024
EndSplineSet
Fore
SplineSet
294 664 m 2
 554 664 l 2
 597.93392087 664 633.183285501 653.112535874 658.461145877 634.154140593 c 0
 684.716981488 614.199705528 699.560848966 585.040064617 699.560848966 553.540767084 c 0
 699.560848966 546.874675531 698.89605376 540.103800471 697.533936217 533.293212757 c 0
 689.773616217 494.491612757 661.595793211 461.94206112 625.123610561 440.286702672 c 0
 595.209127205 423.028346889 558.102575845 412 514 412 c 2
 254 412 l 2
 238.205279984 412 227.881774835 427.527801679 230.448470008 440.617947057 c 2
 270.448470008 644.617947057 l 2
 272.769241977 656.453884098 284.260402155 664 294 664 c 2
313.751127454 616 m 1
 283.16289216 460 l 1
 514 460 l 2
 549.897424155 460 578.790872795 468.971653111 600.876389439 481.713297328 c 0
 628.404206789 498.05793888 646.226383783 521.508387243 650.466063783 542.706787243 c 0
 651.257488147 546.663909061 651.653549133 550.525289356 651.653549133 554.278976482 c 0
 651.653549133 570.452634392 644.300585321 584.626943697 629.538854123 595.845859407 c 0
 614.816714499 606.887464126 590.06607913 616 554 616 c 2
 313.751127454 616 l 1
162.451333044 100.632524647 m 2
 210.451333044 344.632524647 l 2
 212.779619149 356.467979014 224.281283907 364 234 364 c 2
 494 364 l 1
 508 364 l 1
 514 364 l 2
 553.170005502 364 583.535628501 353.717961609 606.122436893 337.405266659 c 0
 624.026078079 324.275929789 638.421151345 307.439294084 647.156108721 286.225826171 c 0
 653.496215125 271.168073462 656.289590055 255.322041024 656.289590055 239.890366845 c 0
 656.289590055 230.714727052 655.302001943 221.685582198 653.48519484 213.055748455 c 0
 648.590249032 189.804755869 636.814198802 165.632752818 619.952017077 144.2739893 c 0
 604.527447124 124.103397823 584.940840651 109.339015029 563.730193655 97.0591667684 c 0
 536.479299826 82.2982659445 505.403025077 72 466 72 c 2
 186 72 l 2
 170.212372004 72 159.871046571 87.5160684095 162.451333044 100.632524647 c 2
215.181294755 120 m 1
 466 120 l 2
 496.636812181 120 518.208451175 127.104827817 540.276075585 138.9439126 c 0
 557.039340434 148.736999564 571.449278253 159.866166133 582.047982923 173.7260107 c 0
 595.185801198 190.367247182 603.409750968 208.195244131 606.51480516 222.944251545 c 0
 607.676134311 228.460565013 608.280997453 234.132411272 608.280997453 239.799880348 c 0
 608.280997453 249.395934406 606.546937237 258.979439677 602.843891279 267.774173829 c 0
 597.578848655 280.560705916 589.973921921 289.724070211 577.877563107 298.594733341 c 0
 564.464371499 308.282038391 544.829994498 316 514 316 c 2
 508 316 l 1
 494 316 l 1
 253.738671804 316 l 1
 215.181294755 120 l 1
726.479359686 222.773266759 m 0
 728.699685676 233.874896705 729.750861961 244.612386527 729.750861961 254.947067617 c 0
 729.750861961 305.212698253 704.883846372 345.949336328 668.72376787 372.707794419 c 0
 662.407602049 377.381757127 659.10564588 384.720424503 659.10564588 392.095815541 c 0
 659.10564588 397.66960768 660.991476743 403.264373634 664.887334362 407.745835751 c 0
 666.437427994 409.528931174 668.862252168 411.462880059 670.249063103 412.332575052 c 0
 725.015216298 446.677450785 761.063486742 494.839857509 770.465510586 542.704706168 c 0
 772.341380119 551.927731371 773.269466911 560.982988753 773.269466911 569.81980737 c 0
 773.269466911 608.925176037 755.094673641 643.752841994 720.451948375 669.911634542 c 0
 686.625575237 695.931921571 636.120544868 712 573 712 c 2
 253 712 l 2
 229.439924445 712 210.334361651 696.351119198 207.50169946 683.132028974 c 2
 79.5513685228 43.3803742878 l 2
 78.3276688756 37.0171361225 83.2679121224 24 107 24 c 2
 447 24 l 2
 503.722527562 24 555.912445631 38.9535380977 599.267646074 62.9372660027 c 0
 633.134332686 82.1588989442 661.244018615 107.557492398 682.275008674 133.014531017 c 0
 706.054948672 163.660135969 720.375508084 193.125987546 726.479359686 222.773266759 c 0
773.520640314 213.226733241 m 0
 765.573428827 174.625991733 746.925148798 137.800624693 719.731811064 102.993152393 c 0
 694.65507592 72.4649530879 662.912385407 43.8676167302 622.732353926 21.0627339973 c 0
 572.087554369 -6.95353809772 512.277472438 -24 447 -24 c 2
 107 -24 l 2
 68.6291471725 -24 31.2539383898 1.5330603128 31.2539383898 40.3831351791 c 0
 31.2539383898 44.3288657066 31.6394653474 48.4119618374 32.4486314772 52.6196257122 c 2
 160.49830054 692.867971026 l 2
 169.665638349 735.648880802 212.560075555 760 253 760 c 2
 573 760 l 2
 643.879455132 760 705.374424763 742.068078429 749.548051625 708.088365458 c 0
 795.272777304 673.561531782 821.165467774 623.459421942 821.165467774 568.897725718 c 0
 821.165467774 557.198751613 819.975056552 545.294748924 817.534489414 533.295293832 c 0
 806.744613776 478.365017856 772.496922224 429.131433808 721.932519478 389.890291266 c 1
 754.933778237 356.336578635 777.616424637 308.826982993 777.616424637 253.948262787 c 0
 777.616424637 240.76901054 776.308245215 227.164757747 773.520640314 213.226733241 c 0
EndSplineSet
EndChar

StartChar: C
Encoding: 67 67 35
Width: 855
Flags: HW
AnchorPoint: "bottom" 395 40 basechar 0
AnchorPoint: "above" 543 784 basechar 0
LayerCount: 2
Back
SplineSet
671.583007812 200 m 0
 666.80859375 176 564.756835938 40 394.756835938 40 c 0
 224.756835938 40 113.966796875 186.850585938 150 368 c 0
 186.033203125 549.149414062 354.034179688 696 525.243164062 696 c 0
 695.243164062 696 726.374023438 576 726.374023438 576 c 1024
EndSplineSet
Fore
SplineSet
681 272 m 0
 686.975374844 272 692.803098651 271.455124906 698.417829267 270.388695508 c 0
 729.56383677 264.473003321 756.726149775 239.956567091 756.726149775 207.282826067 c 0
 756.726149775 203.488787647 756.359904127 199.584759428 755.591122064 195.587092702 c 0
 752.543864895 178.827178272 744.961149226 169.256666991 742.233033916 163.800436373 c 0
 736.414051294 153.326267652 729.827069265 142.332630248 719.697247667 129.951737183 c 0
 699.470066301 104.401613353 668.575742969 73.5929513464 627.688471245 45.2863786143 c 0
 568.620426282 4.14970444377 485.845923483 -32 385 -32 c 0
 308.301155748 -32 241.302417894 -9.54176168156 189.127583821 27.4154124536 c 0
 104.865557728 87.10101427 58.2110204808 183.387361391 58.2110204808 292.19692855 c 0
 58.2110204808 318.440329334 60.9249586352 345.412217565 66.479765448 372.774784458 c 0
 94.996560216 513.24640313 190.43400973 638.712206942 319.424020308 710.023757505 c 0
 384.483619361 745.701602147 458.286649789 768 535 768 c 0
 607.715855265 768 664.275971471 751.044621732 706.439241186 725.524747957 c 0
 742.771815077 703.505006205 766.965303586 677.186328417 782.754807722 654.629893936 c 0
 801.44829211 627.139475719 807.934276019 603.307690722 808.807565388 600.470979822 c 0
 809.105043737 599.55974583 809.399894235 598.376997152 809.533936217 597.706787243 c 0
 811.275906417 588.996936242 811.154526966 580.940861071 809.62444837 571.760389496 c 0
 801.642503807 530.254277765 758.889905558 504 717 504 c 0
 683.549644383 504 652.548820285 521.352846851 643.875570169 552.576547269 c 0
 643.800862437 552.845495105 643.689933082 553.28606332 643.651209119 553.441485521 c 0
 642.261865225 557.316410275 637.039500815 569.263400578 627.592815499 580.599422957 c 0
 610.439341232 601.020225655 582.462360203 624 516 624 c 0
 478.540406082 624 438.542820493 613.273892221 400.688064656 592.038297484 c 0
 323.63707042 549.335336823 253.972796808 463.628676109 233.517037169 363.209492429 c 0
 229.61913752 344.074348698 227.798178051 325.642293222 227.798178051 308.06501766 c 0
 227.798178051 233.840217839 260.269145394 174.857674167 305.935846025 142.539701413 c 0
 333.908189418 122.434579598 366.583154266 112 404 112 c 0
 468.459985759 112 518.192817495 140.664658222 553.05762873 170.941994294 c 0
 571.279107131 187.506974659 586.611477944 207.180828784 590.788045995 213.397461158 c 0
 603.985938465 250.219005019 641.872709015 272 681 272 c 0
681 224 m 0
 656.872946904 224 637.6899954 206.501234052 635.568154728 195.467662552 c 0
 634.472254307 189.768980365 631.463510394 184.755767472 626.66669157 181.002297967 c 0
 619.235969099 170.879568955 604.212811712 152.576587926 584.94237127 135.058005706 c 0
 543.807182505 99.3353417781 483.540014241 64 404 64 c 0
 357.416845734 64 314.091810582 77.5654204016 278.064153975 103.460298587 c 0
 218.526906481 145.59435066 179.853964567 220.001666788 179.853964567 308.418276413 c 0
 179.853964567 329.181931038 181.986749619 350.718188168 186.482962831 372.790507571 c 0
 210.027203192 488.371323891 288.36292958 584.664663177 377.311935344 633.961702516 c 0
 421.457179507 658.726107779 469.459593918 672 516 672 c 0
 595.525903031 672 639.589542925 640.945388444 664.376916755 611.436610074 c 0
 681.664392194 590.691639547 687.957596527 573.915120405 690.322567334 564.782579166 c 0
 691.892948131 560.34034415 698.95014331 552 717 552 c 0
 740.804529964 552 759.992592253 569.070008555 762.382364085 580.284704589 c 0
 762.697735456 582.427993165 762.812452787 585.715039303 762.602703734 587.440141136 c 0
 761.227908894 592.023684223 756.583509199 607.754934121 743.245192278 627.370106064 c 0
 731.034696414 644.813671583 711.228184923 666.494993795 681.560758814 684.475252043 c 0
 647.724028529 704.955378268 600.284144735 720 535 720 c 0
 467.694820894 720 401.557077759 700.320715628 342.539982669 667.956502192 c 0
 225.599304679 603.306371271 139.001489446 488.743989651 113.520234552 363.225215542 c 0
 108.531516024 338.651157609 106.115447487 314.68027876 106.115447487 291.554331542 c 0
 106.115447487 196.869774199 146.616703905 116.349050407 216.872416179 66.5845875464 c 0
 260.697582106 35.5417616816 317.698844252 16 385 16 c 0
 474.141198942 16 547.408913596 47.8707286856 600.28414991 84.6945539757 c 0
 637.448375122 110.423632969 664.52311714 137.589776257 682.302752333 160.048262817 c 0
 690.257598634 169.77085274 694.822541138 177.346270273 699.74262843 186.156484563 c 0
 705.191593147 196.68514835 707.462936614 199.210230026 708.408877936 204.412907298 c 0
 709.651028627 210.872090891 706.360354551 220.02200891 689.461112853 223.231752954 c 0
 686.885544009 223.720941576 684.056204104 224 681 224 c 0
EndSplineSet
EndChar

StartChar: D
Encoding: 68 68 36
Width: 870
Flags: HW
AnchorPoint: "above" 518 784 basechar 0
LayerCount: 2
Back
SplineSet
116.34765625 48 m 1
 243.65234375 688 l 1
 503.65234375 688 l 2
 583.65234375 688 770.921875 624 720 368 c 0
 669.07421875 111.98046875 456.34765625 48 376.34765625 48 c 2
 116.34765625 48 l 1
EndSplineSet
Fore
SplineSet
160.49830054 692.867971026 m 2
 169.667407962 735.657138994 212.573628999 760 253 760 c 2
 513 760 l 2
 552.428888302 760 598.717906238 751.30250277 643.789910426 730.91278659 c 0
 680.73095703 714.615266029 718.026111798 688.312984434 747.51920453 652.265871095 c 0
 787.699350883 603.885694875 812.968467524 538.679327649 812.968467524 455.613746378 c 0
 812.968467524 427.008998829 809.97189991 396.286395591 803.555774209 363.403751374 c 0
 778.468961171 234.833834554 713.942502941 142.451085859 637.180000861 80.4101595201 c 0
 595.303652106 45.8621717976 549.867022453 20.4431221837 507.476135011 4.54653939315 c 0
 455.107902452 -15.3533889794 406.451754177 -24 367 -24 c 2
 107 -24 l 2
 101.024625156 -24 95.1969013493 -23.4551249063 89.5821707332 -22.3886955082 c 0
 58.4632013999 -16.4781387946 31.2939990605 7.86159415345 31.2939990605 40.7369266526 c 0
 31.2939990605 44.586107644 31.6664535771 48.5523006317 32.4486314772 52.6196257122 c 2
 160.49830054 692.867971026 l 2
207.50169946 683.132028974 m 2
 79.5513685228 43.3803742878 l 2
 78.3824427758 37.3019604035 81.6395062445 27.9780175299 98.5388871469 24.7682470463 c 0
 101.114455991 24.2790584243 103.943795896 24 107 24 c 2
 367 24 l 2
 399.548245823 24 442.892097548 31.3533889794 490.523864989 49.4534606068 c 0
 528.132977547 63.5568778163 568.696347894 86.1378282024 606.819999139 117.58984048 c 0
 676.057497059 173.548914141 733.531038829 255.166165446 756.444225791 372.596248626 c 0
 762.412139733 403.181807578 765.142662164 431.125224329 765.142662164 456.663646546 c 0
 765.142662164 529.34356849 743.027683358 582.545018999 710.48079547 621.734128905 c 0
 685.973888202 651.687015566 655.26904297 673.384733971 624.210089574 687.08721341 c 0
 585.282093762 704.69749723 545.571111698 712 513 712 c 2
 253 712 l 2
 229.426371001 712 210.332592038 696.342861006 207.50169946 683.132028974 c 2
313.703690513 616 m 1
 215.233102277 120 l 1
 386 120 l 2
 394.958379973 120 422.011974532 123.472238712 451.174954271 135.319699231 c 0
 475.807885929 144.793903715 501.998655132 158.364666731 526.946480468 178.692524412 c 0
 571.983311046 214.538165076 616.504903972 272.900988185 636.466063783 372.706787243 c 0
 641.839949438 399.576215518 644.176510845 423.207823218 644.176510845 444.041684322 c 0
 644.176510845 500.587349104 626.964314221 536.523512941 606.550617126 560.648791326 c 0
 591.213439611 579.39423051 571.921172954 592.127366533 551.827335652 601.260928943 c 0
 528.380707102 612.550046393 503.131976984 616 494 616 c 2
 313.703690513 616 l 1
270.459429923 644.67349553 m 2
 272.340533211 654.148682462 281.935067978 664 294 664 c 2
 494 664 l 2
 510.868023016 664 541.619292898 659.449953607 572.172664348 644.739071057 c 0
 596.078827046 633.872633467 622.786560389 616.60576949 643.449382874 591.351208674 c 0
 671.497401693 558.203550071 691.941671212 509.917347576 691.941671212 442.710925676 c 0
 691.941671212 418.708995683 689.334062766 392.293845502 683.533936217 363.293212757 c 0
 661.495096028 253.099011815 610.016688954 183.461834924 557.053519532 141.307475588 c 0
 528.001344868 117.635333269 496.192114071 101.206096285 468.825045729 90.6803007688 c 0
 433.988025468 76.5277612878 403.041620027 72 386 72 c 2
 186 72 l 2
 175.323636194 72 159.066785991 83.5846223902 162.459429923 100.67349553 c 2
 270.459429923 644.67349553 l 2
EndSplineSet
EndChar

StartChar: E
Encoding: 69 69 37
Width: 870
Flags: HW
AnchorPoint: "above" 518 784 basechar 0
AnchorPoint: "bottom" 371 48 basechar 0
LayerCount: 2
Back
SplineSet
186.478515625 388 m 1
 543.978515625 388 l 1025
763.65234375 688 m 1
 243.65234375 688 l 1
 116.34765625 48 l 1
 656.34765625 48 l 1025
EndSplineSet
Fore
SplineSet
160.49830054 692.867971026 m 2
 169.667407962 735.657138994 212.573628999 760 253 760 c 2
 773 760 l 2
 778.975374844 760 784.803098651 759.455124906 790.417829267 758.388695508 c 0
 821.548200189 752.475973243 848.714494068 728.061709649 848.714494068 695.271312831 c 0
 848.714494068 691.445430258 848.344665614 687.50551916 847.568154728 683.467662552 c 0
 839.606537168 642.067251245 795.567895066 616 754 616 c 2
 313.751127454 616 l 1
 283.16289216 460 l 1
 554 460 l 2
 559.975289557 460 565.796804737 459.455067326 571.401154763 458.382140008 c 0
 602.730238058 452.384329532 628.724050384 427.674563299 628.724050384 395.385642391 c 0
 628.724050384 391.5154784 628.350609681 387.536428309 627.568154728 383.467662552 c 0
 619.606537168 342.067251245 575.567895066 316 534 316 c 2
 253.738671804 316 l 1
 215.181294755 120 l 1
 666 120 l 2
 671.975289557 120 677.796804737 119.455067326 683.401154763 118.382140008 c 0
 714.730238058 112.384329532 740.724050384 87.6745632985 740.724050384 55.3856423915 c 0
 740.724050384 51.5154784004 740.350609681 47.5364283092 739.568154728 43.4676625524 c 0
 731.6899954 2.50123405153 688.872946904 -24 647 -24 c 2
 107 -24 l 2
 101.024625156 -24 95.1969013493 -23.4551249063 89.5821707332 -22.3886955082 c 0
 58.4632013999 -16.4781387946 31.2939990605 7.86159415345 31.2939990605 40.7369266526 c 0
 31.2939990605 44.586107644 31.6664535771 48.5523006317 32.4486314772 52.6196257122 c 2
 160.49830054 692.867971026 l 2
207.50169946 683.132028974 m 2
 79.5513685228 43.3803742878 l 2
 78.3824427758 37.3019604035 81.6395062445 27.9780175299 98.5388871469 24.7682470463 c 0
 101.114455991 24.2790584243 103.943795896 24 107 24 c 2
 647 24 l 2
 671.127053096 24 690.3100046 41.4987659485 692.431845272 52.5323374476 c 0
 693.752918735 59.4019194548 690.545558629 68.142659262 674.375682677 71.2383084538 c 0
 671.854386399 71.7209991564 669.056289391 72 666 72 c 2
 186 72 l 2
 175.403831898 72 159.085245027 83.5215772254 162.451333044 100.632524647 c 2
 210.451333044 344.632524647 l 2
 212.327257704 354.168475001 221.937707669 364 234 364 c 2
 534 364 l 2
 558.432104934 364 578.393462832 381.932748755 580.431845272 392.532337448 c 0
 581.752918735 399.401919455 578.545558629 408.142659262 562.375682677 411.238308454 c 0
 559.854386399 411.720999156 557.056289391 412 554 412 c 2
 254 412 l 2
 243.43235212 412 227.091850463 423.499187379 230.448470008 440.617947057 c 2
 270.448470008 644.617947057 l 2
 272.322509475 654.175548339 281.938682154 664 294 664 c 2
 754 664 l 2
 778.432104934 664 798.393462832 681.932748755 800.431845272 692.532337448 c 0
 801.631690753 698.771533946 798.360434975 708.021993634 781.461112853 711.231752954 c 0
 778.885544009 711.720941576 776.056204104 712 773 712 c 2
 253 712 l 2
 229.426371001 712 210.332592038 696.342861006 207.50169946 683.132028974 c 2
EndSplineSet
EndChar

StartChar: F
Encoding: 70 70 38
Width: 830
Flags: HW
AnchorPoint: "above" 498 784 basechar 0
LayerCount: 2
Back
SplineSet
116.34765625 48 m 1
 243.65234375 688 l 1
 743.65234375 688 l 1025
186.478515625 388 m 1
 553.978515625 388 l 1025
EndSplineSet
Fore
SplineSet
160.49830054 692.867971026 m 2
 169.667407962 735.657138994 212.573628999 760 253 760 c 2
 753 760 l 2
 758.975374844 760 764.803098651 759.455124906 770.417829267 758.388695508 c 0
 801.548200189 752.475973243 828.714494068 728.061709649 828.714494068 695.271312831 c 0
 828.714494068 691.445430258 828.344665614 687.50551916 827.568154728 683.467662552 c 0
 819.606537168 642.067251245 775.567895066 616 734 616 c 2
 313.751127454 616 l 1
 283.16289216 460 l 1
 564 460 l 2
 569.975289557 460 575.796804737 459.455067326 581.401154763 458.382140008 c 0
 612.730238058 452.384329532 638.724050384 427.674563299 638.724050384 395.385642391 c 0
 638.724050384 391.5154784 638.350609681 387.536428309 637.568154728 383.467662552 c 0
 629.606537168 342.067251245 585.567895066 316 544 316 c 2
 253.701743961 316 l 1
 199.554354285 43.3959002498 l 2
 191.701638012 2.5617756319 148.868789473 -24 107 -24 c 0
 101.024625156 -24 95.1969013493 -23.4551249063 89.5821707332 -22.3886955082 c 0
 58.4632013999 -16.4781387946 31.2939990605 7.86159415345 31.2939990605 40.7369266526 c 0
 31.2939990605 44.586107644 31.6664535771 48.5523006317 32.4486314772 52.6196257122 c 2
 160.49830054 692.867971026 l 2
207.50169946 683.132028974 m 2
 79.5513685228 43.3803742878 l 2
 78.3824427758 37.3019604035 81.6395062445 27.9780175299 98.5388871469 24.7682470463 c 0
 101.114455991 24.2790584243 103.943795896 24 107 24 c 0
 131.131210527 24 150.298361988 41.4382243681 152.445645715 52.6040997502 c 2
 210.459882914 344.675776681 l 2
 212.34126935 354.147584255 221.934925299 364 234 364 c 2
 544 364 l 2
 568.432104934 364 588.393462832 381.932748755 590.431845272 392.532337448 c 0
 591.752918735 399.401919455 588.545558629 408.142659262 572.375682677 411.238308454 c 0
 569.854386399 411.720999156 567.056289391 412 564 412 c 2
 254 412 l 2
 243.43235212 412 227.091850463 423.499187379 230.448470008 440.617947057 c 2
 270.448470008 644.617947057 l 2
 272.322509475 654.175548339 281.938682154 664 294 664 c 2
 734 664 l 2
 758.432104934 664 778.393462832 681.932748755 780.431845272 692.532337448 c 0
 781.631690753 698.771533946 778.360434975 708.021993634 761.461112853 711.231752954 c 0
 758.885544009 711.720941576 756.056204104 712 753 712 c 2
 253 712 l 2
 229.426371001 712 210.332592038 696.342861006 207.50169946 683.132028974 c 2
EndSplineSet
EndChar

StartChar: G
Encoding: 71 71 39
Width: 840
Flags: HW
AnchorPoint: "above" 543 784 basechar 0
LayerCount: 2
Back
SplineSet
726.374023438 576 m 0
 726.374023438 576 695.243164062 696 525.243164062 696 c 0
 354.034179688 696 186.033203125 549.149414062 150 368 c 0
 113.966796875 186.850585938 224.756835938 40 394.756835938 40 c 0
 554.756835938 40 647.03515625 152 647.03515625 152 c 1
 685.2265625 344 l 1
 475.2265625 344 l 1025
EndSplineSet
Fore
SplineSet
695 416 m 2
 701.319007335 416 707.415670291 415.42943388 713.238825014 414.300858032 c 0
 746.449333589 407.864385078 769.79986422 381.759076883 769.79986422 351.515846657 c 0
 769.79986422 347.479503742 769.383937794 343.36945496 768.520014174 339.222621581 c 2
 731.037645195 149.838020428 l 2
 726.985312821 128.45188936 721.244854212 125.051634616 715.367419227 116.823225636 c 0
 709.821532732 109.42871031 661.068740197 49.4400105424 563.669627026 6.03388402043 c 0
 515.015148143 -15.120237233 454.016370207 -32 385 -32 c 0
 308.301155748 -32 241.302417894 -9.54176168156 189.127583821 27.4154124536 c 0
 104.865557728 87.10101427 58.2110204808 183.387361391 58.2110204808 292.19692855 c 0
 58.2110204808 318.440329334 60.9249586352 345.412217565 66.479765448 372.774784458 c 0
 94.996560216 513.24640313 190.43400973 638.712206942 319.424020308 710.023757505 c 0
 384.483619361 745.701602147 458.286649789 768 535 768 c 0
 607.715855265 768 664.275971471 751.044621732 706.439241186 725.524747957 c 0
 742.771815077 703.505006205 766.965303586 677.186328417 782.754807722 654.629893936 c 0
 801.44829211 627.139475719 807.934276019 603.307690722 808.807565388 600.470979822 c 0
 809.105043737 599.55974583 809.399894235 598.376997152 809.533936217 597.706787243 c 0
 811.275906417 588.996936242 811.154526966 580.940861071 809.62444837 571.760389496 c 0
 801.642503807 530.254277765 758.889905558 504 717 504 c 0
 683.549644383 504 652.548820285 521.352846851 643.875570169 552.576547269 c 0
 643.800862437 552.845495105 643.689933082 553.28606332 643.651209119 553.441485521 c 0
 642.261865225 557.316410275 637.039500815 569.263400578 627.592815499 580.599422957 c 0
 610.439341232 601.020225655 582.462360203 624 516 624 c 0
 478.540406082 624 438.542820493 613.273892221 400.688064656 592.038297484 c 0
 323.63707042 549.335336823 253.972796808 463.628676109 233.517037169 363.209492429 c 0
 229.61913752 344.074348698 227.798178051 325.642293222 227.798178051 308.06501766 c 0
 227.798178051 233.840217839 260.269145394 174.857674167 305.935846025 142.539701413 c 0
 333.908189418 122.434579598 366.583154266 112 404 112 c 0
 466.003954369 112 512.818065558 134.56756281 543.91578833 157.433535437 c 0
 553.859668157 164.536306742 561.635217145 171.646445943 568.005650765 177.464069952 c 1
 586.768507111 272 l 1
 466 272 l 2
 460.024625156 272 454.196901349 272.544875094 448.582170733 273.611304492 c 0
 417.451799811 279.524026757 390.285505932 303.938290351 390.285505932 336.728687169 c 0
 390.285505932 340.554569742 390.655334386 344.49448084 391.431845272 348.532337448 c 0
 399.393462832 389.932748755 443.432104934 416 485 416 c 2
 695 416 l 2
695 368 m 2
 485 368 l 2
 460.567895066 368 440.606537168 350.067251245 438.568154728 339.467662552 c 0
 437.368309247 333.228466054 440.639565025 323.978006366 457.538887147 320.768247046 c 0
 460.114455991 320.279058424 462.943795896 320 466 320 c 2
 616 320 l 2
 626.673874658 320 642.932643618 308.417336366 639.540822418 291.327775703 c 2
 613.540822418 160.327775703 l 2
 612.648967227 155.834197626 609.870640339 150.551872536 605.944732132 147.062176352 c 0
 597.810222355 139.831500995 587.365012919 129.481322598 572.08421167 118.566464563 c 0
 535.181934442 91.4324371897 477.996045631 64 404 64 c 0
 357.416845734 64 314.091810582 77.5654204016 278.064153975 103.460298587 c 0
 218.526906481 145.59435066 179.853964567 220.001666788 179.853964567 308.418276413 c 0
 179.853964567 329.181931038 181.986749619 350.718188168 186.482962831 372.790507571 c 0
 210.027203192 488.371323891 288.36292958 584.664663177 377.311935344 633.961702516 c 0
 421.457179507 658.726107779 469.459593918 672 516 672 c 0
 595.525903031 672 639.589542925 640.945388444 664.376916755 611.436610074 c 0
 681.664392194 590.691639547 687.957596527 573.915120405 690.322567334 564.782579166 c 0
 691.892948131 560.34034415 698.95014331 552 717 552 c 0
 740.804529964 552 759.992592253 569.070008555 762.382364085 580.284704589 c 0
 762.697735456 582.427993165 762.812452787 585.715039303 762.602703734 587.440141136 c 0
 761.227908894 592.023684223 756.583509199 607.754934121 743.245192278 627.370106064 c 0
 731.034696414 644.813671583 711.228184923 666.494993795 681.560758814 684.475252043 c 0
 647.724028529 704.955378268 600.284144735 720 535 720 c 0
 467.694820894 720 401.557077759 700.320715628 342.539982669 667.956502192 c 0
 225.599304679 603.306371271 139.001489446 488.743989651 113.520234552 363.225215542 c 0
 108.531516024 338.651157609 106.115447487 314.68027876 106.115447487 291.554331542 c 0
 106.115447487 196.869774199 146.616703905 116.349050407 216.872416179 66.5845875464 c 0
 260.697582106 35.5417616816 317.698844252 16 385 16 c 0
 445.983629793 16 500.984851857 31.120237233 544.330372974 49.9661159796 c 0
 628.662634743 87.5489717679 673.386041659 141.047305338 676.720351514 145.299337714 c 0
 680.147150736 150.103529114 683.048265103 155.022486235 683.284848294 155.686764386 c 0
 683.324005156 155.936887765 683.395071735 156.348338801 683.45667862 156.65961569 c 2
 721.479985826 348.777378419 l 2
 722.788748556 355.05943952 720.529760874 363.994643928 704.105967104 367.177711847 c 0
 701.460848806 367.690357787 698.430992665 368 695 368 c 2
EndSplineSet
EndChar

StartChar: H
Encoding: 72 72 40
Width: 890
Flags: HW
AnchorPoint: "above" 528 784 basechar 0
LayerCount: 2
Back
SplineSet
186.478515625 388 m 1
 711.478515625 388 l 1025
773.65234375 688 m 1
 646.34765625 48 l 1025
116.34765625 48 m 1
 243.65234375 688 l 1025
EndSplineSet
Fore
SplineSet
690.445171642 692.601634569 m 2
 698.298761935 733.440304095 741.13106771 760 783 760 c 0
 788.975374844 760 794.803098651 759.455124906 800.417829267 758.388695508 c 0
 831.5367986 752.478138795 858.706000939 728.138405847 858.706000939 695.263073347 c 0
 858.706000939 691.413892356 858.333546423 687.447699368 857.551368523 683.380374288 c 2
 729.551368523 43.3803742878 l 2
 721.704156922 2.57487396125 678.867890002 -24 637 -24 c 0
 631.024625156 -24 625.196901349 -23.4551249063 619.582170733 -22.3886955082 c 0
 588.461175048 -16.4777539211 561.292489972 7.87522688809 561.292489972 40.735471874 c 0
 561.292489972 44.5805072852 561.66447693 48.5420220663 562.445645715 52.6040997502 c 2
 614.764009464 316 l 1
 253.701743961 316 l 1
 199.554354285 43.3959002498 l 2
 191.701638012 2.5617756319 148.868789473 -24 107 -24 c 0
 101.024625156 -24 95.1969013493 -23.4551249063 89.5821707332 -22.3886955082 c 0
 58.4632013999 -16.4781387946 31.2939990605 7.86159415345 31.2939990605 40.7369266526 c 0
 31.2939990605 44.586107644 31.6664535771 48.5523006317 32.4486314772 52.6196257122 c 2
 160.448631477 692.619625712 l 2
 168.295843078 733.425126039 211.132109998 760 253 760 c 0
 258.975374844 760 264.803098651 759.455124906 270.417829267 758.388695508 c 0
 301.539146757 752.477692799 328.707749701 728.122608167 328.707749701 695.264759541 c 0
 328.707749701 691.420382298 328.335836963 687.459610176 327.554828358 683.398365431 c 2
 283.229755852 460 l 1
 644.294053672 460 l 1
 690.445171642 692.601634569 l 2
737.554828358 683.398365431 m 2
 687.541094716 431.329147874 l 2
 685.660320223 421.850044433 676.06476612 412 664 412 c 2
 254 412 l 2
 243.328812069 412 227.067972231 423.580549538 230.458905284 440.670852126 c 2
 280.445171642 692.601634569 l 2
 281.620470312 698.713187651 278.36048164 708.021984771 261.461112853 711.231752954 c 0
 258.885544009 711.720941576 256.056204104 712 253 712 c 0
 228.867890002 712 209.704156922 694.574873961 207.551368523 683.380374288 c 2
 79.5513685228 43.3803742878 l 2
 78.3824427758 37.3019604035 81.6395062445 27.9780175299 98.5388871469 24.7682470463 c 0
 101.114455991 24.2790584243 103.943795896 24 107 24 c 0
 131.131210527 24 150.298361988 41.4382243681 152.445645715 52.6040997502 c 2
 210.459882914 344.675776681 l 2
 212.34126935 354.147584255 221.934925299 364 234 364 c 2
 644 364 l 2
 654.68083057 364 670.934237162 352.411862321 667.540117086 335.324223319 c 2
 609.554354285 43.3959002498 l 2
 608.379928845 37.2888879648 611.6395167 27.9780155441 628.538887147 24.7682470463 c 0
 631.114455991 24.2790584243 633.943795896 24 637 24 c 0
 661.132109998 24 680.295843078 41.4251260387 682.448631477 52.6196257122 c 2
 810.448631477 692.619625712 l 2
 811.617557224 698.698039597 808.360493755 708.02198247 791.461112853 711.231752954 c 0
 788.885544009 711.720941576 786.056204104 712 783 712 c 0
 758.86893229 712 739.701238065 694.559695905 737.554828358 683.398365431 c 2
EndSplineSet
EndChar

StartChar: I
Encoding: 73 73 41
Width: 420
Flags: HW
HStem: 0 21G<193.442 226.558> 716 20G<193.442 226.558>
VStem: 150 120<7.56638 728.434>
AnchorPoint: "above" 293 784 basechar 0
LayerCount: 2
Back
SplineSet
273.65234375 688 m 1
 146.34765625 48 l 1025
EndSplineSet
Fore
SplineSet
190.448631477 692.619625712 m 2
 198.295843078 733.425126039 241.132109998 760 283 760 c 0
 288.975374844 760 294.803098651 759.455124906 300.417829267 758.388695508 c 0
 331.5367986 752.478138795 358.706000939 728.138405847 358.706000939 695.263073347 c 0
 358.706000939 691.413892356 358.333546423 687.447699368 357.551368523 683.380374288 c 2
 229.551368523 43.3803742878 l 2
 221.704156922 2.57487396125 178.867890002 -24 137 -24 c 0
 131.024625156 -24 125.196901349 -23.4551249063 119.582170733 -22.3886955082 c 0
 88.4632013999 -16.4781387946 61.2939990605 7.86159415345 61.2939990605 40.7369266526 c 0
 61.2939990605 44.586107644 61.6664535771 48.5523006317 62.4486314772 52.6196257122 c 2
 190.448631477 692.619625712 l 2
237.551368523 683.380374288 m 2
 109.551368523 43.3803742878 l 2
 108.382442776 37.3019604035 111.639506245 27.9780175299 128.538887147 24.7682470463 c 0
 131.114455991 24.2790584243 133.943795896 24 137 24 c 0
 161.132109998 24 180.295843078 41.4251260387 182.448631477 52.6196257122 c 2
 310.448631477 692.619625712 l 2
 311.617557224 698.698039597 308.360493755 708.02198247 291.461112853 711.231752954 c 0
 288.885544009 711.720941576 286.056204104 712 283 712 c 0
 258.867890002 712 239.704156922 694.574873961 237.551368523 683.380374288 c 2
EndSplineSet
EndChar

StartChar: J
Encoding: 74 74 42
Width: 680
Flags: HW
AnchorPoint: "above" 423 784 basechar 0
LayerCount: 2
Back
SplineSet
102.49609375 280 m 1
 89.765625 216 l 1
 89.765625 216 l 1
 70.4306640625 118.797851562 139.823242188 40 244.756835938 40 c 0
 349.690429688 40 452.568359375 129.54296875 474.5390625 240 c 2
 563.65234375 688 l 1025
EndSplineSet
Fore
SplineSet
18.4213294649 284.477655248 m 2
 26.4023342602 325.978880184 70.428928477 352 112 352 c 0
 117.975289557 352 123.796804737 351.455067326 129.401154763 350.382140008 c 0
 160.73765431 344.382909724 186.729275921 319.626151954 186.729275921 287.389940888 c 0
 186.729275921 283.534624587 186.357513555 279.572328456 185.578670535 275.522344752 c 2
 173.562289328 211.434978312 l 2
 172.13955157 204.321289525 171.472252051 197.53744531 171.472252051 191.100483011 c 0
 171.472252051 160.423235777 186.628498343 137.624651129 207.400450122 124.548929671 c 0
 221.677707316 116.306143073 236.47242528 112 254 112 c 0
 270.068373856 112 287.796227168 115.954156376 305.197639316 125.897820461 c 0
 342.566515033 146.754867372 381.031055976 191.662782882 391.455656252 244.654500951 c 2
 480.445712379 692.6044464 l 2
 488.298305748 733.43793192 531.131230609 760 573 760 c 0
 578.975374844 760 584.803098651 759.455124906 590.417829267 758.388695508 c 0
 621.538779701 752.477762516 648.707476327 728.125077535 648.707476327 695.264495594 c 0
 648.707476327 691.419367631 648.335478932 687.457748416 647.554287621 683.3955536 c 2
 558.544407025 235.34587303 l 2
 540.013980104 141.603713313 475.417699974 57.2137580211 386.580824941 7.97886342454 c 0
 341.339547846 -16.7961216513 289.53395717 -32 235 -32 c 0
 183.008131948 -32 136.644919324 -18.9999967511 99.5607588138 3.4752520427 c 0
 37.5908374229 41.0327801584 1.97698109919 104.675541085 1.97698109919 176.247191338 c 0
 1.97698109919 190.744773763 3.43824317592 205.567684206 6.43771067229 220.565021688 c 2
 18.4213294649 284.477655248 l 2
65.5786705351 275.522344752 m 2
 53.5622893277 211.434978312 l 2
 51.0906313224 199.076688286 49.8862275258 187.017195622 49.8862275258 175.343248129 c 0
 49.8862275258 119.983008026 76.9714604505 73.2930999183 124.439241186 44.5247479573 c 0
 153.355080676 26.9999967511 190.991868052 16 235 16 c 0
 280.46604283 16 324.660452154 28.7961216513 363.419175059 50.0211365755 c 0
 440.582300026 92.7862419789 495.986019896 166.396286687 511.455592975 244.65412697 c 2
 600.445712379 692.6044464 l 2
 601.620015026 698.710820165 598.360483534 708.021984412 581.461112853 711.231752954 c 0
 578.885544009 711.720941576 576.056204104 712 573 712 c 0
 548.868769391 712 529.701694252 694.56206808 527.554287621 683.3955536 c 2
 438.539979531 235.323530852 l 2
 424.972891861 166.357501865 377.428970741 111.24261306 328.802360684 84.1021795395 c 0
 304.203772832 70.0458436239 277.931626144 64 254 64 c 0
 227.481561145 64 203.556421396 71.1224585809 182.60840259 83.4448225846 c 0
 146.961731655 105.461884045 123.517335469 144.880068968 123.517335469 191.630075822 c 0
 123.517335469 201.007168493 124.460553535 210.679236 126.437710672 220.565021688 c 2
 138.421329465 284.477655248 l 2
 139.761772749 291.447960328 136.545545259 300.142661822 120.375682677 303.238308454 c 0
 117.854386399 303.720999156 115.056289391 304 112 304 c 0
 87.571071523 304 67.5976657398 286.021119816 65.5786705351 275.522344752 c 2
EndSplineSet
EndChar

StartChar: K
Encoding: 75 75 43
Width: 840
Flags: HW
AnchorPoint: "above" 503 784 basechar 0
LayerCount: 2
Back
SplineSet
656.34765625 48 m 1
 390.627929688 434 l 1025
763.65234375 688 m 1
 165.393554688 282 l 1025
243.65234375 688 m 1
 116.34765625 48 l 1025
EndSplineSet
Fore
SplineSet
739.551368523 43.3803742878 m 0
 731.704156922 2.57487396125 688.867890002 -24 647 -24 c 0
 621.205506499 -24 595.831696975 -14.0141607678 582.133330225 6.53338935763 c 2
 360.752580175 327.770988365 l 1
 239.6265898 245.665451265 l 1
 199.555481391 43.4017612019 l 2
 191.70068714 2.55683109564 148.869129018 -24 107 -24 c 0
 101.024625156 -24 95.1969013493 -23.4551249063 89.5821707332 -22.3886955082 c 0
 58.4632013999 -16.4781387946 31.2939990605 7.86159415345 31.2939990605 40.7369266526 c 0
 31.2939990605 44.586107644 31.6664535771 48.5523006317 32.4486314772 52.6196257122 c 2
 160.448631477 692.619625712 l 2
 168.295843078 733.425126039 211.132109998 760 253 760 c 0
 258.975374844 760 264.803098651 759.455124906 270.417829267 758.388695508 c 0
 301.535792974 752.478329797 328.705252075 728.145171723 328.705252075 695.262352917 c 0
 328.705252075 691.411113801 328.332565386 687.442597976 327.549886376 683.372667125 c 2
 280.081273414 446.834155075 l 1
 714.516930163 741.854642474 l 2
 714.799972597 742.046853485 715.20606125 742.307122349 715.421661784 742.439799601 c 0
 731.201543841 752.150496252 751.03242528 760 773 760 c 0
 778.975374844 760 784.803098651 759.455124906 790.417829267 758.388695508 c 0
 821.491755089 752.486694098 848.672495574 728.441656473 848.672495574 695.231805889 c 0
 848.672495574 691.289931473 848.289553567 687.218936517 847.484726367 683.033835076 c 0
 842.620888548 661.957204528 829.669307163 646.042341942 812.576846881 634.209100208 c 2
 501.457617285 422.723219063 l 1
 731.070236276 89.1707313917 l 2
 737.534753017 78.8275046063 740.833712513 67.6946582931 740.833712513 56.0738920893 c 0
 740.833712513 51.9009784253 740.408323513 47.6651492409 739.551368523 43.3803742878 c 0
692.448631477 52.6196257122 m 0
 693.205662653 56.4047815919 692.652847531 59.7124064892 690.869792752 62.9163869332 c 2
 448.231167495 415.391426916 l 2
 445.799947155 418.923199673 444.403386277 423.759732801 444.403386277 428.804263294 c 0
 444.403386277 436.18570619 447.393590824 444.012496419 454.50784004 448.84846643 c 2
 785.423153119 673.790899792 l 2
 794.104825982 679.801288697 798.762198129 686.581810972 800.50515749 692.933341991 c 0
 801.392724231 698.91923572 797.929429666 708.894884876 779.637826611 711.536033228 c 0
 777.567635155 711.834950864 775.350892989 712 773 712 c 0
 763.080478388 712 751.527086412 708.167289318 741.014090176 701.826878584 c 2
 258.483069837 374.145357526 l 2
 254.33832309 371.330705491 247.940424557 369.474479128 242.138540332 370.171192884 c 0
 228.441357053 371.816006127 218.754762988 385.196263603 221.46914716 398.722177951 c 2
 280.450113624 692.627332875 l 2
 281.616309297 698.691550375 278.360498945 708.021981484 261.461112853 711.231752954 c 0
 258.885544009 711.720941576 256.056204104 712 253 712 c 0
 228.867890002 712 209.704156922 694.574873961 207.551368523 683.380374288 c 2
 79.5513685228 43.3803742878 l 2
 78.3824427758 37.3019604035 81.6395062445 27.9780175299 98.5388871469 24.7682470463 c 0
 101.114455991 24.2790584243 103.943795896 24 107 24 c 0
 131.130870982 24 150.29931286 41.4431689044 152.444518609 52.5982387981 c 2
 194.457560292 264.664068244 l 2
 195.467291217 269.760805294 199.203636139 276.253024036 204.533748952 279.866053526 c 2
 353.533748952 380.866053526 l 2
 357.305534621 383.422767302 362.006432249 384.750977312 366.799263202 384.750977312 c 0
 374.296676373 384.750977312 382.019052823 381.500812262 386.761775518 374.618818905 c 2
 621.866669775 33.4666106424 l 2
 624.168303025 30.0141607678 632.794493501 24 647 24 c 0
 671.132109998 24 690.295843078 41.4251260387 692.448631477 52.6196257122 c 0
EndSplineSet
EndChar

